<svg xmlns="http://www.w3.org/2000/svg" xmlns:xlink="http://www.w3.org/1999/xlink" width="108" height="108" viewBox="0 0 108 108">
  <defs>
    <filter id="Trazado_904820" x="0" y="0" width="108" height="108" filterUnits="userSpaceOnUse">
      <feOffset dy="3" input="SourceAlpha"/>
      <feGaussianBlur stdDeviation="3" result="blur"/>
      <feFlood flood-opacity="0.161"/>
      <feComposite operator="in" in2="blur"/>
      <feComposite in="SourceGraphic"/>
    </filter>
  </defs>
  <g id="Grupo_1230371" data-name="Grupo 1230371" transform="translate(-200 -6440)">
    <g id="Grupo_1224595" data-name="Grupo 1224595" transform="translate(209 6446)">
      <g id="Grupo_1173585" data-name="Grupo 1173585" transform="translate(0 0)">
        <g id="Grupo_1173428" data-name="Grupo 1173428">
          <g id="Grupo_1171958" data-name="Grupo 1171958">
            <g id="Grupo_1167341" data-name="Grupo 1167341">
              <g id="Grupo_1166792" data-name="Grupo 1166792">
                <g transform="matrix(1, 0, 0, 1, -9, -6)" filter="url(#Trazado_904820)">
                  <g id="Trazado_904820-2" data-name="Trazado 904820" transform="translate(9 6)" fill="#fcf5f0">
                    <path d="M 44.99999618530273 88.50002288818359 C 39.12687301635742 88.50002288818359 33.43022155761719 87.35009765625 28.06829643249512 85.08218383789062 C 22.88852119445801 82.89133453369141 18.23629570007324 79.75460815429688 14.24084663391113 75.7591552734375 C 10.24540901184082 71.76371002197266 7.108683586120605 67.11148071289062 4.917821407318115 61.93170928955078 C 2.649921178817749 56.56978225708008 1.499996185302734 50.87313079833984 1.499996185302734 45.00000762939453 C 1.499996185302734 39.12688446044922 2.649921178817749 33.43023300170898 4.917821407318115 28.06830787658691 C 7.108683586120605 22.8885326385498 10.24540901184082 18.23630714416504 14.24084663391113 14.24085807800293 C 18.23629570007324 10.24542045593262 22.88852119445801 7.108695030212402 28.06829643249512 4.917832851409912 C 33.43022155761719 2.649932622909546 39.12687301635742 1.500007629394531 44.99999618530273 1.500007629394531 C 50.87311935424805 1.500007629394531 56.56977081298828 2.649932622909546 61.93169784545898 4.917832851409912 C 67.11147308349609 7.108695030212402 71.76369476318359 10.24542045593262 75.75914764404297 14.24085807800293 C 79.75458526611328 18.23630714416504 82.89131164550781 22.8885326385498 85.08216857910156 28.06830787658691 C 87.35007476806641 33.43023300170898 88.5 39.12688446044922 88.5 45.00000762939453 C 88.5 50.87313079833984 87.35007476806641 56.56978225708008 85.08216857910156 61.93170928955078 C 82.89131164550781 67.11148071289062 79.75458526611328 71.76371002197266 75.75914764404297 75.7591552734375 C 71.76369476318359 79.75460815429688 67.11147308349609 82.89133453369141 61.93169784545898 85.08218383789062 C 56.56977081298828 87.35009765625 50.87311935424805 88.50002288818359 44.99999618530273 88.50002288818359 Z" stroke="none"/>
                    <path d="M 44.99999618530273 2.999992370605469 C 39.32870864868164 2.999992370605469 33.82865142822266 4.110054016113281 28.65262603759766 6.299339294433594 C 23.65165710449219 8.414566040039062 19.15968322753906 11.44333648681641 15.301513671875 15.30150604248047 C 11.44333648681641 19.15967559814453 8.414566040039062 23.65164947509766 6.299339294433594 28.65262222290039 C 4.110054016113281 33.82866287231445 2.999992370605469 39.32872009277344 2.999992370605469 45.00000762939453 C 2.999992370605469 50.67129516601562 4.110054016113281 56.17133712768555 6.299339294433594 61.34738159179688 C 8.414566040039062 66.34835052490234 11.44333648681641 70.84030914306641 15.301513671875 74.69849395751953 C 19.15968322753906 78.55666351318359 23.65165710449219 81.58543395996094 28.65262603759766 83.70066833496094 C 33.82865142822266 85.88995361328125 39.32870864868164 87.00000762939453 44.99999618530273 87.00000762939453 C 50.67128372192383 87.00000762939453 56.17134094238281 85.88995361328125 61.34736633300781 83.70066833496094 C 66.34834289550781 81.58543395996094 70.84030914306641 78.55666351318359 74.69847869873047 74.69849395751953 C 78.55665588378906 70.84030914306641 81.58542633056641 66.34835052490234 83.70065307617188 61.34738159179688 C 85.88993835449219 56.17133712768555 87 50.67129516601562 87 45.00000762939453 C 87 39.32872009277344 85.88993835449219 33.82866287231445 83.70065307617188 28.65262222290039 C 81.58542633056641 23.65164947509766 78.55665588378906 19.15967559814453 74.69847869873047 15.30150604248047 C 70.84030914306641 11.44333648681641 66.34834289550781 8.414566040039062 61.34736633300781 6.299339294433594 C 56.17134094238281 4.110054016113281 50.67128372192383 2.999992370605469 44.99999618530273 2.999992370605469 M 44.99999618530273 -7.62939453125e-06 C 69.85281372070312 -7.62939453125e-06 90 20.14717864990234 90 45.00000762939453 C 90 69.85280609130859 69.85281372070312 90.00000762939453 44.99999618530273 90.00000762939453 C 20.14717864990234 90.00000762939453 -7.62939453125e-06 69.85280609130859 -7.62939453125e-06 45.00000762939453 C -7.62939453125e-06 20.14717864990234 20.14717864990234 -7.62939453125e-06 44.99999618530273 -7.62939453125e-06 Z" stroke="none" fill="#815a3f"/>
                  </g>
                </g>
              </g>
            </g>
          </g>
        </g>
      </g>
    </g>
    <g id="Fill_out_line" data-name="Fill out line" transform="translate(212.958 6448.958)">
      <path id="Trazado_1181090" data-name="Trazado 1181090" d="M369.115,30.945a2.17,2.17,0,0,0,2.17-2.17v-1.3A3.472,3.472,0,0,0,367.813,24H360v6.945Z" transform="translate(-306.673 -7.132)" fill="#f0bca1"/>
      <path id="Trazado_1181091" data-name="Trazado 1181091" d="M117.515,74.348H88V27.472A3.472,3.472,0,0,1,91.472,24h32.987a3.472,3.472,0,0,0-3.472,3.472v43.4A3.472,3.472,0,0,1,117.515,74.348Z" transform="translate(-64.187 -7.132)" fill="#ffd9b5"/>
      <path id="Trazado_1181092" data-name="Trazado 1181092" d="M306.17,424a2.17,2.17,0,0,1,2.17,2.17v1.3H304V424Z" transform="translate(-256.749 -363.728)" fill="#f5c9aa"/>
      <path id="Trazado_1181093" data-name="Trazado 1181093" d="M54.383,428.774a2.17,2.17,0,0,0,2.17,2.17H26.17a2.17,2.17,0,0,1-2.17-2.17v-2.6A2.17,2.17,0,0,1,26.17,424H56.553a2.17,2.17,0,0,0-2.17,2.17Z" transform="translate(-7.132 -363.728)" fill="#ffe3cd"/>
      <path id="Trazado_1181094" data-name="Trazado 1181094" d="M392,56h3.472v1.3a2.17,2.17,0,0,0,2.17,2.17H392Z" transform="translate(-335.201 -35.66)" fill="#f5c9aa"/>
      <path id="Trazado_1181095" data-name="Trazado 1181095" d="M219.472,112.681H216l.868-8.681H218.6Z" transform="translate(-178.298 -78.451)" fill="#ba8b5d"/>
      <path id="Trazado_1181096" data-name="Trazado 1181096" d="M131.472,141.208A3.476,3.476,0,0,1,128,137.736v-.868a.868.868,0,0,1,.868-.868h5.208a.868.868,0,0,1,.868.868v.868A3.476,3.476,0,0,1,131.472,141.208Z" transform="translate(-99.847 -106.979)" fill="#fab53f"/>
      <path id="Trazado_1181097" data-name="Trazado 1181097" d="M275.472,141.208A3.476,3.476,0,0,1,272,137.736v-.868a.868.868,0,0,1,.868-.868h5.208a.868.868,0,0,1,.868.868v.868A3.476,3.476,0,0,1,275.472,141.208Z" transform="translate(-228.222 -106.979)" fill="#fab53f"/>
      <rect id="Rectángulo_423277" data-name="Rectángulo 423277" width="9" height="4" rx="2" transform="translate(35.042 34.042)" fill="#9f764a"/>
      <path id="Trazado_1181098" data-name="Trazado 1181098" d="M156.834,61.92a1.736,1.736,0,0,0-1.736-1.736h-.868a4.911,4.911,0,0,0-6.945,0h-1.736a4.911,4.911,0,0,0-6.945,0h-.868a1.736,1.736,0,0,0,0,3.472h.868a4.911,4.911,0,0,1,6.945,0h1.736a4.911,4.911,0,0,1,6.945,0h.868A1.736,1.736,0,0,0,156.834,61.92Z" transform="translate(-106.979 -38.107)" fill="#9f764a"/>
      <path id="Trazado_1181099" data-name="Trazado 1181099" d="M366.757,145.736l-1.348,2.7-.777,1.554L356.34,166.57,352,170.91l.609-4.264.259-1.812,8.292-16.586.777-1.553,1.348-2.7Z" transform="translate(-299.541 -114.111)" fill="#529ddf"/>
      <path id="Trazado_1181100" data-name="Trazado 1181100" d="M361.342,337.736l-1.295,1.294-2.437-1.219.259-1.812Z" transform="translate(-304.542 -285.277)" fill="#4384c3"/>
      <path id="Trazado_1181101" data-name="Trazado 1181101" d="M355.046,353.919,352,356.964l.609-4.264Z" transform="translate(-299.541 -300.165)" fill="#68737f"/>
      <path id="Trazado_1181102" data-name="Trazado 1181102" d="M360.013,137.826l-3.472-1.736a.868.868,0,0,0-1.165.388l-1.348,2.7-.843-.422a2.821,2.821,0,0,0-3.855,1.412l-1.788,4.173,1.6.684,1.788-4.173a1.085,1.085,0,0,1,1.482-.543l.843.422-8.293,16.585a.87.87,0,0,0-.083.265l-.868,6.077a.868.868,0,0,0,1.473.737l4.34-4.34a.87.87,0,0,0,.163-.226L360.4,138.991a.868.868,0,0,0-.388-1.165Zm-11.519,21.1-2.4,2.4.48-3.359L354.8,141.5l1.919.96Zm9.006-18.012-1.919-.96.96-1.919,1.919.96Z" transform="translate(-292.408 -106.978)"/>
      <path id="Trazado_1181103" data-name="Trazado 1181103" d="M81.737,20.34a2.607,2.607,0,0,1,2.6-2.6h29.517a4.318,4.318,0,0,0-.87,2.6V30.757h1.736V20.34a2.607,2.607,0,0,1,2.6-2.6h.868a2.607,2.607,0,0,1,2.6,2.6v1.3a1.3,1.3,0,1,1-2.6,0v-1.3a.868.868,0,0,0-.868-.868h-1.736v1.736h.868v.434a3.02,3.02,0,0,0,.293,1.3h-1.161v1.736H119.5a3.042,3.042,0,0,0,3.038-3.038v-1.3A4.345,4.345,0,0,0,118.2,16H84.341A4.345,4.345,0,0,0,80,20.34V57.668h1.736Z" transform="translate(-57.056)"/>
      <path id="Trazado_1181104" data-name="Trazado 1181104" d="M55.931,391.813a2.607,2.607,0,0,1-2.6,2.6H49.421a1.3,1.3,0,0,1-1.3-1.3v-2.6a1.3,1.3,0,0,1,2.6,0v.434H48.987v1.736h2.6a.868.868,0,0,0,.868-.868v-1.3a3.042,3.042,0,0,0-3.038-3.038H19.038A3.042,3.042,0,0,0,16,390.511v2.6a3.042,3.042,0,0,0,3.038,3.038H53.327a4.345,4.345,0,0,0,4.34-4.34V384H55.931Zm-9.255,2.6H19.038a1.3,1.3,0,0,1-1.3-1.3v-2.6a1.3,1.3,0,0,1,1.3-1.3H46.676a3.02,3.02,0,0,0-.293,1.3v2.6A3.02,3.02,0,0,0,46.676,394.417Z" transform="translate(0 -328.069)"/>
      <path id="Trazado_1181105" data-name="Trazado 1181105" d="M128,59.285a3.472,3.472,0,1,0,6.945,0v-.868a.863.863,0,0,0-.124-.446h0l-2.226-3.711a4.043,4.043,0,0,1,4.915.164l-.747,7.465h-.083a2.6,2.6,0,1,0,0,5.208h5.208a2.6,2.6,0,0,0,0-5.208h-.083l-.746-7.465a4.043,4.043,0,0,1,4.915-.164l-2.226,3.711h0a.863.863,0,0,0-.124.446v.868a3.472,3.472,0,1,0,6.945,0v-.868a.863.863,0,0,0-.124-.446h0l-1.861-3.1a2.6,2.6,0,0,0-.62-5.133h-.525a5.779,5.779,0,0,0-7.288-.279V48h-1.736v1.458a5.779,5.779,0,0,0-7.288.279H130.6a2.6,2.6,0,0,0-.62,5.133l-1.86,3.1h0a.863.863,0,0,0-.124.446Zm3.472,1.736a1.738,1.738,0,0,1-1.736-1.736h3.472A1.738,1.738,0,0,1,131.471,61.021Zm1.071-3.472H130.4l1.071-1.785Zm10.214,6.945a.869.869,0,0,1-.868.868h-5.208a.868.868,0,0,1,0-1.736h5.208A.869.869,0,0,1,142.756,64.493Zm-4.249-2.6.694-6.945h.165l.694,6.945Zm9.661-4.34h-2.142l1.071-1.785ZM147.1,61.021a1.738,1.738,0,0,1-1.736-1.736h3.472A1.738,1.738,0,0,1,147.1,61.021ZM130.6,51.472h.868a.868.868,0,0,0,.614-.254,4.042,4.042,0,0,1,5.717,0,.868.868,0,0,0,.614.254h1.736a.868.868,0,0,0,.614-.254,4.042,4.042,0,0,1,5.717,0,.868.868,0,0,0,.614.254h.868a.868.868,0,0,1,0,1.736h-.525a5.78,5.78,0,0,0-7.631,0h-1.05a5.78,5.78,0,0,0-7.631,0H130.6a.868.868,0,0,1,0-1.736Z" transform="translate(-99.845 -28.528)"/>
      <path id="Trazado_1181106" data-name="Trazado 1181106" d="M112,224h5.208v1.736H112Z" transform="translate(-85.583 -185.43)"/>
      <path id="Trazado_1181107" data-name="Trazado 1181107" d="M112,256h6.945v1.736H112Z" transform="translate(-85.583 -213.958)"/>
      <path id="Trazado_1181108" data-name="Trazado 1181108" d="M192,256h6.945v1.736H192Z" transform="translate(-156.902 -213.958)"/>
      <path id="Trazado_1181109" data-name="Trazado 1181109" d="M272,256h10.417v1.736H272Z" transform="translate(-228.222 -213.958)"/>
      <path id="Trazado_1181110" data-name="Trazado 1181110" d="M112,384h6.945v1.736H112Z" transform="translate(-85.583 -328.069)"/>
      <path id="Trazado_1181111" data-name="Trazado 1181111" d="M192,384h10.417v1.736H192Z" transform="translate(-156.902 -328.069)"/>
      <path id="Trazado_1181112" data-name="Trazado 1181112" d="M112,288h3.472v1.736H112Z" transform="translate(-85.583 -242.485)"/>
      <path id="Trazado_1181113" data-name="Trazado 1181113" d="M160,288h8.681v1.736H160Z" transform="translate(-128.375 -242.485)"/>
      <path id="Trazado_1181114" data-name="Trazado 1181114" d="M256,288h10.417v1.736H256Z" transform="translate(-213.958 -242.485)"/>
      <path id="Trazado_1181115" data-name="Trazado 1181115" d="M112,352h3.472v1.736H112Z" transform="translate(-85.583 -299.541)"/>
      <path id="Trazado_1181116" data-name="Trazado 1181116" d="M160,352h8.681v1.736H160Z" transform="translate(-128.375 -299.541)"/>
      <path id="Trazado_1181117" data-name="Trazado 1181117" d="M256,352h7.813v1.736H256Z" transform="translate(-213.958 -299.541)"/>
      <path id="Trazado_1181118" data-name="Trazado 1181118" d="M112,320h14.757v1.736H112Z" transform="translate(-85.583 -271.013)"/>
    </g>
  </g>
</svg>
