<svg xmlns="http://www.w3.org/2000/svg" xmlns:xlink="http://www.w3.org/1999/xlink" width="103" height="103" viewBox="0 0 103 103">
  <defs>
    <filter id="Trazado_982547" x="0" y="0" width="103" height="103" filterUnits="userSpaceOnUse">
      <feOffset dy="3" input="SourceAlpha"/>
      <feGaussianBlur stdDeviation="3" result="blur"/>
      <feFlood flood-opacity="0.161"/>
      <feComposite operator="in" in2="blur"/>
      <feComposite in="SourceGraphic"/>
    </filter>
  </defs>
  <g id="Grupo_1230440" data-name="Grupo 1230440" transform="translate(-190.565 -6304.723)">
    <g id="Grupo_1224496" data-name="Grupo 1224496" transform="translate(-3.435 511.723)">
      <g id="Grupo_1224201" data-name="Grupo 1224201" transform="translate(-0.13 5367)">
        <g id="Grupo_1224080" data-name="Grupo 1224080" transform="translate(0 -1582)">
          <g id="Grupo_1206686" data-name="Grupo 1206686" transform="translate(-2.87 300.583)">
            <g id="Grupo_1201889" data-name="Grupo 1201889" transform="translate(206 1713.417)">
              <g id="Grupo_1201680" data-name="Grupo 1201680">
                <g id="Grupo_1201330" data-name="Grupo 1201330">
                  <g id="Grupo_1172010" data-name="Grupo 1172010">
                    <g id="Grupo_1171046" data-name="Grupo 1171046">
                      <g id="Grupo_1148525" data-name="Grupo 1148525">
                        <g transform="matrix(1, 0, 0, 1, -9, -6)" filter="url(#Trazado_982547)">
                          <g id="Trazado_982547-2" data-name="Trazado 982547" transform="translate(9 6)" fill="#f2f4f0">
                            <path d="M 42.5 83.5 C 36.96437835693359 83.5 31.59512901306152 82.41617584228516 26.54141235351562 80.27863311767578 C 21.65934181213379 78.21369171142578 17.27447128295898 75.25723266601562 13.50862312316895 71.49137878417969 C 9.742764472961426 67.72553253173828 6.786305904388428 63.34066009521484 4.721364498138428 58.45858764648438 C 2.583823442459106 53.40486907958984 1.5 48.03562164306641 1.5 42.5 C 1.5 36.96437835693359 2.583823442459106 31.59512901306152 4.721364498138428 26.54141235351562 C 6.786305904388428 21.65934181213379 9.742764472961426 17.27448272705078 13.50862312316895 13.50862312316895 C 17.27447128295898 9.742776870727539 21.65934181213379 6.786305904388428 26.54141235351562 4.721364498138428 C 31.59512901306152 2.583823442459106 36.96437835693359 1.5 42.5 1.5 C 48.03562164306641 1.5 53.40486907958984 2.583823442459106 58.45858764648438 4.721364498138428 C 63.34066009521484 6.786305904388428 67.72553253173828 9.742776870727539 71.49137878417969 13.50862312316895 C 75.25723266601562 17.27448272705078 78.21369171142578 21.65934181213379 80.27863311767578 26.54141235351562 C 82.41617584228516 31.59512901306152 83.5 36.96437835693359 83.5 42.5 C 83.5 48.03562164306641 82.41617584228516 53.40486907958984 80.27863311767578 58.45858764648438 C 78.21369171142578 63.34066009521484 75.25723266601562 67.72553253173828 71.49137878417969 71.49137878417969 C 67.72553253173828 75.25723266601562 63.34066009521484 78.21369171142578 58.45858764648438 80.27863311767578 C 53.40486907958984 82.41617584228516 48.03562164306641 83.5 42.5 83.5 Z" stroke="none"/>
                            <path d="M 42.5 3 C 37.16621398925781 3 31.99356079101562 4.043960571289062 27.125732421875 6.102882385253906 C 22.42246627807617 8.092185974121094 18.19785308837891 10.94070434570312 14.56928253173828 14.56928253173828 C 10.94070434570312 18.19785308837891 8.092185974121094 22.42246627807617 6.102882385253906 27.125732421875 C 4.043960571289062 31.99356079101562 3 37.16621398925781 3 42.5 C 3 47.83378601074219 4.043960571289062 53.00643920898438 6.102882385253906 57.87425231933594 C 8.092185974121094 62.57753372192383 10.94070434570312 66.80213165283203 14.56928253173828 70.43071746826172 C 18.19786834716797 74.05929565429688 22.42246627807617 76.90781402587891 27.125732421875 78.89711761474609 C 31.99356079101562 80.95603942871094 37.16621398925781 82 42.5 82 C 47.83378601074219 82 53.00642395019531 80.95603942871094 57.87425231933594 78.89711761474609 C 62.57753372192383 76.90781402587891 66.80213165283203 74.05929565429688 70.43071746826172 70.43071746826172 C 74.05929565429688 66.80213165283203 76.90781402587891 62.57753372192383 78.89711761474609 57.87425231933594 C 80.95603942871094 53.00642395019531 82 47.83378601074219 82 42.5 C 82 37.16621398925781 80.95603942871094 31.99356079101562 78.89711761474609 27.125732421875 C 76.90781402587891 22.42246627807617 74.05929565429688 18.19786834716797 70.43071746826172 14.56928253173828 C 66.80213165283203 10.94070434570312 62.57753372192383 8.092185974121094 57.87425231933594 6.102882385253906 C 53.00643920898438 4.043960571289062 47.83378601074219 3 42.5 3 M 42.5 0 C 65.97209167480469 0 85 19.02789306640625 85 42.5 C 85 65.97209167480469 65.97209167480469 85 42.5 85 C 19.02789306640625 85 0 65.97209167480469 0 42.5 C 0 19.02789306640625 19.02789306640625 0 42.5 0 Z" stroke="none" fill="#899e78"/>
                          </g>
                        </g>
                      </g>
                    </g>
                  </g>
                </g>
              </g>
            </g>
          </g>
        </g>
      </g>
    </g>
    <g id="Filled_outline" data-name="Filled outline" transform="translate(198.277 6311.277)">
      <rect id="Rect치ngulo_423312" data-name="Rect치ngulo 423312" width="32" height="40" rx="1" transform="translate(17.723 19.723)" fill="#3fb5c4"/>
      <rect id="Rect치ngulo_423313" data-name="Rect치ngulo 423313" width="32" height="39" rx="1" transform="translate(20.723 25.723)" fill="#5ac6d4"/>
      <path id="Trazado_1181515" data-name="Trazado 1181515" d="M136.067,138.672v33.849a2.628,2.628,0,0,1-.154.891,2.672,2.672,0,0,1-2.519,1.782H106.672A2.673,2.673,0,0,1,104,172.521v-28.5L112.017,136h21.378A2.673,2.673,0,0,1,136.067,138.672Z" transform="translate(-78.202 -106.639)" fill="#60d1e0"/>
      <g id="Grupo_1230439" data-name="Grupo 1230439" transform="translate(39.16 29.361)">
        <path id="Trazado_1181516" data-name="Trazado 1181516" d="M299.58,138.672v10.18l-2.672,2.29V145.8h-5.345A3.563,3.563,0,0,1,288,142.235V136h8.908A2.673,2.673,0,0,1,299.58,138.672Z" transform="translate(-280.874 -136)" fill="#5ac6d4"/>
        <path id="Trazado_1181517" data-name="Trazado 1181517" d="M242.706,384H228.454L224,386.672l4.454,2.672h14.252Z" transform="translate(-224 -356.387)" fill="#5ac6d4"/>
        <path id="Trazado_1181518" data-name="Trazado 1181518" d="M377.782,456v.891a2.628,2.628,0,0,1-.154.891H376V456Z" transform="translate(-359.076 -420.37)" fill="#5ac6d4"/>
      </g>
      <path id="Trazado_1181519" data-name="Trazado 1181519" d="M248,368h24.05a2.672,2.672,0,1,1,0,5.345H248Z" transform="translate(-206.168 -312.807)" fill="#6e3d26"/>
      <path id="Trazado_1181520" data-name="Trazado 1181520" d="M272.05,381.336H248v2.672h24.05A2.672,2.672,0,0,0,274.364,380a2.67,2.67,0,0,1-2.314,1.336Z" transform="translate(-206.168 -323.471)" fill="#5c2e1a"/>
      <path id="Trazado_1181521" data-name="Trazado 1181521" d="M212.454,368,208,370.672l4.454,2.672Z" transform="translate(-170.622 -312.807)" fill="#ffb531"/>
      <path id="Trazado_1181522" data-name="Trazado 1181522" d="M296.05,27.563V40.924a3.563,3.563,0,0,1-3.563,3.563h-5.345l-6.235,5.345V44.487h-5.345A3.563,3.563,0,0,1,272.02,41.3a3.457,3.457,0,0,1-.02-.374V27.563A3.563,3.563,0,0,1,275.563,24h16.924a3.558,3.558,0,0,1,3.563,3.563Z" transform="translate(-227.496 -7.109)" fill="#ffb531"/>
      <path id="Trazado_1181523" data-name="Trazado 1181523" d="M296.211,43.852V57.213a3.563,3.563,0,0,1-3.563,3.563H287.3l-6.235,5.345V60.776h-5.345a3.563,3.563,0,0,1-3.543-3.189c9-2.606,17.392-7.374,23.691-15.258A3.569,3.569,0,0,1,296.211,43.852Z" transform="translate(-227.656 -23.398)" fill="#ffa912"/>
      <path id="Trazado_1181524" data-name="Trazado 1181524" d="M104,144.017h5.345a2.672,2.672,0,0,0,2.672-2.672V136Z" transform="translate(-78.202 -106.639)" fill="#9fe4ed"/>
      <path id="Trazado_1181525" data-name="Trazado 1181525" d="M17.187,88.067l1.188-1.327a1.785,1.785,0,0,1-.594-1.328V51.563a1.784,1.784,0,0,1,1.782-1.782H41.832V48H19.563A3.567,3.567,0,0,0,16,51.563V85.412A3.568,3.568,0,0,0,17.187,88.067Z" transform="translate(0 -28.437)"/>
      <path id="Trazado_1181526" data-name="Trazado 1181526" d="M59.563,89.782H77.378V88H59.563A3.567,3.567,0,0,0,56,91.563v33.849a3.57,3.57,0,0,0,2.375,3.36l.594-1.68a1.785,1.785,0,0,1-1.188-1.68V91.563A1.784,1.784,0,0,1,59.563,89.782Z" transform="translate(-35.546 -63.983)"/>
      <path id="Trazado_1181527" data-name="Trazado 1181527" d="M384,256h1.781v9.8H384Z" transform="translate(-327.025 -213.277)"/>
      <path id="Trazado_1181528" data-name="Trazado 1181528" d="M138.672,248a2.672,2.672,0,1,0,2.672,2.672A2.672,2.672,0,0,0,138.672,248Zm0,3.563a.891.891,0,1,1,.891-.891A.891.891,0,0,1,138.672,251.563Z" transform="translate(-106.639 -206.168)"/>
      <path id="Trazado_1181529" data-name="Trazado 1181529" d="M200,248h14.252v1.782H200Z" transform="translate(-163.513 -206.168)"/>
      <path id="Trazado_1181530" data-name="Trazado 1181530" d="M200,280h17.815v1.781H200Z" transform="translate(-163.513 -234.605)"/>
      <path id="Trazado_1181531" data-name="Trazado 1181531" d="M138.672,328a2.672,2.672,0,1,0,2.672,2.672A2.672,2.672,0,0,0,138.672,328Zm0,3.563a.891.891,0,1,1,.891-.891A.891.891,0,0,1,138.672,331.563Z" transform="translate(-106.639 -277.261)"/>
      <path id="Trazado_1181532" data-name="Trazado 1181532" d="M200,328h17.815v1.781H200Z" transform="translate(-163.513 -277.261)"/>
      <path id="Trazado_1181533" data-name="Trazado 1181533" d="M138.672,408a2.672,2.672,0,1,0,2.672,2.672A2.672,2.672,0,0,0,138.672,408Zm0,3.563a.891.891,0,1,1,.891-.891.891.891,0,0,1-.891.891Z" transform="translate(-106.639 -348.353)"/>
      <path id="Trazado_1181534" data-name="Trazado 1181534" d="M200,440h16.034v1.782H200Z" transform="translate(-163.513 -376.79)"/>
      <path id="Trazado_1181535" data-name="Trazado 1181535" d="M200,168h5.345v1.781H200Z" transform="translate(-163.513 -135.076)"/>
      <path id="Trazado_1181536" data-name="Trazado 1181536" d="M200,200h5.345v1.781H200Z" transform="translate(-163.513 -163.513)"/>
      <path id="Trazado_1181537" data-name="Trazado 1181537" d="M285.378,16H268.454A4.459,4.459,0,0,0,264,20.454V33.815a4.459,4.459,0,0,0,4.454,4.454h4.454v4.454a.891.891,0,0,0,1.471.676l5.985-5.13h5.015a4.459,4.459,0,0,0,4.454-4.454V20.454A4.459,4.459,0,0,0,285.378,16Zm2.672,17.815a2.675,2.675,0,0,1-2.672,2.672h-5.345a.891.891,0,0,0-.58.214l-4.765,4.084V37.378a.891.891,0,0,0-.891-.891h-5.345a2.675,2.675,0,0,1-2.672-2.672V20.454a2.675,2.675,0,0,1,2.672-2.672h16.924a2.675,2.675,0,0,1,2.672,2.672Z" transform="translate(-220.387)"/>
      <path id="Trazado_1181538" data-name="Trazado 1181538" d="M340.868,48h-.827A4.045,4.045,0,0,0,336,52.04v1.3h1.781v-1.3a2.261,2.261,0,0,1,2.259-2.259h.827a2.259,2.259,0,0,1,1.6,3.856l-1.718,1.718a4.014,4.014,0,0,0-1.183,2.857V59.58h1.782V58.212a2.244,2.244,0,0,1,.661-1.6l1.718-1.718a4.04,4.04,0,0,0-2.857-6.9Z" transform="translate(-284.37 -28.437)"/>
      <path id="Trazado_1181539" data-name="Trazado 1181539" d="M368,168h1.781v1.781H368Z" transform="translate(-312.807 -135.076)"/>
      <path id="Trazado_1181540" data-name="Trazado 1181540" d="M384,256h1.781v9.8H384Z" transform="translate(-327.025 -213.277)"/>
      <path id="Trazado_1181541" data-name="Trazado 1181541" d="M127.966,166.005a1.785,1.785,0,0,1-1.68,1.188H99.563a1.784,1.784,0,0,1-1.782-1.782V137.8h4.454a3.567,3.567,0,0,0,3.563-3.563v-4.454h7.126V128h-8.017a.891.891,0,0,0-.63.261l-8.017,8.017a.891.891,0,0,0-.261.63v28.5a3.567,3.567,0,0,0,3.563,3.563h26.723a3.57,3.57,0,0,0,3.36-2.375Zm-25.731-29.989H99.041l4.976-4.976v3.194A1.784,1.784,0,0,1,102.235,136.017Z" transform="translate(-71.092 -99.529)"/>
      <path id="Trazado_1181542" data-name="Trazado 1181542" d="M229.4,360h-24.05a.886.886,0,0,0-.458.128h0l-4.454,2.672a.891.891,0,0,0,0,1.528L204.89,367h0a.886.886,0,0,0,.458.128h22.269v.891a.892.892,0,0,1-.891.891h-8.908v1.782h8.908a2.675,2.675,0,0,0,2.672-2.672v-.891a3.563,3.563,0,1,0,0-7.126Zm-24.941,2.464v2.2l-1.832-1.1Zm1.781-.682h8.017v3.563h-8.017Zm9.8,3.563v-3.563h11.58v3.563Zm13.361,0v-3.563a1.781,1.781,0,1,1,0,3.563Z" transform="translate(-163.516 -305.698)"/>
    </g>
  </g>
</svg>
