<svg xmlns="http://www.w3.org/2000/svg" xmlns:xlink="http://www.w3.org/1999/xlink" width="103" height="103" viewBox="0 0 103 103">
  <defs>
    <filter id="Trazado_982547" x="0" y="0" width="103" height="103" filterUnits="userSpaceOnUse">
      <feOffset dy="3" input="SourceAlpha"/>
      <feGaussianBlur stdDeviation="3" result="blur"/>
      <feFlood flood-opacity="0.161"/>
      <feComposite operator="in" in2="blur"/>
      <feComposite in="SourceGraphic"/>
    </filter>
  </defs>
  <g id="Grupo_1230442" data-name="Grupo 1230442" transform="translate(-499.565 -6304.723)">
    <g id="Grupo_1230336" data-name="Grupo 1230336" transform="translate(305.565 511.723)">
      <g id="Grupo_1224201" data-name="Grupo 1224201" transform="translate(-0.13 5367)">
        <g id="Grupo_1224080" data-name="Grupo 1224080" transform="translate(0 -1582)">
          <g id="Grupo_1206686" data-name="Grupo 1206686" transform="translate(-2.87 300.583)">
            <g id="Grupo_1201889" data-name="Grupo 1201889" transform="translate(206 1713.417)">
              <g id="Grupo_1201680" data-name="Grupo 1201680">
                <g id="Grupo_1201330" data-name="Grupo 1201330">
                  <g id="Grupo_1172010" data-name="Grupo 1172010">
                    <g id="Grupo_1171046" data-name="Grupo 1171046">
                      <g id="Grupo_1148525" data-name="Grupo 1148525">
                        <g transform="matrix(1, 0, 0, 1, -9, -6)" filter="url(#Trazado_982547)">
                          <g id="Trazado_982547-2" data-name="Trazado 982547" transform="translate(9 6)" fill="#f2f4f0">
                            <path d="M 42.5 83.5 C 36.96437835693359 83.5 31.59512901306152 82.41617584228516 26.54141235351562 80.27863311767578 C 21.65934181213379 78.21369171142578 17.27447128295898 75.25723266601562 13.50862312316895 71.49137878417969 C 9.742764472961426 67.72553253173828 6.786305904388428 63.34066009521484 4.721364498138428 58.45858764648438 C 2.583823442459106 53.40486907958984 1.5 48.03562164306641 1.5 42.5 C 1.5 36.96437835693359 2.583823442459106 31.59512901306152 4.721364498138428 26.54141235351562 C 6.786305904388428 21.65934181213379 9.742764472961426 17.27448272705078 13.50862312316895 13.50862312316895 C 17.27447128295898 9.742776870727539 21.65934181213379 6.786305904388428 26.54141235351562 4.721364498138428 C 31.59512901306152 2.583823442459106 36.96437835693359 1.5 42.5 1.5 C 48.03562164306641 1.5 53.40486907958984 2.583823442459106 58.45858764648438 4.721364498138428 C 63.34066009521484 6.786305904388428 67.72553253173828 9.742776870727539 71.49137878417969 13.50862312316895 C 75.25723266601562 17.27448272705078 78.21369171142578 21.65934181213379 80.27863311767578 26.54141235351562 C 82.41617584228516 31.59512901306152 83.5 36.96437835693359 83.5 42.5 C 83.5 48.03562164306641 82.41617584228516 53.40486907958984 80.27863311767578 58.45858764648438 C 78.21369171142578 63.34066009521484 75.25723266601562 67.72553253173828 71.49137878417969 71.49137878417969 C 67.72553253173828 75.25723266601562 63.34066009521484 78.21369171142578 58.45858764648438 80.27863311767578 C 53.40486907958984 82.41617584228516 48.03562164306641 83.5 42.5 83.5 Z" stroke="none"/>
                            <path d="M 42.5 3 C 37.16621398925781 3 31.99356079101562 4.043960571289062 27.125732421875 6.102882385253906 C 22.42246627807617 8.092185974121094 18.19785308837891 10.94070434570312 14.56928253173828 14.56928253173828 C 10.94070434570312 18.19785308837891 8.092185974121094 22.42246627807617 6.102882385253906 27.125732421875 C 4.043960571289062 31.99356079101562 3 37.16621398925781 3 42.5 C 3 47.83378601074219 4.043960571289062 53.00643920898438 6.102882385253906 57.87425231933594 C 8.092185974121094 62.57753372192383 10.94070434570312 66.80213165283203 14.56928253173828 70.43071746826172 C 18.19786834716797 74.05929565429688 22.42246627807617 76.90781402587891 27.125732421875 78.89711761474609 C 31.99356079101562 80.95603942871094 37.16621398925781 82 42.5 82 C 47.83378601074219 82 53.00642395019531 80.95603942871094 57.87425231933594 78.89711761474609 C 62.57753372192383 76.90781402587891 66.80213165283203 74.05929565429688 70.43071746826172 70.43071746826172 C 74.05929565429688 66.80213165283203 76.90781402587891 62.57753372192383 78.89711761474609 57.87425231933594 C 80.95603942871094 53.00642395019531 82 47.83378601074219 82 42.5 C 82 37.16621398925781 80.95603942871094 31.99356079101562 78.89711761474609 27.125732421875 C 76.90781402587891 22.42246627807617 74.05929565429688 18.19786834716797 70.43071746826172 14.56928253173828 C 66.80213165283203 10.94070434570312 62.57753372192383 8.092185974121094 57.87425231933594 6.102882385253906 C 53.00643920898438 4.043960571289062 47.83378601074219 3 42.5 3 M 42.5 0 C 65.97209167480469 0 85 19.02789306640625 85 42.5 C 85 65.97209167480469 65.97209167480469 85 42.5 85 C 19.02789306640625 85 0 65.97209167480469 0 42.5 C 0 19.02789306640625 19.02789306640625 0 42.5 0 Z" stroke="none" fill="#899e78"/>
                          </g>
                        </g>
                      </g>
                    </g>
                  </g>
                </g>
              </g>
            </g>
          </g>
        </g>
      </g>
    </g>
    <g id="agreement_8898412" transform="translate(520.46 6324.86)">
      <path id="Trazado_1181543" data-name="Trazado 1181543" d="M49,8.631V25.037a44.52,44.52,0,0,1-18,3.486,44.52,44.52,0,0,1-18-3.486V2.947A.947.947,0,0,1,13.947,2H42.364Z" transform="translate(-0.493 -0.053)" fill="#f2f2f2"/>
      <path id="Trazado_1181544" data-name="Trazado 1181544" d="M44,2V7.683a.947.947,0,0,0,.947.947h5.683Z" transform="translate(-2.128 -0.053)" fill="#d9d9d9"/>
      <path id="Trazado_1181545" data-name="Trazado 1181545" d="M45.043,50.579,28.523,40.226,22.953,38.1a10.912,10.912,0,0,1-4.225-1.97l.663-1.146L12.363,31,4.16,45.209,11.151,49.2l.748-1.307,3.4,2.5,13,7.7L31.62,60.1a1.894,1.894,0,0,0,2.6-.682,2.008,2.008,0,0,0,.265-.947,1.894,1.894,0,0,0-.89-1.61l1.591.947a1.894,1.894,0,1,0,1.98-3.192l1.62.947a1.894,1.894,0,1,0,1.894-3.221l2.415,1.449a1.879,1.879,0,1,0,1.951-3.211Z" transform="translate(-0.026 -1.583)" fill="#ffd199"/>
      <g id="Grupo_1230441" data-name="Grupo 1230441" transform="translate(13.636 28.176)">
        <rect id="Rectángulo_423314" data-name="Rectángulo 423314" width="3.77" height="5.655" rx="1.7" transform="translate(3.206 18.374) rotate(34.532)" fill="#ffc780"/>
        <rect id="Rectángulo_423315" data-name="Rectángulo 423315" width="3.77" height="6.593" rx="1.7" transform="translate(6.847 19.731) rotate(34.532)" fill="#ffc780"/>
        <rect id="Rectángulo_423316" data-name="Rectángulo 423316" width="3.77" height="5.655" rx="1.7" transform="translate(9.938 21.871) rotate(34.532)" fill="#ffc780"/>
        <rect id="Rectángulo_423317" data-name="Rectángulo 423317" width="3.77" height="4.708" rx="1.7" transform="translate(12.515 24.784) rotate(34.532)" fill="#ffc780"/>
        <path id="Trazado_1181546" data-name="Trazado 1181546" d="M50.875,29.69l-7.455,3.6,1.023,2.084c-1.364.474-4.111.625-9.321-1.5-8.885-3.609-13.593,7.578-13.593,9.349s4.973,2.122,7.909-3.069l16.1,10.1A10.1,10.1,0,0,1,49.654,46L50.6,48.01l7.455-3.6Z" transform="translate(-14.579 -29.69)" fill="#ffc780"/>
      </g>
      <path id="Trazado_1181547" data-name="Trazado 1181547" d="M58.123,44.806l-7.455,3.571-.947-2.008a10.1,10.1,0,0,0-4.158,4.282l-16.1-10.1c-2.936,5.191-7.909,4.869-7.909,3.069a7.161,7.161,0,0,1,.673-2.235c1.648.36,4.651-.587,6.688-4.187l16.1,10.1a10.1,10.1,0,0,1,4.111-4.253l.947,2.008L56.636,41.9Z" transform="translate(-0.944 -1.91)" fill="#e6b373"/>
      <path id="Trazado_1181548" data-name="Trazado 1181548" d="M52.095,29.69l-7.455,3.6,7.246,14.72,7.455-3.6Z" transform="translate(-2.162 -1.514)" fill="#4d9aff"/>
      <path id="Trazado_1181549" data-name="Trazado 1181549" d="M12.363,31l6.991,3.988L11.151,49.2,4.16,45.209Z" transform="translate(-0.026 -1.583)" fill="#ff7375"/>
      <circle id="Elipse_14783" data-name="Elipse 14783" cx="8.525" cy="8.525" r="8.525" transform="translate(21.98 7.631)" fill="#67cc6d"/>
      <path id="Trazado_1181550" data-name="Trazado 1181550" d="M50.16,46.7,43.766,33.728,50.4,30.545l-.824-1.705-7.455,3.6a.947.947,0,0,0-.436,1.269l.483.947c-1.364.123-3.713-.123-7.578-1.686a9.075,9.075,0,0,0-8.819.815,13.612,13.612,0,0,0-3.2,3.135,9.965,9.965,0,0,1-2.6-1.175l.227-.388a.949.949,0,0,0-.35-1.3l-6.981-3.988L11.92,31.71l6.167,3.524-7.313,12.56L4.607,44.271,3.66,45.909l6.953,4a.947.947,0,0,0,1.288-.35l.227-.388L13.938,50.5l-.2.294a2.529,2.529,0,0,0-.407,1.894,2.558,2.558,0,0,0,1.07,1.667l.445.3a2.567,2.567,0,0,0,1.449.455,1.715,1.715,0,0,0,.218,0,2.453,2.453,0,0,0,.947,1.4l.445.313a2.529,2.529,0,0,0,1.44.445,2.6,2.6,0,0,0,.474,0,2.482,2.482,0,0,0,.53-.171,2.662,2.662,0,0,0,.748.815l.445.3a2.539,2.539,0,0,0,1.44.455h.227a2.472,2.472,0,0,0,.995,1.392l.436.3a2.529,2.529,0,0,0,1.44.445A2.576,2.576,0,0,0,28.2,59.711l.265-.388,2.558,1.544a2.824,2.824,0,0,0,3.884-.966,2.719,2.719,0,0,0,.35-.947,2.757,2.757,0,0,0,.777.114,2.842,2.842,0,0,0,2.434-1.373,2.918,2.918,0,0,0,.36-.995,2.6,2.6,0,0,0,.767.114,2.842,2.842,0,0,0,2.425-1.373,2.756,2.756,0,0,0,.341-.89l.142.085a2.839,2.839,0,0,0,3.344-4.556,9.359,9.359,0,0,1,2.444-2.662l.54,1.089a.943.943,0,0,0,1.26.436l7.455-3.6-.824-1.705ZM16.883,52.928a.673.673,0,0,1-.947.171l-.445-.3a.673.673,0,0,1-.171-.947l1.392-2.018a.663.663,0,0,1,.426-.275.673.673,0,0,1,.5.114l.436.3a.6.6,0,0,1,.275.426.635.635,0,0,1-.1.5Zm3.1,2.141a.663.663,0,0,1-.426.275.72.72,0,0,1-.5-.1l-.445-.3a.673.673,0,0,1-.171-.947l1.894-2.775a.635.635,0,0,1,.426-.275h.123a.682.682,0,0,1,.379.114l.436.3a.691.691,0,0,1,.284.426.663.663,0,0,1-.114.5Zm3.637,1.392a.673.673,0,0,1-.947.171l-.445-.3a.691.691,0,0,1-.275-.426.72.72,0,0,1,.1-.5l1.373-1.989a.682.682,0,0,1,.947-.18l.445.313a.673.673,0,0,1,.171.947Zm3.941.947-.843,1.156a.691.691,0,0,1-.947.171l-.445-.3a.673.673,0,0,1-.171-.947L26,56.263a.673.673,0,0,1,.947-.171l.436.3a.673.673,0,0,1,.18.947Zm17.3-4.736a.943.943,0,0,1-1.288.322l-5.683-3.4-.947,1.62,3.23,1.894a.939.939,0,0,1-.966,1.61l-4.035-2.434-.947,1.62,2.425,1.459a1,1,0,0,1,.426.578.947.947,0,0,1-1.392,1.032l-4.035-2.434-.947,1.62,2.434,1.478a.947.947,0,0,1-.947,1.591L29.491,57.6a2.681,2.681,0,0,0,.066-1.137A2.558,2.558,0,0,0,28.5,54.813l-.474-.246A2.5,2.5,0,0,0,27,54.16a2.681,2.681,0,0,0,0-.549,2.51,2.51,0,0,0-1.07-1.648l-.436-.3a2.548,2.548,0,0,0-1.667-.436,2.529,2.529,0,0,0-1.032-1.392l-.445-.3a2.539,2.539,0,0,0-1.894-.407,2.9,2.9,0,0,0-.53.161,2.633,2.633,0,0,0-.748-.805l-.445-.3a2.567,2.567,0,0,0-3.562.654l-.095.142L13.18,47.548l5.854-10.135a11.86,11.86,0,0,0,2.453,1.175A12.106,12.106,0,0,0,19.64,43.2a2.141,2.141,0,0,0,1.79,2.008c1.724.455,4.982-.237,7.37-3.789L44.524,51.28a.936.936,0,0,1,.332,1.288Zm-.549-3.789-6.972-4.367a7.578,7.578,0,0,0,2.548-2.406l-1.648-.947a6.091,6.091,0,0,1-2.766,2.169L29,39.279a.952.952,0,0,0-1.326.332C26.091,42.4,23.884,43.4,22.491,43.4a1.4,1.4,0,0,1-.947-.246,14.209,14.209,0,0,1,5.229-7.834,7.142,7.142,0,0,1,7.047-.644c3.884,1.582,6.962,2.15,9.169,1.724l4.5,9.141a11.452,11.452,0,0,0-3.183,3.344Z" transform="translate(0 -1.469)"/>
      <path id="Trazado_1181551" data-name="Trazado 1181551" d="M0,0H2.1V1.894H0Z" transform="translate(50.776 41.192) rotate(-26.181)"/>
      <path id="Trazado_1181552" data-name="Trazado 1181552" d="M49.89,24.681V8.578a.947.947,0,0,0-.275-.673L42.984,1.275A.947.947,0,0,0,42.312,1H13.894A1.894,1.894,0,0,0,12,2.894V25.628h1.894V2.894h27.47V7.631a1.894,1.894,0,0,0,1.894,1.894H48V24.681ZM43.259,7.631V4.23l3.4,3.4Z" transform="translate(-0.44 0)"/>
      <path id="Trazado_1181553" data-name="Trazado 1181553" d="M22,16.472A9.472,9.472,0,1,0,31.472,7,9.472,9.472,0,0,0,22,16.472Zm17.05,0a7.578,7.578,0,1,1-7.578-7.578A7.578,7.578,0,0,1,39.05,16.472Z" transform="translate(-0.968 -0.317)"/>
      <path id="Trazado_1181554" data-name="Trazado 1181554" d="M28.215,16.647,26.87,17.992l2.349,2.34a.947.947,0,0,0,1.336,0l6.034-6.024L35.244,13l-5.352,5.361Z" transform="translate(-1.225 -0.633)"/>
    </g>
  </g>
</svg>
