<svg xmlns="http://www.w3.org/2000/svg" xmlns:xlink="http://www.w3.org/1999/xlink" width="103" height="103" viewBox="0 0 103 103">
  <defs>
    <filter id="Trazado_982547" x="0" y="0" width="103" height="103" filterUnits="userSpaceOnUse">
      <feOffset dy="3" input="SourceAlpha"/>
      <feGaussianBlur stdDeviation="3" result="blur"/>
      <feFlood flood-opacity="0.161"/>
      <feComposite operator="in" in2="blur"/>
      <feComposite in="SourceGraphic"/>
    </filter>
  </defs>
  <g id="Grupo_1230444" data-name="Grupo 1230444" transform="translate(-820.565 -6304.723)">
    <g id="Grupo_1230337" data-name="Grupo 1230337" transform="translate(626.565 511.723)">
      <g id="Grupo_1224201" data-name="Grupo 1224201" transform="translate(-0.13 5367)">
        <g id="Grupo_1224080" data-name="Grupo 1224080" transform="translate(0 -1582)">
          <g id="Grupo_1206686" data-name="Grupo 1206686" transform="translate(-2.87 300.583)">
            <g id="Grupo_1201889" data-name="Grupo 1201889" transform="translate(206 1713.417)">
              <g id="Grupo_1201680" data-name="Grupo 1201680">
                <g id="Grupo_1201330" data-name="Grupo 1201330">
                  <g id="Grupo_1172010" data-name="Grupo 1172010">
                    <g id="Grupo_1171046" data-name="Grupo 1171046">
                      <g id="Grupo_1148525" data-name="Grupo 1148525">
                        <g transform="matrix(1, 0, 0, 1, -9, -6)" filter="url(#Trazado_982547)">
                          <g id="Trazado_982547-2" data-name="Trazado 982547" transform="translate(9 6)" fill="#f2f4f0">
                            <path d="M 42.5 83.5 C 36.96437835693359 83.5 31.59512901306152 82.41617584228516 26.54141235351562 80.27863311767578 C 21.65934181213379 78.21369171142578 17.27447128295898 75.25723266601562 13.50862312316895 71.49137878417969 C 9.742764472961426 67.72553253173828 6.786305904388428 63.34066009521484 4.721364498138428 58.45858764648438 C 2.583823442459106 53.40486907958984 1.5 48.03562164306641 1.5 42.5 C 1.5 36.96437835693359 2.583823442459106 31.59512901306152 4.721364498138428 26.54141235351562 C 6.786305904388428 21.65934181213379 9.742764472961426 17.27448272705078 13.50862312316895 13.50862312316895 C 17.27447128295898 9.742776870727539 21.65934181213379 6.786305904388428 26.54141235351562 4.721364498138428 C 31.59512901306152 2.583823442459106 36.96437835693359 1.5 42.5 1.5 C 48.03562164306641 1.5 53.40486907958984 2.583823442459106 58.45858764648438 4.721364498138428 C 63.34066009521484 6.786305904388428 67.72553253173828 9.742776870727539 71.49137878417969 13.50862312316895 C 75.25723266601562 17.27448272705078 78.21369171142578 21.65934181213379 80.27863311767578 26.54141235351562 C 82.41617584228516 31.59512901306152 83.5 36.96437835693359 83.5 42.5 C 83.5 48.03562164306641 82.41617584228516 53.40486907958984 80.27863311767578 58.45858764648438 C 78.21369171142578 63.34066009521484 75.25723266601562 67.72553253173828 71.49137878417969 71.49137878417969 C 67.72553253173828 75.25723266601562 63.34066009521484 78.21369171142578 58.45858764648438 80.27863311767578 C 53.40486907958984 82.41617584228516 48.03562164306641 83.5 42.5 83.5 Z" stroke="none"/>
                            <path d="M 42.5 3 C 37.16621398925781 3 31.99356079101562 4.043960571289062 27.125732421875 6.102882385253906 C 22.42246627807617 8.092185974121094 18.19785308837891 10.94070434570312 14.56928253173828 14.56928253173828 C 10.94070434570312 18.19785308837891 8.092185974121094 22.42246627807617 6.102882385253906 27.125732421875 C 4.043960571289062 31.99356079101562 3 37.16621398925781 3 42.5 C 3 47.83378601074219 4.043960571289062 53.00643920898438 6.102882385253906 57.87425231933594 C 8.092185974121094 62.57753372192383 10.94070434570312 66.80213165283203 14.56928253173828 70.43071746826172 C 18.19786834716797 74.05929565429688 22.42246627807617 76.90781402587891 27.125732421875 78.89711761474609 C 31.99356079101562 80.95603942871094 37.16621398925781 82 42.5 82 C 47.83378601074219 82 53.00642395019531 80.95603942871094 57.87425231933594 78.89711761474609 C 62.57753372192383 76.90781402587891 66.80213165283203 74.05929565429688 70.43071746826172 70.43071746826172 C 74.05929565429688 66.80213165283203 76.90781402587891 62.57753372192383 78.89711761474609 57.87425231933594 C 80.95603942871094 53.00642395019531 82 47.83378601074219 82 42.5 C 82 37.16621398925781 80.95603942871094 31.99356079101562 78.89711761474609 27.125732421875 C 76.90781402587891 22.42246627807617 74.05929565429688 18.19786834716797 70.43071746826172 14.56928253173828 C 66.80213165283203 10.94070434570312 62.57753372192383 8.092185974121094 57.87425231933594 6.102882385253906 C 53.00643920898438 4.043960571289062 47.83378601074219 3 42.5 3 M 42.5 0 C 65.97209167480469 0 85 19.02789306640625 85 42.5 C 85 65.97209167480469 65.97209167480469 85 42.5 85 C 19.02789306640625 85 0 65.97209167480469 0 42.5 C 0 19.02789306640625 19.02789306640625 0 42.5 0 Z" stroke="none" fill="#899e78"/>
                          </g>
                        </g>
                      </g>
                    </g>
                  </g>
                </g>
              </g>
            </g>
          </g>
        </g>
      </g>
    </g>
    <g id="review_4304195" transform="translate(844.777 6327.028)">
      <path id="Trazado_1181555" data-name="Trazado 1181555" d="M7.492,10H48.2a3.392,3.392,0,0,1,3.392,3.392V42.224H4.1V13.392A3.392,3.392,0,0,1,7.492,10Z" transform="translate(-0.471 -0.912)" fill="#868686"/>
      <path id="Trazado_1181556" data-name="Trazado 1181556" d="M8.1,14H48.8V39.44H8.1Z" transform="translate(-1.079 -1.52)" fill="#bce4f8"/>
      <path id="Trazado_1181557" data-name="Trazado 1181557" d="M8.1,14V36.048H41.172A2.544,2.544,0,0,0,43.715,33.5V14Z" transform="translate(-1.079 -1.52)" fill="#e4f5fd"/>
      <path id="Trazado_1181558" data-name="Trazado 1181558" d="M30,21.96V5H57.136V21.96H43.568l-4.24,4.24V21.96Z" transform="translate(-4.408 -0.152)" fill="#e0e0e0"/>
      <path id="Trazado_1181559" data-name="Trazado 1181559" d="M30,5V18.568H52.048a2.544,2.544,0,0,0,2.544-2.544V5Z" transform="translate(-4.408 -0.152)" fill="#f2f2f2"/>
      <path id="Trazado_1181560" data-name="Trazado 1181560" d="M40.352,11l1.057,2.233,2.364.359-1.71,1.738.4,2.454-2.115-1.159-2.115,1.159.4-2.454L36.93,13.591l2.364-.359Z" transform="translate(-5.462 -1.064)" fill="#f3a845"/>
      <path id="Trazado_1181561" data-name="Trazado 1181561" d="M39.533,16.088a1.7,1.7,0,0,0,1.7-1.7V12.854L40.352,11l-1.057,2.233-2.364.359,1.711,1.738-.126.758Z" transform="translate(-5.462 -1.064)" fill="#eecc61"/>
      <path id="Trazado_1181562" data-name="Trazado 1181562" d="M25.568,42.784H12V39.392A3.392,3.392,0,0,1,15.392,36h6.784a3.392,3.392,0,0,1,3.392,3.392Z" transform="translate(-1.672 -4.864)" fill="#aa2b24"/>
      <path id="Trazado_1181563" data-name="Trazado 1181563" d="M19.632,41.936a2.544,2.544,0,0,0,2.544-2.544V36H15.392A3.392,3.392,0,0,0,12,39.392v2.544Z" transform="translate(-1.672 -4.864)" fill="#d24034"/>
      <g id="Grupo_1230443" data-name="Grupo 1230443" transform="translate(10.328 18.416)">
        <rect id="Rectángulo_423318" data-name="Rectángulo 423318" width="8" height="13" rx="4" transform="translate(2.96 -0.444)" fill="#fddfb1"/>
        <path id="Trazado_1181564" data-name="Trazado 1181564" d="M14.544,30.544V28H13.7a1.7,1.7,0,0,0,0,3.392h.933a4.23,4.23,0,0,1-.085-.848Z" transform="translate(-12 -22.064)" fill="#fddfb1"/>
        <path id="Trazado_1181565" data-name="Trazado 1181565" d="M25.833,28h-.848v2.544a4.23,4.23,0,0,1-.085.848h.933a1.7,1.7,0,0,0,0-3.392Z" transform="translate(-13.961 -22.064)" fill="#fddfb1"/>
      </g>
      <path id="Trazado_1181566" data-name="Trazado 1181566" d="M19.24,21A4.24,4.24,0,0,0,15,25.24v4.24a4.222,4.222,0,0,0,.358,1.7H19.24a2.544,2.544,0,0,0,2.544-2.544V21.867A4.2,4.2,0,0,0,19.24,21Z" transform="translate(-2.128 -2.584)" fill="#feecd0"/>
      <path id="Trazado_1181567" data-name="Trazado 1181567" d="M18,36v.848a1.7,1.7,0,1,0,3.392,0V36Z" transform="translate(-2.584 -4.864)" fill="#fddfb1"/>
      <path id="Trazado_1181568" data-name="Trazado 1181568" d="M19.24,21A4.24,4.24,0,0,0,15,25.24v1.7h1.5a3.068,3.068,0,0,0,2.744-1.7,3.068,3.068,0,0,0,2.744,1.7h1.5v-1.7A4.24,4.24,0,0,0,19.24,21Z" transform="translate(-2.128 -2.584)" fill="#686868"/>
      <path id="Trazado_1181569" data-name="Trazado 1181569" d="M2,48H52.879v3.392a3.392,3.392,0,0,1-3.392,3.392H5.392A3.392,3.392,0,0,1,2,51.392Z" transform="translate(-0.152 -6.689)" fill="#939393"/>
      <path id="Trazado_1181570" data-name="Trazado 1181570" d="M23,48l1.7,3.392H36.568L38.264,48Z" transform="translate(-3.344 -6.689)" fill="#a9a9a9"/>
      <path id="Trazado_1181571" data-name="Trazado 1181571" d="M54.784,49.848a.848.848,0,0,1-.848.848H48.848a.848.848,0,0,1,0-1.7h5.088A.848.848,0,0,1,54.784,49.848Z" transform="translate(-7.145 -6.841)" fill="#fff"/>
      <path id="Trazado_1181572" data-name="Trazado 1181572" d="M59.544,49.848a.848.848,0,0,1-.848.848h-.848a.848.848,0,0,1,0-1.7H58.7A.848.848,0,0,1,59.544,49.848Z" transform="translate(-8.513 -6.841)" fill="#fff"/>
      <path id="Trazado_1181573" data-name="Trazado 1181573" d="M52.352,11l1.057,2.233,2.364.359-1.71,1.738.4,2.454-2.115-1.159-2.115,1.159.4-2.454L48.93,13.591l2.364-.359Z" transform="translate(-7.286 -1.064)" fill="#f3a845"/>
      <path id="Trazado_1181574" data-name="Trazado 1181574" d="M23,41h1.7v2.544H23Z" transform="translate(-3.344 -5.624)" fill="#80201b"/>
      <path id="Trazado_1181575" data-name="Trazado 1181575" d="M15,41h1.7v2.544H15Z" transform="translate(-2.128 -5.624)" fill="#80201b"/>
      <path id="Trazado_1181576" data-name="Trazado 1181576" d="M51.533,16.088a1.7,1.7,0,0,0,1.7-1.7V12.854L52.352,11l-1.057,2.233-2.364.359,1.711,1.738-.125.758Z" transform="translate(-7.286 -1.064)" fill="#eecc61"/>
      <path id="Trazado_1181577" data-name="Trazado 1181577" d="M25.656,35.9a4.231,4.231,0,0,0-3.883-4.2,5.088,5.088,0,0,0,1.042-1.732h.3a2.544,2.544,0,0,0,0-5.088v-.848a5.088,5.088,0,0,0-10.176,0v.848a2.544,2.544,0,0,0,0,5.088h.3a5.088,5.088,0,0,0,1.042,1.732,4.231,4.231,0,0,0-3.883,4.2V38.44H8.7V14.7H23.96V13H7.848A.848.848,0,0,0,7,13.848v25.44a.848.848,0,0,0,.848.848h40.7a.848.848,0,0,0,.848-.848V25.72H47.7V38.44H25.656ZM14.632,28.264v-1.7h.648a3.9,3.9,0,0,0,2.744-1.118,3.9,3.9,0,0,0,2.744,1.118h.648v1.7a3.392,3.392,0,1,1-6.784,0Zm4.24,5.088a.848.848,0,1,1-1.7,0Zm5.088-5.936a.848.848,0,0,1-.848.848v-1.7A.848.848,0,0,1,23.96,27.416Zm-5.936-6.784a3.392,3.392,0,0,1,3.392,3.392v.848h-.648a2.2,2.2,0,0,1-1.981-1.227.884.884,0,0,0-1.518,0,2.2,2.2,0,0,1-1.989,1.227h-.648v-.848A3.392,3.392,0,0,1,18.024,20.632Zm-5.936,6.784a.848.848,0,0,1,.848-.848v1.7A.848.848,0,0,1,12.088,27.416Zm0,8.48a2.544,2.544,0,0,1,2.544-2.544h.848a2.544,2.544,0,1,0,5.088,0h.848A2.544,2.544,0,0,1,23.96,35.9V38.44h-1.7v-1.7h-1.7v1.7H15.48v-1.7h-1.7v1.7h-1.7Z" transform="translate(-0.912 -1.368)"/>
      <path id="Trazado_1181578" data-name="Trazado 1181578" d="M52.727,22.656a.848.848,0,0,0,.848-.848V4.848A.848.848,0,0,0,52.727,4H25.592a.848.848,0,0,0-.848.848V8.24H6.936A4.245,4.245,0,0,0,2.7,12.48V40.463H1.848A.848.848,0,0,0,1,41.311V44.7a4.245,4.245,0,0,0,4.24,4.24h44.1a4.245,4.245,0,0,0,4.24-4.24V41.311a.848.848,0,0,0-.848-.848h-.848V22.656ZM26.44,5.7h25.44V20.96H39.159a.848.848,0,0,0-.6.248L35.768,24V21.808a.848.848,0,0,0-.848-.848H26.44ZM51.879,44.7a2.544,2.544,0,0,1-2.544,2.544H5.24A2.544,2.544,0,0,1,2.7,44.7V42.159H19.132l1.461,2.923a.848.848,0,0,0,.759.469H33.224a.848.848,0,0,0,.763-.469l1.457-2.923H51.879ZM21.028,42.159h12.52l-.848,1.7H21.876Zm29.156-1.7H4.392V12.48A2.544,2.544,0,0,1,6.936,9.936H24.744V21.808a.848.848,0,0,0,.848.848h8.48v3.392a.848.848,0,0,0,1.448.6l3.991-3.991H50.183Z"/>
      <path id="Trazado_1181579" data-name="Trazado 1181579" d="M31,39H46.264v1.7H31Z" transform="translate(-4.56 -5.32)"/>
      <path id="Trazado_1181580" data-name="Trazado 1181580" d="M51,39h1.7v1.7H51Z" transform="translate(-7.601 -5.32)"/>
      <path id="Trazado_1181581" data-name="Trazado 1181581" d="M31,35H49.656v1.7H31Z" transform="translate(-4.56 -4.712)"/>
      <path id="Trazado_1181582" data-name="Trazado 1181582" d="M49.582,15.466l-.333,2.029a.848.848,0,0,0,1.244.881l1.707-.933,1.708.933a.848.848,0,0,0,1.243-.882l-.333-2.028,1.409-1.431a.848.848,0,0,0-.478-1.433L53.83,12.31l-.865-1.825a.848.848,0,0,0-1.531,0l-.865,1.825-1.918.291a.848.848,0,0,0-.477,1.433Zm1.687-1.546a.848.848,0,0,0,.639-.475l.292-.616.292.616a.848.848,0,0,0,.639.475l.722.109-.545.554a.848.848,0,0,0-.232.733l.121.736-.589-.322a.848.848,0,0,0-.815,0l-.588.322.121-.736a.848.848,0,0,0-.232-.733l-.545-.554Z" transform="translate(-7.134 -0.912)"/>
      <path id="Trazado_1181583" data-name="Trazado 1181583" d="M41.977,18.376a.848.848,0,0,0,1.244-.881l-.333-2.029L44.3,14.034a.848.848,0,0,0-.477-1.433L41.9,12.31l-.865-1.825a.848.848,0,0,0-1.531,0l-.865,1.825-1.917.291a.848.848,0,0,0-.478,1.433l1.409,1.431-.333,2.028a.848.848,0,0,0,1.243.882l1.708-.933Zm-2.7-2.324.118-.736a.848.848,0,0,0-.232-.733l-.545-.554.721-.109a.848.848,0,0,0,.639-.475l.292-.616.292.616a.848.848,0,0,0,.639.475l.721.109-.545.554a.848.848,0,0,0-.232.733l.121.736-.588-.322a.848.848,0,0,0-.815,0Z" transform="translate(-5.32 -0.912)"/>
    </g>
  </g>
</svg>
