<svg xmlns="http://www.w3.org/2000/svg" xmlns:xlink="http://www.w3.org/1999/xlink" width="108" height="108" viewBox="0 0 108 108">
  <defs>
    <filter id="Trazado_904820" x="0" y="0" width="108" height="108" filterUnits="userSpaceOnUse">
      <feOffset dy="3" input="SourceAlpha"/>
      <feGaussianBlur stdDeviation="3" result="blur"/>
      <feFlood flood-opacity="0.161"/>
      <feComposite operator="in" in2="blur"/>
      <feComposite in="SourceGraphic"/>
    </filter>
  </defs>
  <g id="Grupo_1230415" data-name="Grupo 1230415" transform="translate(-200 -335.51)">
    <g id="Grupo_1222170" data-name="Grupo 1222170" transform="translate(209 341.51)">
      <g id="Grupo_1173585" data-name="Grupo 1173585" transform="translate(0 0)">
        <g id="Grupo_1173428" data-name="Grupo 1173428">
          <g id="Grupo_1171958" data-name="Grupo 1171958">
            <g id="Grupo_1167341" data-name="Grupo 1167341">
              <g id="Grupo_1166792" data-name="Grupo 1166792">
                <g transform="matrix(1, 0, 0, 1, -9, -6)" filter="url(#Trazado_904820)">
                  <g id="Trazado_904820-2" data-name="Trazado 904820" transform="translate(9 6)" fill="#fcf5f0">
                    <path d="M 44.99999618530273 88.50002288818359 C 39.12687301635742 88.50002288818359 33.43022155761719 87.35009765625 28.06829643249512 85.08218383789062 C 22.88852119445801 82.89133453369141 18.23629570007324 79.75460815429688 14.24084663391113 75.7591552734375 C 10.24540901184082 71.76371002197266 7.108683586120605 67.11148071289062 4.917821407318115 61.93170928955078 C 2.649921178817749 56.56978225708008 1.499996185302734 50.87313079833984 1.499996185302734 45.00000762939453 C 1.499996185302734 39.12688446044922 2.649921178817749 33.43023300170898 4.917821407318115 28.06830787658691 C 7.108683586120605 22.8885326385498 10.24540901184082 18.23630714416504 14.24084663391113 14.24085807800293 C 18.23629570007324 10.24542045593262 22.88852119445801 7.108695030212402 28.06829643249512 4.917832851409912 C 33.43022155761719 2.649932622909546 39.12687301635742 1.500007629394531 44.99999618530273 1.500007629394531 C 50.87311935424805 1.500007629394531 56.56977081298828 2.649932622909546 61.93169784545898 4.917832851409912 C 67.11147308349609 7.108695030212402 71.76369476318359 10.24542045593262 75.75914764404297 14.24085807800293 C 79.75458526611328 18.23630714416504 82.89131164550781 22.8885326385498 85.08216857910156 28.06830787658691 C 87.35007476806641 33.43023300170898 88.5 39.12688446044922 88.5 45.00000762939453 C 88.5 50.87313079833984 87.35007476806641 56.56978225708008 85.08216857910156 61.93170928955078 C 82.89131164550781 67.11148071289062 79.75458526611328 71.76371002197266 75.75914764404297 75.7591552734375 C 71.76369476318359 79.75460815429688 67.11147308349609 82.89133453369141 61.93169784545898 85.08218383789062 C 56.56977081298828 87.35009765625 50.87311935424805 88.50002288818359 44.99999618530273 88.50002288818359 Z" stroke="none"/>
                    <path d="M 44.99999618530273 2.999992370605469 C 39.32870864868164 2.999992370605469 33.82865142822266 4.110054016113281 28.65262603759766 6.299339294433594 C 23.65165710449219 8.414566040039062 19.15968322753906 11.44333648681641 15.301513671875 15.30150604248047 C 11.44333648681641 19.15967559814453 8.414566040039062 23.65164947509766 6.299339294433594 28.65262222290039 C 4.110054016113281 33.82866287231445 2.999992370605469 39.32872009277344 2.999992370605469 45.00000762939453 C 2.999992370605469 50.67129516601562 4.110054016113281 56.17133712768555 6.299339294433594 61.34738159179688 C 8.414566040039062 66.34835052490234 11.44333648681641 70.84030914306641 15.301513671875 74.69849395751953 C 19.15968322753906 78.55666351318359 23.65165710449219 81.58543395996094 28.65262603759766 83.70066833496094 C 33.82865142822266 85.88995361328125 39.32870864868164 87.00000762939453 44.99999618530273 87.00000762939453 C 50.67128372192383 87.00000762939453 56.17134094238281 85.88995361328125 61.34736633300781 83.70066833496094 C 66.34834289550781 81.58543395996094 70.84030914306641 78.55666351318359 74.69847869873047 74.69849395751953 C 78.55665588378906 70.84030914306641 81.58542633056641 66.34835052490234 83.70065307617188 61.34738159179688 C 85.88993835449219 56.17133712768555 87 50.67129516601562 87 45.00000762939453 C 87 39.32872009277344 85.88993835449219 33.82866287231445 83.70065307617188 28.65262222290039 C 81.58542633056641 23.65164947509766 78.55665588378906 19.15967559814453 74.69847869873047 15.30150604248047 C 70.84030914306641 11.44333648681641 66.34834289550781 8.414566040039062 61.34736633300781 6.299339294433594 C 56.17134094238281 4.110054016113281 50.67128372192383 2.999992370605469 44.99999618530273 2.999992370605469 M 44.99999618530273 -7.62939453125e-06 C 69.85281372070312 -7.62939453125e-06 90 20.14717864990234 90 45.00000762939453 C 90 69.85280609130859 69.85281372070312 90.00000762939453 44.99999618530273 90.00000762939453 C 20.14717864990234 90.00000762939453 -7.62939453125e-06 69.85280609130859 -7.62939453125e-06 45.00000762939453 C -7.62939453125e-06 20.14717864990234 20.14717864990234 -7.62939453125e-06 44.99999618530273 -7.62939453125e-06 Z" stroke="none" fill="#815a3f"/>
                  </g>
                </g>
              </g>
            </g>
          </g>
        </g>
      </g>
    </g>
    <g id="master_8019842" transform="translate(222.246 353.585)">
      <g id="Grupo_1230396" data-name="Grupo 1230396" transform="translate(1.971 6.132)">
        <g id="Grupo_1230383" data-name="Grupo 1230383" transform="translate(29.784)">
          <path id="Trazado_1181316" data-name="Trazado 1181316" d="M56.2,45.7c-7.734,5.323-15.468-5.323-23.2,0V7.7c7.734-5.323,15.468,5.323,23.2,0Z" transform="translate(-33 -6.161)" fill="#7cb5e8"/>
        </g>
        <g id="Grupo_1230384" data-name="Grupo 1230384" transform="translate(6.581)">
          <path id="Trazado_1181317" data-name="Trazado 1181317" d="M8.85,45.7c7.734,5.323,15.468-5.323,23.2,0V7.7c-7.734-5.323-15.468,5.323-23.2,0Z" transform="translate(-8.85 -6.161)" fill="#7cb5e8"/>
        </g>
        <g id="Grupo_1230385" data-name="Grupo 1230385" transform="translate(9.829 22.981)">
          <path id="Trazado_1181318" data-name="Trazado 1181318" d="M21.991,30.08v6.581c-3.257,1.066-6.5,2.469-9.761,1.854V31.934c3.257.624,6.5-.788,9.761-1.854Z" transform="translate(-12.23 -30.08)" fill="#ffab03"/>
        </g>
        <g id="Grupo_1230386" data-name="Grupo 1230386" transform="translate(53.149 36.912)">
          <ellipse id="Elipse_14781" data-name="Elipse 14781" cx="3.209" cy="7.158" rx="3.209" ry="7.158" fill="#d7d8d7"/>
        </g>
        <g id="Grupo_1230387" data-name="Grupo 1230387" transform="translate(20.676 36.566)">
          <circle id="Elipse_14782" data-name="Elipse 14782" cx="7.504" cy="7.504" r="7.504" fill="#ef4a51"/>
        </g>
        <g id="Grupo_1230388" data-name="Grupo 1230388" transform="translate(34.126 37.037)">
          <path id="Trazado_1181319" data-name="Trazado 1181319" d="M59.156,44.71A133.886,133.886,0,0,1,37.53,47.189a7.473,7.473,0,0,1-.01,9.118,134.128,134.128,0,0,1,21.732,2.5c-1.537-.538-2.719-3.488-2.719-7.071,0-3.488,1.134-6.4,2.623-7.023Z" transform="translate(-37.52 -44.71)" fill="#e2e2e2"/>
        </g>
        <g id="Grupo_1230389" data-name="Grupo 1230389" transform="translate(0 36.902)">
          <path id="Trazado_1181320" data-name="Trazado 1181320" d="M22.676,51.737a7.511,7.511,0,0,1,1.653-4.7A133.211,133.211,0,0,1,5.8,44.695a1.614,1.614,0,0,0-.6-.125C3.441,44.58,2,47.789,2,51.737s1.441,7.158,3.209,7.158a1.488,1.488,0,0,0,.5-.1,134.611,134.611,0,0,1,18.62-2.363,7.471,7.471,0,0,1-1.653-4.7Z" transform="translate(-2 -44.57)" fill="#e2e2e2"/>
        </g>
        <g id="Grupo_1230390" data-name="Grupo 1230390" transform="translate(23.702 36.566)" opacity="0.2">
          <path id="Trazado_1181321" data-name="Trazado 1181321" d="M31.147,44.22a7.453,7.453,0,0,0-4.391,1.432,8.855,8.855,0,0,0-.086,1.124A9.435,9.435,0,0,0,36.1,56.2a8.855,8.855,0,0,0,1.124-.086A7.49,7.49,0,0,0,31.147,44.22Z" transform="translate(-26.67 -44.22)" fill="#e2e2e2"/>
        </g>
        <g id="Grupo_1230391" data-name="Grupo 1230391" transform="translate(25.623 36.566)" opacity="0.2">
          <path id="Trazado_1181322" data-name="Trazado 1181322" d="M31.226,44.22a7.344,7.344,0,0,0-2.219.336,7.39,7.39,0,0,0-.336,2.219,7.508,7.508,0,0,0,7.5,7.5,7.344,7.344,0,0,0,2.219-.336,7.39,7.39,0,0,0,.336-2.219A7.508,7.508,0,0,0,31.226,44.22Z" transform="translate(-28.67 -44.22)" fill="#e2e2e2"/>
        </g>
        <g id="Grupo_1230392" data-name="Grupo 1230392" transform="translate(27.769 36.656)" opacity="0.2">
          <path id="Trazado_1181323" data-name="Trazado 1181323" d="M38.625,50.18a7.4,7.4,0,0,0-5.486-5.717c-.192-.048-.384-.1-.576-.125a1.438,1.438,0,0,0-.769,2.748,2.476,2.476,0,0,0,.4.106,4.649,4.649,0,0,1,3.632,3.6,1.431,1.431,0,1,0,2.8-.615Z" transform="translate(-30.903 -44.314)" fill="#e2e2e2"/>
        </g>
        <g id="Grupo_1230393" data-name="Grupo 1230393" transform="translate(32.378 0.007)" opacity="0.2">
          <path id="Trazado_1181324" data-name="Trazado 1181324" d="M35.786,6.449c-.048.557-.086,1.114-.086,1.681A19.565,19.565,0,0,0,55.242,27.672c.355,0,.711-.038,1.066-.058V7.7C49.468,12.405,42.627,4.633,35.786,6.449Z" transform="translate(-35.7 -6.168)" fill="#fff"/>
        </g>
        <g id="Grupo_1230394" data-name="Grupo 1230394" transform="translate(36.221 0.134)" opacity="0.2">
          <path id="Trazado_1181325" data-name="Trazado 1181325" d="M39.815,6.3A16.505,16.505,0,0,0,39.7,8.135a15.7,15.7,0,0,0,15.7,15.7c.355,0,.711-.029,1.066-.058V7.7C50.922,11.517,45.368,7.117,39.815,6.3Z" transform="translate(-39.7 -6.3)" fill="#fff"/>
        </g>
        <g id="Grupo_1230395" data-name="Grupo 1230395" transform="translate(45.193 1.537)" opacity="0.2">
          <path id="Trazado_1181326" data-name="Trazado 1181326" d="M50.741,9.22a1.464,1.464,0,0,0-1.057,2.642,1.5,1.5,0,0,0,.557.2,12.622,12.622,0,0,0,3.718-.058v6.11c.029,1.854,2.882,1.758,2.882-.1V7.76a8.6,8.6,0,0,1-6.1,1.46Z" transform="translate(-49.039 -7.76)" fill="#fff"/>
        </g>
      </g>
      <g id="Grupo_1230414" data-name="Grupo 1230414" transform="translate(1.25 5.416)">
        <g id="Grupo_1230397" data-name="Grupo 1230397" transform="translate(33.037 6.148)">
          <path id="Trazado_1181327" data-name="Trazado 1181327" d="M51.406,16.316a21.837,21.837,0,0,1-6.917-1.566C41.712,13.8,39.1,12.9,36.495,13.4a.72.72,0,0,1-.279-1.412c2.978-.576,5.909.432,8.733,1.4,2.767.951,5.371,1.845,7.965,1.355a.724.724,0,1,1,.269,1.422,10.018,10.018,0,0,1-1.777.154Z" transform="translate(-35.636 -11.814)"/>
        </g>
        <g id="Grupo_1230398" data-name="Grupo 1230398" transform="translate(33.037 13.978)">
          <path id="Trazado_1181328" data-name="Trazado 1181328" d="M51.406,24.466A21.837,21.837,0,0,1,44.488,22.9c-2.777-.951-5.39-1.854-7.994-1.355a.72.72,0,1,1-.279-1.412c2.978-.576,5.909.432,8.733,1.4,2.767.951,5.371,1.845,7.965,1.355a.724.724,0,1,1,.269,1.422,10.018,10.018,0,0,1-1.777.154Z" transform="translate(-35.636 -19.964)"/>
        </g>
        <g id="Grupo_1230399" data-name="Grupo 1230399" transform="translate(33.037 21.808)">
          <path id="Trazado_1181329" data-name="Trazado 1181329" d="M51.406,32.616a21.837,21.837,0,0,1-6.917-1.566C41.712,30.1,39.1,29.2,36.495,29.7a.72.72,0,1,1-.279-1.412c2.978-.576,5.909.432,8.733,1.4,2.767.951,5.371,1.845,7.965,1.355a.724.724,0,1,1,.269,1.422,10.018,10.018,0,0,1-1.777.154Z" transform="translate(-35.636 -28.114)"/>
        </g>
        <g id="Grupo_1230400" data-name="Grupo 1230400" transform="translate(33.027 29.624)">
          <path id="Trazado_1181330" data-name="Trazado 1181330" d="M51.406,40.766a21.764,21.764,0,0,1-6.937-1.576c-2.767-.951-5.38-1.854-7.984-1.355a.724.724,0,0,1-.269-1.422c2.978-.567,5.889.442,8.724,1.412,2.767.951,5.39,1.854,7.974,1.355a.724.724,0,1,1,.269,1.422,9.2,9.2,0,0,1-1.777.163Z" transform="translate(-35.626 -36.249)"/>
        </g>
        <g id="Grupo_1230401" data-name="Grupo 1230401" transform="translate(9.827 6.138)">
          <path id="Trazado_1181331" data-name="Trazado 1181331" d="M13.853,16.316a9.37,9.37,0,0,1-1.787-.163.724.724,0,0,1,.269-1.422c2.594.5,5.207-.4,7.965-1.355,2.834-.97,5.755-1.979,8.733-1.4a.72.72,0,1,1-.279,1.412c-2.6-.5-5.217.394-7.994,1.355a21.48,21.48,0,0,1-6.908,1.576Z" transform="translate(-11.479 -11.804)"/>
        </g>
        <g id="Grupo_1230402" data-name="Grupo 1230402" transform="translate(9.827 13.968)">
          <path id="Trazado_1181332" data-name="Trazado 1181332" d="M13.853,24.466a9.37,9.37,0,0,1-1.787-.163.724.724,0,1,1,.269-1.422c2.594.5,5.207-.4,7.965-1.355,2.834-.97,5.755-1.979,8.733-1.4a.72.72,0,1,1-.279,1.412c-2.6-.5-5.217.394-7.994,1.355a21.48,21.48,0,0,1-6.908,1.576Z" transform="translate(-11.479 -19.954)"/>
        </g>
        <g id="Grupo_1230403" data-name="Grupo 1230403" transform="translate(9.838 22.985)">
          <path id="Trazado_1181333" data-name="Trazado 1181333" d="M13.853,39.37a9.271,9.271,0,0,1-1.777-.163.73.73,0,0,1-.586-.711V31.915a.72.72,0,0,1,.855-.711c2.594.49,5.207-.4,7.965-1.345.48-.163.961-.327,1.432-.48a.679.679,0,0,1,.644.106.737.737,0,0,1,.3.586v6.581a.721.721,0,0,1-.5.682c-.471.154-.942.317-1.412.48A22.206,22.206,0,0,1,13.853,39.37Zm-.932-1.5c2.4.269,4.823-.557,7.379-1.432.317-.106.624-.211.942-.317V31.06c-.154.058-.317.106-.471.163-2.546.874-5.178,1.768-7.849,1.518Z" transform="translate(-11.49 -29.34)"/>
        </g>
        <g id="Grupo_1230404" data-name="Grupo 1230404" transform="translate(22.846 21.811)">
          <path id="Trazado_1181334" data-name="Trazado 1181334" d="M25.751,29.744a.729.729,0,0,1-.711-.6.721.721,0,0,1,.586-.836,10.927,10.927,0,0,1,3.949-.029A.72.72,0,1,1,29.3,29.7a9.183,9.183,0,0,0-3.43.038.468.468,0,0,1-.115.01Z" transform="translate(-25.029 -28.117)"/>
        </g>
        <g id="Grupo_1230405" data-name="Grupo 1230405" transform="translate(22.846 28.499)">
          <path id="Trazado_1181335" data-name="Trazado 1181335" d="M25.751,36.713a.729.729,0,0,1-.711-.6.721.721,0,0,1,.586-.836,10.728,10.728,0,0,1,3.949-.038.724.724,0,0,1-.269,1.422,9.338,9.338,0,0,0-3.42.038.73.73,0,0,1-.135.01Z" transform="translate(-25.029 -35.078)"/>
        </g>
        <g id="Grupo_1230406" data-name="Grupo 1230406" transform="translate(53.149 36.916)">
          <path id="Trazado_1181336" data-name="Trazado 1181336" d="M60.5,59.6c-2.239,0-3.93-3.391-3.93-7.878s1.691-7.878,3.93-7.878,3.93,3.391,3.93,7.878S62.738,59.6,60.5,59.6Zm0-14.325c-1.172,0-2.488,2.757-2.488,6.437s1.316,6.437,2.488,6.437,2.488-2.757,2.488-6.437S61.672,45.272,60.5,45.272Z" transform="translate(-56.57 -43.84)"/>
        </g>
        <g id="Grupo_1230407" data-name="Grupo 1230407" transform="translate(20.676 36.571)">
          <path id="Trazado_1181337" data-name="Trazado 1181337" d="M30.994,59.928A8.224,8.224,0,1,1,39.218,51.7a8.233,8.233,0,0,1-8.224,8.224Zm0-15.017a6.783,6.783,0,1,0,6.783,6.783A6.794,6.794,0,0,0,30.994,44.912Z" transform="translate(-22.77 -43.48)"/>
        </g>
        <g id="Grupo_1230408" data-name="Grupo 1230408" transform="translate(6.581)">
          <path id="Trazado_1181338" data-name="Trazado 1181338" d="M8.821,41.468a.726.726,0,0,1-.721-.721V7.668a.715.715,0,0,1,1.124-.586C12.8,9.541,16.382,8.3,20.186,7,24.029,5.679,28,4.315,32.023,6.813c4.026-2.5,7.994-1.143,11.837.183,3.8,1.307,7.4,2.546,10.972.086a.71.71,0,0,1,.74-.048.718.718,0,0,1,.384.634V40.737a.721.721,0,1,1-1.441,0V8.936c-3.776,1.941-7.5.653-11.126-.586-3.8-1.307-7.4-2.536-10.962-.086a.708.708,0,0,1-.817,0c-3.564-2.45-7.158-1.22-10.953.086-3.612,1.239-7.34,2.517-11.116.586V40.747a.726.726,0,0,1-.721.721Z" transform="translate(-8.1 -5.416)"/>
        </g>
        <g id="Grupo_1230409" data-name="Grupo 1230409" transform="translate(25.463 42.126)">
          <path id="Trazado_1181339" data-name="Trazado 1181339" d="M30.008,54.592a.713.713,0,0,1-.509-.211l-1.537-1.528a.72.72,0,1,1,1.018-1.018l1.028,1.018,3.382-3.382a.72.72,0,0,1,1.018,1.018l-3.891,3.891A.713.713,0,0,1,30.008,54.592Z" transform="translate(-27.752 -49.263)"/>
        </g>
        <g id="Grupo_1230410" data-name="Grupo 1230410" transform="translate(29.784 1.532)">
          <path id="Trazado_1181340" data-name="Trazado 1181340" d="M32.971,40.723A.726.726,0,0,1,32.25,40V7.731a.721.721,0,1,1,1.441,0V40.012A.718.718,0,0,1,32.971,40.723Z" transform="translate(-32.25 -7.01)"/>
        </g>
        <g id="Grupo_1230411" data-name="Grupo 1230411" transform="translate(0 36.916)">
          <path id="Trazado_1181341" data-name="Trazado 1181341" d="M5.18,59.6c-2.239,0-3.93-3.391-3.93-7.878S2.941,43.84,5.18,43.84a2.174,2.174,0,0,1,.8.154,132.918,132.918,0,0,0,15.084,2.075.723.723,0,1,1-.115,1.441A134.5,134.5,0,0,1,5.631,45.4a.551.551,0,0,1-.135-.038.819.819,0,0,0-.317-.067c-1.172,0-2.488,2.757-2.488,6.437s1.316,6.437,2.488,6.437a.8.8,0,0,0,.259-.058l.1-.029a134.8,134.8,0,0,1,15.42-2.133.723.723,0,0,1,.115,1.441A135.43,135.43,0,0,0,5.862,59.481a2.163,2.163,0,0,1-.682.115Z" transform="translate(-1.25 -43.84)"/>
        </g>
        <g id="Grupo_1230412" data-name="Grupo 1230412" transform="translate(37.421 37.027)">
          <path id="Trazado_1181342" data-name="Trazado 1181342" d="M40.921,47.726a.732.732,0,0,1-.721-.682.72.72,0,0,1,.682-.759,134.2,134.2,0,0,0,18.235-2.315.72.72,0,0,1,.279,1.412,134.136,134.136,0,0,1-18.437,2.335c-.01.01-.019.01-.038.01Z" transform="translate(-40.199 -43.956)"/>
        </g>
        <g id="Grupo_1230413" data-name="Grupo 1230413" transform="translate(37.411 48.79)">
          <path id="Trazado_1181343" data-name="Trazado 1181343" d="M59.357,59.985a.727.727,0,0,1-.144-.01,134.246,134.246,0,0,0-18.341-2.335.727.727,0,0,1-.682-.759.709.709,0,0,1,.759-.682,135.355,135.355,0,0,1,18.533,2.354.72.72,0,0,1,.567.845.7.7,0,0,1-.692.586Z" transform="translate(-40.189 -56.198)"/>
        </g>
      </g>
    </g>
  </g>
</svg>
