<svg xmlns="http://www.w3.org/2000/svg" xmlns:xlink="http://www.w3.org/1999/xlink" width="118" height="118" viewBox="0 0 118 118">
  <defs>
    <filter id="Trazado_982547" x="0" y="0" width="118" height="118" filterUnits="userSpaceOnUse">
      <feOffset dy="3" input="SourceAlpha"/>
      <feGaussianBlur stdDeviation="3" result="blur"/>
      <feFlood flood-opacity="0.161"/>
      <feComposite operator="in" in2="blur"/>
      <feComposite in="SourceGraphic"/>
    </filter>
  </defs>
  <g id="Grupo_1230477" data-name="Grupo 1230477" transform="translate(-900.125 -8003.014)">
    <g id="Grupo_1230354" data-name="Grupo 1230354" transform="translate(909.125 8009.014)">
      <g id="Grupo_1224244" data-name="Grupo 1224244" transform="translate(0)">
        <g id="Grupo_1224091" data-name="Grupo 1224091" transform="translate(0)">
          <g id="Grupo_1223183" data-name="Grupo 1223183">
            <g id="Grupo_1211217" data-name="Grupo 1211217">
              <g id="Grupo_1210736" data-name="Grupo 1210736">
                <g id="Grupo_1210537" data-name="Grupo 1210537">
                  <g id="Grupo_1164202" data-name="Grupo 1164202">
                    <g id="Grupo_1158168" data-name="Grupo 1158168">
                      <g id="Grupo_1152576" data-name="Grupo 1152576">
                        <g id="Grupo_1148633" data-name="Grupo 1148633">
                          <g id="Grupo_1148525" data-name="Grupo 1148525">
                            <g transform="matrix(1, 0, 0, 1, -9, -6)" filter="url(#Trazado_982547)">
                              <g id="Trazado_982547-2" data-name="Trazado 982547" transform="translate(9 6)" fill="#fcf5f0">
                                <path d="M 49.99999618530273 98.5 C 43.45188140869141 98.5 37.10042572021484 97.21786499023438 31.12206840515137 94.68923950195312 C 25.34691047668457 92.24655151367188 20.15996742248535 88.74931335449219 15.70532512664795 84.29468536376953 C 11.25068187713623 79.84004211425781 7.753438949584961 74.65309906005859 5.310753345489502 68.87792205810547 C 2.782124757766724 62.89956665039062 1.499996185302734 56.54811096191406 1.499996185302734 49.99999618530273 C 1.499996185302734 43.45188140869141 2.782124757766724 37.10042572021484 5.310753345489502 31.12206840515137 C 7.753438949584961 25.34691047668457 11.25068187713623 20.15996742248535 15.70532512664795 15.70532512664795 C 20.15996742248535 11.25068187713623 25.34691047668457 7.753438949584961 31.12206840515137 5.310753345489502 C 37.10042572021484 2.782124757766724 43.45188140869141 1.499996185302734 49.99999618530273 1.499996185302734 C 56.54811096191406 1.499996185302734 62.89956665039062 2.782124757766724 68.87792205810547 5.310753345489502 C 74.65309906005859 7.753438949584961 79.84004211425781 11.25068187713623 84.29468536376953 15.70532512664795 C 88.74931335449219 20.15996742248535 92.24655151367188 25.34691047668457 94.68923950195312 31.12206840515137 C 97.21786499023438 37.10042572021484 98.5 43.45188140869141 98.5 49.99999618530273 C 98.5 56.54811096191406 97.21786499023438 62.89956665039062 94.68923950195312 68.87792205810547 C 92.24655151367188 74.65309906005859 88.74931335449219 79.84004211425781 84.29468536376953 84.29468536376953 C 79.84004211425781 88.74931335449219 74.65309906005859 92.24655151367188 68.87792205810547 94.68923950195312 C 62.89956665039062 97.21786499023438 56.54811096191406 98.5 49.99999618530273 98.5 Z" stroke="none"/>
                                <path d="M 49.99999618530273 2.999992370605469 C 43.65372085571289 2.999992370605469 37.49885940551758 4.242256164550781 31.70639801025391 6.6922607421875 C 26.11002349853516 9.059318542480469 21.08335113525391 12.4486083984375 16.76598358154297 16.76598358154297 C 12.4486083984375 21.08335113525391 9.059318542480469 26.11002349853516 6.6922607421875 31.70639801025391 C 4.242256164550781 37.49885940551758 2.999992370605469 43.65372085571289 2.999992370605469 49.99999618530273 C 2.999992370605469 56.34627151489258 4.242256164550781 62.50113296508789 6.6922607421875 68.29359436035156 C 9.059318542480469 73.88996887207031 12.4486083984375 78.91664123535156 16.76598358154297 83.2340087890625 C 21.08335113525391 87.55138397216797 26.11002349853516 90.940673828125 31.70639801025391 93.30773162841797 C 37.49885940551758 95.75773620605469 43.65372085571289 97 49.99999618530273 97 C 56.34627151489258 97 62.50113296508789 95.75773620605469 68.29359436035156 93.30773162841797 C 73.88996887207031 90.940673828125 78.91664123535156 87.55138397216797 83.2340087890625 83.2340087890625 C 87.55138397216797 78.91664123535156 90.940673828125 73.88996887207031 93.30773162841797 68.29359436035156 C 95.75773620605469 62.50113296508789 97 56.34627151489258 97 49.99999618530273 C 97 43.65372085571289 95.75773620605469 37.49885940551758 93.30773162841797 31.70639801025391 C 90.940673828125 26.11002349853516 87.55138397216797 21.08335113525391 83.2340087890625 16.76598358154297 C 78.91664123535156 12.4486083984375 73.88996887207031 9.059318542480469 68.29359436035156 6.6922607421875 C 62.50113296508789 4.242256164550781 56.34627151489258 2.999992370605469 49.99999618530273 2.999992370605469 M 49.99999618530273 -7.62939453125e-06 C 77.61422729492188 -7.62939453125e-06 100 22.38576507568359 100 49.99999618530273 C 100 77.61422729492188 77.61422729492188 100 49.99999618530273 100 C 22.38576507568359 100 -7.62939453125e-06 77.61422729492188 -7.62939453125e-06 49.99999618530273 C -7.62939453125e-06 22.38576507568359 22.38576507568359 -7.62939453125e-06 49.99999618530273 -7.62939453125e-06 Z" stroke="none" fill="#eca675"/>
                              </g>
                            </g>
                          </g>
                        </g>
                      </g>
                    </g>
                  </g>
                </g>
              </g>
            </g>
          </g>
        </g>
      </g>
    </g>
    <g id="XMLID_970_" transform="translate(927.102 8027.98)">
      <path id="XMLID_498_" d="M188.211,153.956l9.312-9.312.148-.148,2.13-2.13a14.6,14.6,0,0,0,4.276-10.343l0-2.94,8.455-8.455-11.469-11.469-8.432,8.432-4.549-.007a14.6,14.6,0,0,0-8.151,2.474l-6.657,4.464a3.046,3.046,0,0,0,3.275,5.135l5.4-3.271a.08.08,0,0,1,.1.125l-10.9,10.9Z" transform="translate(-149.733 -95.495)" fill="#ca9081"/>
      <path id="XMLID_969_" d="M40.582,126.425a.08.08,0,0,0-.1.125l10.9,10.9-6.7-6.7,11.077,11.077a2.972,2.972,0,1,1-4.2,4.2l2.624,2.624a2.972,2.972,0,1,1-4.2,4.2l-2.624-2.624a2.972,2.972,0,0,1-4.2,4.2l-4.472-4.472a2.972,2.972,0,0,1-.122,4.08A3.016,3.016,0,0,1,34.314,154L25,144.684l-.148-.148-2.13-2.13a14.6,14.6,0,0,1-4.276-10.343l0-2.94L10,120.672,21.471,109.2l8.426,8.426,4.549-.007A14.6,14.6,0,0,1,42.6,120.1Z" transform="translate(-8.75 -95.535)" fill="#f2d2bd"/>
      <path id="XMLID_320_" d="M199.336,176.52l-4.549-.007a14.6,14.6,0,0,0-8.151,2.474l-6.353,4.26a3.331,3.331,0,0,0,3.533,5.644l7.107-4.143Z" transform="translate(-156.441 -154.425)" fill="#ca9081"/>
      <g id="XMLID_497_" transform="translate(15.686 40.934)">
        <path id="XMLID_502_" d="M135.4,328.045a2.972,2.972,0,0,0-4.2,0l-4.918,4.918a2.972,2.972,0,0,0,4.2,4.2l4.918-4.918A2.972,2.972,0,0,0,135.4,328.045Z" transform="translate(-125.407 -327.175)" fill="#f2d2bd"/>
        <path id="XMLID_501_" d="M160.514,361.647a2.972,2.972,0,0,0-4.2,0l-6.132,6.132a2.972,2.972,0,1,0,4.2,4.2l6.132-6.132A2.972,2.972,0,0,0,160.514,361.647Z" transform="translate(-146.319 -356.574)" fill="#f2d2bd"/>
        <path id="XMLID_500_" d="M200.768,395.249a2.972,2.972,0,0,0-4.2,0l-5.181,5.181a2.972,2.972,0,0,0,4.2,4.2l5.181-5.181A2.972,2.972,0,0,0,200.768,395.249Z" transform="translate(-182.37 -385.973)" fill="#f2d2bd"/>
        <path id="XMLID_499_" d="M246.405,436.9a2.972,2.972,0,0,0-4.2,0l-2.309,2.309a2.972,2.972,0,0,0,4.2,4.2l2.309-2.309A2.972,2.972,0,0,0,246.405,436.9Z" transform="translate(-224.811 -422.417)" fill="#f2d2bd"/>
      </g>
      <circle id="XMLID_1238_" cx="11.925" cy="11.925" r="11.925" transform="translate(20.096 1.263)" fill="#e38eba"/>
      <g id="XMLID_132_" transform="translate(0 0.012)">
        <path id="XMLID_175_" d="M63.679,191.214a1.251,1.251,0,0,0-1.769,0l-8.455,8.455a1.251,1.251,0,0,0-.366.886l0,2.94a13.259,13.259,0,0,1-3.909,9.457l-.5.5a4.229,4.229,0,0,0-.782-1.077l-2.015-2.015a1.251,1.251,0,0,0-1.769,1.769l2.015,2.015A1.721,1.721,0,1,1,43.7,216.58L32.62,205.5a1.251,1.251,0,1,0-1.769,1.769l13.7,13.7a1.721,1.721,0,1,1-2.434,2.434S26.433,207.74,26.352,207.69a4.228,4.228,0,0,0-5.761.2L15.673,212.8a4.274,4.274,0,0,0-.442.52l-.372-.372a13.258,13.258,0,0,1-3.909-9.457l0-2.94a1.25,1.25,0,0,0-.366-.886l-8.451-8.451a1.251,1.251,0,0,0-1.769,1.769l8.084,8.084,0,2.421a15.743,15.743,0,0,0,4.642,11.23l1.357,1.357a4.225,4.225,0,0,0,3.189,3.811,4.227,4.227,0,0,0,5.032,5.417,4.223,4.223,0,0,0,6.2,2.836,4.224,4.224,0,0,0,6.99,1.641l2.309-2.309a4.2,4.2,0,0,0,1.237-2.986c0-.09,0-.18-.009-.269l.956.956a4.222,4.222,0,0,0,6.072-5.867,4.239,4.239,0,0,0,2.473-2.528l2.059-2.059a15.743,15.743,0,0,0,4.642-11.23l0-2.421,8.088-8.088a1.252,1.252,0,0,0,0-1.769ZM16.937,215.79a1.71,1.71,0,0,1,.5-1.217l4.918-4.918a1.721,1.721,0,1,1,2.434,2.434l-4.918,4.919a1.721,1.721,0,0,1-2.938-1.217Zm3.494,6.633a1.721,1.721,0,0,1,0-2.434l6.132-6.132A1.721,1.721,0,0,1,29,216.292h0l-6.132,6.132a1.721,1.721,0,0,1-2.434,0Zm5.154,3.252a1.723,1.723,0,0,1,0-2.434l5.181-5.181A1.721,1.721,0,1,1,33.2,220.5l-5.181,5.181a1.723,1.723,0,0,1-2.434,0Zm10.81.03-2.309,2.309a1.721,1.721,0,0,1-2.434-2.434l2.309-2.309a1.721,1.721,0,0,1,2.434,2.434Z" transform="translate(0 -166.978)"/>
        <path id="XMLID_181_" d="M100.493,22.98a1.251,1.251,0,0,0,.884.366h0l2.487,0a13.2,13.2,0,0,0,3.209,1.96l-3.7,2.482a4.582,4.582,0,0,0,4.859,7.763l4.1-2.392,4.051,4.052a1.251,1.251,0,0,0,1.769-1.769l-3.586-3.586.77-.449a1.251,1.251,0,0,0-1.26-2.161l-7.107,4.143a2.08,2.08,0,0,1-2.206-3.524l5.452-3.656a13.168,13.168,0,0,0,10.415-2.863l2.487,0h0a1.251,1.251,0,0,0,.884-.366l8.432-8.432a1.251,1.251,0,0,0-1.769-1.769l-7.041,7.041a13.175,13.175,0,1,0-22.759,0l-7.036-7.036a1.251,1.251,0,0,0-1.769,1.769ZM112.251,2.514a10.674,10.674,0,1,1-10.674,10.674A10.686,10.686,0,0,1,112.251,2.514Z" transform="translate(-80.23 -0.012)"/>
        <path id="XMLID_184_" d="M221.4,58.566l-2.4,2.4a1.251,1.251,0,1,0,1.769,1.769l2.4-2.4,2.4,2.4a1.251,1.251,0,1,0,1.769-1.769l-2.4-2.4,1.55-1.55a4.693,4.693,0,1,0-6.637,0Zm.22-6.417a2.191,2.191,0,1,1,3.1,3.1l-1.55,1.55-1.549-1.55a2.191,2.191,0,0,1,0-3.1Z" transform="translate(-191.149 -42.879)"/>
        <path id="XMLID_185_" d="M318.309,312.479a1.25,1.25,0,1,0,.884-.366A1.261,1.261,0,0,0,318.309,312.479Z" transform="translate(-278.173 -273.075)"/>
      </g>
    </g>
  </g>
</svg>
