<svg xmlns="http://www.w3.org/2000/svg" width="85" height="77" viewBox="0 0 85 77">
  <g id="Grupo_1230416" data-name="Grupo 1230416" transform="translate(-180 -3368)">
    <rect id="Rectángulo_422114" data-name="Rectángulo 422114" width="85" height="77" rx="10" transform="translate(180 3368)" fill="#899e78"/>
    <g id="auction_10063106" transform="translate(194.004 3384.054)">
      <g id="Grupo_1230375" data-name="Grupo 1230375" transform="translate(1.996 23.2)">
        <path id="Trazado_1181310" data-name="Trazado 1181310" d="M29.54,33.283,10.2,47.6a5.142,5.142,0,1,1-5.379-8.72L26.305,28.026a2.723,2.723,0,0,0,.3.669L29.076,32.7a2.9,2.9,0,0,0,.465.579Z" transform="translate(-1.996 -28.026)" fill="#4a5641"/>
      </g>
      <g id="Grupo_1230376" data-name="Grupo 1230376" transform="translate(26.973 19.956)">
        <path id="Trazado_1181311" data-name="Trazado 1181311" d="M39.206,31.8l-.725.448a2.209,2.209,0,0,1-3.04-.717l-2.469-4a2.212,2.212,0,0,1,.725-3.04l.725-.448Z" transform="translate(-32.645 -24.046)" fill="#4a5641"/>
      </g>
      <g id="Grupo_1230378" data-name="Grupo 1230378" transform="translate(27.821 9.273)">
        <path id="Trazado_1181313" data-name="Trazado 1181313" d="M53.961,23.772,41.6,31.391,33.686,18.564,46.04,10.936Z" transform="translate(-33.686 -10.936)" fill="#4a5641"/>
      </g>
      <g id="Grupo_1230379" data-name="Grupo 1230379" transform="translate(21.755 1.946)">
        <path id="Trazado_1181314" data-name="Trazado 1181314" d="M44.58,8.366,31.533,16.418a3.467,3.467,0,1,1-3.643-5.9L40.945,2.466a3.465,3.465,0,0,1,3.635,5.9Z" transform="translate(-26.243 -1.946)" fill="#4a5641"/>
      </g>
      <g id="Grupo_1230380" data-name="Grupo 1230380" transform="translate(34.167 22.066)">
        <path id="Trazado_1181315" data-name="Trazado 1181315" d="M61.464,30.1a3.488,3.488,0,0,1-1.654,2.958L46.763,41.107a3.467,3.467,0,1,1-3.643-5.9l13.055-8.051A3.469,3.469,0,0,1,61.464,30.1Z" transform="translate(-41.472 -26.635)" fill="#4a5641"/>
      </g>
    </g>
  </g>
</svg>
