<svg xmlns="http://www.w3.org/2000/svg" xmlns:xlink="http://www.w3.org/1999/xlink" width="103" height="103" viewBox="0 0 103 103">
  <defs>
    <filter id="Trazado_982547" x="0" y="0" width="103" height="103" filterUnits="userSpaceOnUse">
      <feOffset dy="3" input="SourceAlpha"/>
      <feGaussianBlur stdDeviation="3" result="blur"/>
      <feFlood flood-opacity="0.161"/>
      <feComposite operator="in" in2="blur"/>
      <feComposite in="SourceGraphic"/>
    </filter>
  </defs>
  <g id="Grupo_1230446" data-name="Grupo 1230446" transform="translate(-1127.555 -6304.723)">
    <g id="Grupo_1230338" data-name="Grupo 1230338" transform="translate(933.555 511.723)">
      <g id="Grupo_1224201" data-name="Grupo 1224201" transform="translate(-0.13 5367)">
        <g id="Grupo_1224080" data-name="Grupo 1224080" transform="translate(0 -1582)">
          <g id="Grupo_1206686" data-name="Grupo 1206686" transform="translate(-2.87 300.583)">
            <g id="Grupo_1201889" data-name="Grupo 1201889" transform="translate(206 1713.417)">
              <g id="Grupo_1201680" data-name="Grupo 1201680">
                <g id="Grupo_1201330" data-name="Grupo 1201330">
                  <g id="Grupo_1172010" data-name="Grupo 1172010">
                    <g id="Grupo_1171046" data-name="Grupo 1171046">
                      <g id="Grupo_1148525" data-name="Grupo 1148525">
                        <g transform="matrix(1, 0, 0, 1, -9, -6)" filter="url(#Trazado_982547)">
                          <g id="Trazado_982547-2" data-name="Trazado 982547" transform="translate(9 6)" fill="#f2f4f0">
                            <path d="M 42.5 83.5 C 36.96437835693359 83.5 31.59512901306152 82.41617584228516 26.54141235351562 80.27863311767578 C 21.65934181213379 78.21369171142578 17.27447128295898 75.25723266601562 13.50862312316895 71.49137878417969 C 9.742764472961426 67.72553253173828 6.786305904388428 63.34066009521484 4.721364498138428 58.45858764648438 C 2.583823442459106 53.40486907958984 1.5 48.03562164306641 1.5 42.5 C 1.5 36.96437835693359 2.583823442459106 31.59512901306152 4.721364498138428 26.54141235351562 C 6.786305904388428 21.65934181213379 9.742764472961426 17.27448272705078 13.50862312316895 13.50862312316895 C 17.27447128295898 9.742776870727539 21.65934181213379 6.786305904388428 26.54141235351562 4.721364498138428 C 31.59512901306152 2.583823442459106 36.96437835693359 1.5 42.5 1.5 C 48.03562164306641 1.5 53.40486907958984 2.583823442459106 58.45858764648438 4.721364498138428 C 63.34066009521484 6.786305904388428 67.72553253173828 9.742776870727539 71.49137878417969 13.50862312316895 C 75.25723266601562 17.27448272705078 78.21369171142578 21.65934181213379 80.27863311767578 26.54141235351562 C 82.41617584228516 31.59512901306152 83.5 36.96437835693359 83.5 42.5 C 83.5 48.03562164306641 82.41617584228516 53.40486907958984 80.27863311767578 58.45858764648438 C 78.21369171142578 63.34066009521484 75.25723266601562 67.72553253173828 71.49137878417969 71.49137878417969 C 67.72553253173828 75.25723266601562 63.34066009521484 78.21369171142578 58.45858764648438 80.27863311767578 C 53.40486907958984 82.41617584228516 48.03562164306641 83.5 42.5 83.5 Z" stroke="none"/>
                            <path d="M 42.5 3 C 37.16621398925781 3 31.99356079101562 4.043960571289062 27.125732421875 6.102882385253906 C 22.42246627807617 8.092185974121094 18.19785308837891 10.94070434570312 14.56928253173828 14.56928253173828 C 10.94070434570312 18.19785308837891 8.092185974121094 22.42246627807617 6.102882385253906 27.125732421875 C 4.043960571289062 31.99356079101562 3 37.16621398925781 3 42.5 C 3 47.83378601074219 4.043960571289062 53.00643920898438 6.102882385253906 57.87425231933594 C 8.092185974121094 62.57753372192383 10.94070434570312 66.80213165283203 14.56928253173828 70.43071746826172 C 18.19786834716797 74.05929565429688 22.42246627807617 76.90781402587891 27.125732421875 78.89711761474609 C 31.99356079101562 80.95603942871094 37.16621398925781 82 42.5 82 C 47.83378601074219 82 53.00642395019531 80.95603942871094 57.87425231933594 78.89711761474609 C 62.57753372192383 76.90781402587891 66.80213165283203 74.05929565429688 70.43071746826172 70.43071746826172 C 74.05929565429688 66.80213165283203 76.90781402587891 62.57753372192383 78.89711761474609 57.87425231933594 C 80.95603942871094 53.00642395019531 82 47.83378601074219 82 42.5 C 82 37.16621398925781 80.95603942871094 31.99356079101562 78.89711761474609 27.125732421875 C 76.90781402587891 22.42246627807617 74.05929565429688 18.19786834716797 70.43071746826172 14.56928253173828 C 66.80213165283203 10.94070434570312 62.57753372192383 8.092185974121094 57.87425231933594 6.102882385253906 C 53.00643920898438 4.043960571289062 47.83378601074219 3 42.5 3 M 42.5 0 C 65.97209167480469 0 85 19.02789306640625 85 42.5 C 85 65.97209167480469 65.97209167480469 85 42.5 85 C 19.02789306640625 85 0 65.97209167480469 0 42.5 C 0 19.02789306640625 19.02789306640625 0 42.5 0 Z" stroke="none" fill="#899e78"/>
                          </g>
                        </g>
                      </g>
                    </g>
                  </g>
                </g>
              </g>
            </g>
          </g>
        </g>
      </g>
    </g>
    <g id="Layer_6" data-name="Layer 6" transform="translate(1151.753 6325.698)">
      <path id="Trazado_1181584" data-name="Trazado 1181584" d="M6,33H24.555V51.555H6Z" transform="translate(-0.626 -4.854)" fill="#c49a6c"/>
      <path id="Trazado_1181585" data-name="Trazado 1181585" d="M11,42.9V37h4.217A1.687,1.687,0,0,1,16.9,38.687a2.875,2.875,0,0,1,2.033-.843,2.182,2.182,0,0,1,2.184,2.183V42.9Z" transform="translate(-1.409 -5.481)" fill="#58595b"/>
      <path id="Trazado_1181586" data-name="Trazado 1181586" d="M55.121,42.9V37H50.9a1.687,1.687,0,0,0-1.687,1.687,2.875,2.875,0,0,0-2.033-.843A2.182,2.182,0,0,0,45,40.026V42.9Z" transform="translate(-6.733 -5.481)" fill="#58595b"/>
      <path id="Trazado_1181587" data-name="Trazado 1181587" d="M38.121,42.9v-2.53A3.374,3.374,0,0,0,34.747,37H33.9a1.687,1.687,0,0,0-1.687,1.687,2.875,2.875,0,0,0-2.033-.843A2.182,2.182,0,0,0,28,40.026V42.9Z" transform="translate(-4.071 -5.481)" fill="#58595b"/>
      <path id="Trazado_1181588" data-name="Trazado 1181588" d="M11,8.9V6.374A3.374,3.374,0,0,1,14.374,3h.843A1.687,1.687,0,0,1,16.9,4.687a2.875,2.875,0,0,1,2.033-.843,2.182,2.182,0,0,1,2.184,2.183V8.9Z" transform="translate(-1.409 -0.157)" fill="#58595b"/>
      <path id="Trazado_1181589" data-name="Trazado 1181589" d="M55.832,4.687V24.929a1.692,1.692,0,0,1-1.687,1.687h-19.4a1.692,1.692,0,0,1-1.687-1.687V17.338L28,13.964l5.06-3.374v-5.9A1.692,1.692,0,0,1,34.747,3h19.4a1.692,1.692,0,0,1,1.687,1.687Z" transform="translate(-4.071 -0.157)" fill="#ffcd00"/>
      <path id="Trazado_1181590" data-name="Trazado 1181590" d="M36,27.085H55.4A1.692,1.692,0,0,0,57.085,25.4V6A21.147,21.147,0,0,1,36,27.085Z" transform="translate(-5.324 -0.626)" fill="#ebbf00"/>
      <path id="Trazado_1181591" data-name="Trazado 1181591" d="M39.53,13a2.53,2.53,0,1,0,0,5.06h4.217V13Z" transform="translate(-5.481 -1.723)" fill="#ed1c24"/>
      <path id="Trazado_1181592" data-name="Trazado 1181592" d="M45,12.53v5.06l6.747,2.53V10Z" transform="translate(-6.733 -1.253)" fill="#d1d3d4"/>
      <path id="Trazado_1181593" data-name="Trazado 1181593" d="M41,23.217a1.687,1.687,0,1,0,3.374,0V19H41Z" transform="translate(-6.107 -2.662)" fill="#58595b"/>
      <path id="Trazado_1181594" data-name="Trazado 1181594" d="M54.687,8A1.687,1.687,0,0,0,53,9.687V19.808a1.687,1.687,0,1,0,3.374,0V9.687A1.687,1.687,0,0,0,54.687,8Z" transform="translate(-7.986 -0.94)" fill="#ed1c24"/>
      <path id="Trazado_1181595" data-name="Trazado 1181595" d="M3,27H26.615v5.06H3Z" transform="translate(-0.157 -3.915)" fill="#8b5e3c"/>
      <path id="Trazado_1181596" data-name="Trazado 1181596" d="M3,55H26.615v5.06H3Z" transform="translate(-0.157 -8.299)" fill="#8b5e3c"/>
      <g id="Grupo_1230445" data-name="Grupo 1230445" transform="translate(8.747 8.747)">
        <path id="Trazado_1181597" data-name="Trazado 1181597" d="M10,11.265a1.265,1.265,0,0,0,1.265,1.265H12.53V10H11.265A1.265,1.265,0,0,0,10,11.265Z" transform="translate(-10 -10)" fill="#ffb8a5"/>
        <path id="Trazado_1181598" data-name="Trazado 1181598" d="M22.265,12.53a1.265,1.265,0,1,0,0-2.53H21v2.53Z" transform="translate(-11.723 -10)" fill="#ffb8a5"/>
        <path id="Trazado_1181599" data-name="Trazado 1181599" d="M44,45.265a1.265,1.265,0,0,0,1.265,1.265H46.53V44H45.265A1.265,1.265,0,0,0,44,45.265Z" transform="translate(-15.324 -15.324)" fill="#ffb8a5"/>
        <path id="Trazado_1181600" data-name="Trazado 1181600" d="M56.265,46.53a1.265,1.265,0,1,0,0-2.53H55v2.53Z" transform="translate(-17.047 -15.324)" fill="#ffb8a5"/>
        <path id="Trazado_1181601" data-name="Trazado 1181601" d="M28.265,44a1.265,1.265,0,1,0,0,2.53H29.53V44Z" transform="translate(-12.662 -15.324)" fill="#ffb8a5"/>
        <path id="Trazado_1181602" data-name="Trazado 1181602" d="M39.265,46.53a1.265,1.265,0,1,0,0-2.53H38v2.53Z" transform="translate(-14.385 -15.324)" fill="#ffb8a5"/>
      </g>
      <path id="Trazado_1181603" data-name="Trazado 1181603" d="M18.9,9h-5.06A.843.843,0,0,0,13,9.843v2.53a3.374,3.374,0,1,0,6.747,0V9.843A.843.843,0,0,0,18.9,9Z" transform="translate(-1.723 -1.096)" fill="#ffbcab"/>
      <path id="Trazado_1181604" data-name="Trazado 1181604" d="M52.9,43h-5.06a.843.843,0,0,0-.843.843v2.53a3.374,3.374,0,1,0,6.747,0v-2.53A.843.843,0,0,0,52.9,43Z" transform="translate(-7.047 -6.42)" fill="#ffbcab"/>
      <path id="Trazado_1181605" data-name="Trazado 1181605" d="M35.9,43h-5.06a.843.843,0,0,0-.843.843v2.53a3.374,3.374,0,1,0,6.747,0v-2.53A.843.843,0,0,0,35.9,43Z" transform="translate(-4.385 -6.42)" fill="#ffbcab"/>
      <path id="Trazado_1181606" data-name="Trazado 1181606" d="M18.9,43h-5.06a.843.843,0,0,0-.843.843v2.53a3.374,3.374,0,1,0,6.747,0v-2.53A.843.843,0,0,0,18.9,43Z" transform="translate(-1.723 -6.42)" fill="#ffbcab"/>
      <path id="Trazado_1181607" data-name="Trazado 1181607" d="M10,45.265a1.265,1.265,0,0,0,1.265,1.265H12.53V44H11.265A1.265,1.265,0,0,0,10,45.265Z" transform="translate(-1.253 -6.577)" fill="#ffb8a5"/>
      <path id="Trazado_1181608" data-name="Trazado 1181608" d="M22.265,46.53a1.265,1.265,0,1,0,0-2.53H21v2.53Z" transform="translate(-2.975 -6.577)" fill="#ffb8a5"/>
      <path id="Trazado_1181609" data-name="Trazado 1181609" d="M18.808,19a3.374,3.374,0,1,1-6.747,0A5.06,5.06,0,0,0,7,24.06v1.687H23.868V24.06A5.06,5.06,0,0,0,18.808,19Z" transform="translate(-0.783 -2.662)" fill="#ed1c24"/>
      <path id="Trazado_1181610" data-name="Trazado 1181610" d="M16.374,21.976A3.374,3.374,0,0,0,19.747,18.6H18.9a.843.843,0,0,1-.843-.843v-1.3a3.352,3.352,0,0,1-3.374,0v1.3a.843.843,0,0,1-.843.843H13A3.374,3.374,0,0,0,16.374,21.976Z" transform="translate(-1.723 -2.264)" fill="#ffb8a5"/>
      <path id="Trazado_1181611" data-name="Trazado 1181611" d="M33.374,55.976A3.374,3.374,0,0,0,36.747,52.6H35.9a.843.843,0,0,1-.843-.843v-1.3a3.352,3.352,0,0,1-3.374,0v1.3a.843.843,0,0,1-.843.843H30A3.374,3.374,0,0,0,33.374,55.976Z" transform="translate(-4.385 -7.588)" fill="#ffb8a5"/>
      <path id="Trazado_1181612" data-name="Trazado 1181612" d="M52.808,53a3.374,3.374,0,0,1-6.747,0A5.06,5.06,0,0,0,41,58.06v1.687H57.868V58.06A5.06,5.06,0,0,0,52.808,53Z" transform="translate(-6.107 -7.986)" fill="#ffcd00"/>
      <path id="Trazado_1181613" data-name="Trazado 1181613" d="M50.374,55.976A3.374,3.374,0,0,0,53.747,52.6H52.9a.843.843,0,0,1-.843-.843v-1.3a3.352,3.352,0,0,1-3.374,0v1.3a.843.843,0,0,1-.843.843H47A3.374,3.374,0,0,0,50.374,55.976Z" transform="translate(-7.047 -7.588)" fill="#ffb8a5"/>
      <path id="Trazado_1181614" data-name="Trazado 1181614" d="M18.808,53a3.374,3.374,0,0,1-6.747,0A5.06,5.06,0,0,0,7,58.06v1.687H23.868V58.06A5.06,5.06,0,0,0,18.808,53Z" transform="translate(-0.783 -7.986)" fill="#7ed63e"/>
      <path id="Trazado_1181615" data-name="Trazado 1181615" d="M16.374,55.976A3.374,3.374,0,0,0,19.747,52.6H18.9a.843.843,0,0,1-.843-.843v-1.3a3.352,3.352,0,0,1-3.374,0v1.3a.843.843,0,0,1-.843.843H13A3.374,3.374,0,0,0,16.374,55.976Z" transform="translate(-1.723 -7.588)" fill="#ffb8a5"/>
      <path id="Trazado_1181616" data-name="Trazado 1181616" d="M35.808,53a3.374,3.374,0,0,1-6.747,0A5.06,5.06,0,0,0,24,58.06v1.687H40.868V58.06A5.06,5.06,0,0,0,35.808,53Z" transform="translate(-3.445 -7.986)" fill="#006df0"/>
      <path id="Trazado_1181617" data-name="Trazado 1181617" d="M6,33H24.555v1.687H6Z" transform="translate(-0.626 -4.854)" fill="#a97c50"/>
      <path id="Trazado_1181618" data-name="Trazado 1181618" d="M53.989,2h-19.4a2.538,2.538,0,0,0-2.53,2.53V9.979l-4.681,3.129a.835.835,0,0,0,0,1.4l4.681,3.129v7.135a2.538,2.538,0,0,0,2.53,2.53h19.4a2.538,2.538,0,0,0,2.53-2.53V4.53A2.538,2.538,0,0,0,53.989,2Zm.843,22.772a.843.843,0,0,1-.843.843h-19.4a.843.843,0,0,1-.843-.843V17.181a.843.843,0,0,0-.38-.7l-4.006-2.674,4.006-2.674a.843.843,0,0,0,.38-.7V4.53a.843.843,0,0,1,.843-.843h19.4a.843.843,0,0,1,.843.843Z" transform="translate(-3.915 0)" fill="#231f20"/>
      <path id="Trazado_1181619" data-name="Trazado 1181619" d="M52.025,7a2.53,2.53,0,0,0-2.446,1.915l-6.14,2.3H39.374a3.374,3.374,0,0,0,0,6.747v3.374a2.53,2.53,0,0,0,5.06,0v-3l5.145,1.931a2.525,2.525,0,0,0,4.976-.616V9.53A2.538,2.538,0,0,0,52.025,7ZM42.747,21.338a.843.843,0,0,1-1.687,0V17.964h1.687Zm0-5.06H39.374a1.687,1.687,0,1,1,0-3.374h3.374Zm6.747,2.159-5.06-1.9v-3.9l5.06-1.9Zm3.374,1.215a.843.843,0,1,1-1.687,0V9.53a.843.843,0,1,1,1.687,0Z" transform="translate(-5.324 -0.783)" fill="#231f20"/>
      <path id="Trazado_1181620" data-name="Trazado 1181620" d="M46.7,44.17h-.843V43.3a4.228,4.228,0,0,0,1.6-2.5h.506a2.1,2.1,0,0,0,1.265-3.787V31.519a.843.843,0,0,0-.843-.843H44.17a2.54,2.54,0,0,0-2.151,1.2,3.74,3.74,0,0,0-1.569-.354,3.03,3.03,0,0,0-3.028,3.028V37.01A2.1,2.1,0,0,0,38.688,40.8h.506a4.228,4.228,0,0,0,1.6,2.5v.869h-.843a5.9,5.9,0,0,0-3.787,1.392,5.87,5.87,0,0,0-3.8-1.392h-.843V43.3a4.228,4.228,0,0,0,1.6-2.5h.506a2.1,2.1,0,0,0,1.265-3.787V34.893a4.217,4.217,0,0,0-4.217-4.217h-.843a2.54,2.54,0,0,0-2.151,1.2,3.74,3.74,0,0,0-1.569-.354,3.03,3.03,0,0,0-3.028,3.028V37.01A2.1,2.1,0,0,0,24.35,40.8h.506a4.228,4.228,0,0,0,1.6,2.5v.869h-.843a5.87,5.87,0,0,0-3.8,1.392,5.9,5.9,0,0,0-3.787-1.392h-.843V43.3a4.228,4.228,0,0,0,1.6-2.5h.506a2.1,2.1,0,0,0,1.265-3.787V34.547a3.03,3.03,0,0,0-3.028-3.028,3.74,3.74,0,0,0-1.569.354,2.54,2.54,0,0,0-2.151-1.2H9.591a.843.843,0,0,0-.843.843V37.01A2.1,2.1,0,0,0,10.012,40.8h.506a4.228,4.228,0,0,0,1.6,2.5v.869h-.843a5.868,5.868,0,0,0-4.141,1.7c-.025,0-.051-.017-.076-.017H6.217V28.989H23.085v1.687a.843.843,0,1,0,1.687,0V28.989h1.687a.843.843,0,0,0,.843-.843v-5.06a.843.843,0,0,0-.843-.843h-2.53V21.4a5.911,5.911,0,0,0-5.9-5.9h-.843v-.869a4.228,4.228,0,0,0,1.6-2.5h.506a2.1,2.1,0,0,0,1.265-3.787V5.871a3.03,3.03,0,0,0-3.028-3.028,3.74,3.74,0,0,0-1.569.354A2.54,2.54,0,0,0,13.808,2h-.843A4.217,4.217,0,0,0,8.747,6.217V8.334a2.1,2.1,0,0,0,1.265,3.787h.506a4.228,4.228,0,0,0,1.6,2.5v.869h-.843a5.911,5.911,0,0,0-5.9,5.9v.843H2.843A.843.843,0,0,0,2,23.085v5.06a.843.843,0,0,0,.843.843H4.53V45.857H2.843A.843.843,0,0,0,2,46.7v5.06a.843.843,0,0,0,.843.843H51.761a.843.843,0,0,0,.843-.843V50.074a5.911,5.911,0,0,0-5.9-5.9ZM17.181,11.277a2.53,2.53,0,1,1-5.06,0V8.747h5.06Zm-.152,5.887a2.512,2.512,0,0,1-4.757,0,1.679,1.679,0,0,0,1.535-1.67V15.41a4.259,4.259,0,0,0,1.687,0v.084a1.679,1.679,0,0,0,1.535,1.67Zm2.682-7.152a.422.422,0,0,1-.422.422h-.422V9.591h.422A.422.422,0,0,1,19.712,10.012Zm-9.277.422h-.422a.422.422,0,0,1,0-.843h.422ZM10.67,7.9h-.236V6.217a2.538,2.538,0,0,1,2.53-2.53h.843a.843.843,0,0,1,.843.843.832.832,0,0,0,.523.776.843.843,0,0,0,.919-.177,2.045,2.045,0,0,1,1.434-.6,1.339,1.339,0,0,1,1.341,1.341V7.9h-.236a1.677,1.677,0,0,0-1.451-.843h-5.06A1.677,1.677,0,0,0,10.67,7.9ZM7.06,21.4a4.212,4.212,0,0,1,3.475-4.141,4.217,4.217,0,0,0,8.232,0A4.212,4.212,0,0,1,22.242,21.4v.843H20.555V21.4a.843.843,0,0,0-1.687,0v.843H10.434V21.4a.843.843,0,0,0-1.687,0v.843H7.06ZM5.374,50.074v.843H3.687V47.544h2.26a5.921,5.921,0,0,0-.574,2.53ZM3.687,27.3V23.929H25.615V27.3Zm42.17,12.651a2.53,2.53,0,1,1-5.06,0v-2.53h5.06Zm-.152,5.887a2.512,2.512,0,0,1-4.757,0,1.679,1.679,0,0,0,1.535-1.67v-.084a4.259,4.259,0,0,0,1.687,0v.084A1.679,1.679,0,0,0,45.705,45.84Zm2.682-7.152a.422.422,0,0,1-.422.422h-.422v-.843h.422A.422.422,0,0,1,48.387,38.688Zm-9.277.422h-.422a.422.422,0,0,1,0-.843h.422Zm.236-2.53H39.11V34.547a1.339,1.339,0,0,1,1.341-1.341,2.045,2.045,0,0,1,1.434.6.843.843,0,0,0,.919.177.832.832,0,0,0,.523-.776.843.843,0,0,1,.843-.843h3.374V36.58h-.236a1.677,1.677,0,0,0-1.451-.843H40.8A1.677,1.677,0,0,0,39.346,36.58Zm-7.827,3.374a2.53,2.53,0,0,1-5.06,0v-2.53h5.06Zm-.152,5.887a2.512,2.512,0,0,1-4.757,0,1.679,1.679,0,0,0,1.535-1.67v-.084a4.259,4.259,0,0,0,1.687,0v.084a1.679,1.679,0,0,0,1.535,1.67Zm2.682-7.152a.422.422,0,0,1-.422.422h-.422v-.843h.422A.422.422,0,0,1,34.05,38.688Zm-9.277.422H24.35a.422.422,0,0,1,0-.843h.422Zm.236-2.53h-.236V34.547a1.339,1.339,0,0,1,1.341-1.341,2.045,2.045,0,0,1,1.434.6.843.843,0,0,0,.919.177.832.832,0,0,0,.523-.776.843.843,0,0,1,.843-.843h.843a2.538,2.538,0,0,1,2.53,2.53V36.58H32.97a1.677,1.677,0,0,0-1.451-.843h-5.06A1.677,1.677,0,0,0,25.008,36.58Zm-7.827,3.374a2.53,2.53,0,1,1-5.06,0v-2.53h5.06ZM17.03,45.84a2.512,2.512,0,0,1-4.757,0,1.679,1.679,0,0,0,1.535-1.67v-.084a4.259,4.259,0,0,0,1.687,0v.084A1.679,1.679,0,0,0,17.03,45.84Zm2.682-7.152a.422.422,0,0,1-.422.422h-.422v-.843h.422A.422.422,0,0,1,19.712,38.688Zm-9.277.422h-.422a.422.422,0,0,1,0-.843h.422Zm.236-2.53h-.236V32.363h3.374a.843.843,0,0,1,.843.843.832.832,0,0,0,.523.776.843.843,0,0,0,.919-.177,2.045,2.045,0,0,1,1.434-.6,1.339,1.339,0,0,1,1.341,1.341V36.58h-.236a1.677,1.677,0,0,0-1.451-.843h-5.06a1.677,1.677,0,0,0-1.451.843Zm9.041,13.495v.843H10.434v-.843a.843.843,0,0,0-1.687,0v.843H7.06v-.843a4.212,4.212,0,0,1,3.475-4.141,4.217,4.217,0,0,0,8.232,0,4.192,4.192,0,0,1,1.923.886,5.916,5.916,0,0,0-.978,3.256Zm16.868.843H34.893v-.843a.843.843,0,0,0-1.687,0v.843H24.772v-.843a.843.843,0,0,0-1.687,0v.843H21.4v-.843a4.212,4.212,0,0,1,3.475-4.141,4.217,4.217,0,0,0,8.232,0,4.212,4.212,0,0,1,3.475,4.141Zm14.338,0H49.231v-.843a.843.843,0,0,0-1.687,0v.843H38.267v-.843a5.916,5.916,0,0,0-.978-3.256,4.192,4.192,0,0,1,1.923-.886,4.217,4.217,0,0,0,8.232,0,4.212,4.212,0,0,1,3.475,4.141Z" fill="#231f20"/>
    </g>
  </g>
</svg>
