<svg xmlns="http://www.w3.org/2000/svg" xmlns:xlink="http://www.w3.org/1999/xlink" width="108" height="108" viewBox="0 0 108 108">
  <defs>
    <filter id="Trazado_904820" x="0" y="0" width="108" height="108" filterUnits="userSpaceOnUse">
      <feOffset dy="3" input="SourceAlpha"/>
      <feGaussianBlur stdDeviation="3" result="blur"/>
      <feFlood flood-opacity="0.161"/>
      <feComposite operator="in" in2="blur"/>
      <feComposite in="SourceGraphic"/>
    </filter>
  </defs>
  <g id="Grupo_1230369" data-name="Grupo 1230369" transform="translate(-200 -548)">
    <g id="Grupo_1222170" data-name="Grupo 1222170" transform="translate(209 554)">
      <g id="Grupo_1173585" data-name="Grupo 1173585" transform="translate(0 0)">
        <g id="Grupo_1173428" data-name="Grupo 1173428">
          <g id="Grupo_1171958" data-name="Grupo 1171958">
            <g id="Grupo_1167341" data-name="Grupo 1167341">
              <g id="Grupo_1166792" data-name="Grupo 1166792">
                <g transform="matrix(1, 0, 0, 1, -9, -6)" filter="url(#Trazado_904820)">
                  <g id="Trazado_904820-2" data-name="Trazado 904820" transform="translate(9 6)" fill="#e7f2f8">
                    <path d="M 44.99999618530273 88.50002288818359 C 39.12687301635742 88.50002288818359 33.43022155761719 87.35009765625 28.06829643249512 85.08218383789062 C 22.88852119445801 82.89133453369141 18.23629570007324 79.75460815429688 14.24084663391113 75.7591552734375 C 10.24540901184082 71.76371002197266 7.108683586120605 67.11148071289062 4.917821407318115 61.93170928955078 C 2.649921178817749 56.56978225708008 1.499996185302734 50.87313079833984 1.499996185302734 45.00000762939453 C 1.499996185302734 39.12688446044922 2.649921178817749 33.43023300170898 4.917821407318115 28.06830787658691 C 7.108683586120605 22.8885326385498 10.24540901184082 18.23630714416504 14.24084663391113 14.24085807800293 C 18.23629570007324 10.24542045593262 22.88852119445801 7.108695030212402 28.06829643249512 4.917832851409912 C 33.43022155761719 2.649932622909546 39.12687301635742 1.500007629394531 44.99999618530273 1.500007629394531 C 50.87311935424805 1.500007629394531 56.56977081298828 2.649932622909546 61.93169784545898 4.917832851409912 C 67.11147308349609 7.108695030212402 71.76369476318359 10.24542045593262 75.75914764404297 14.24085807800293 C 79.75458526611328 18.23630714416504 82.89131164550781 22.8885326385498 85.08216857910156 28.06830787658691 C 87.35007476806641 33.43023300170898 88.5 39.12688446044922 88.5 45.00000762939453 C 88.5 50.87313079833984 87.35007476806641 56.56978225708008 85.08216857910156 61.93170928955078 C 82.89131164550781 67.11148071289062 79.75458526611328 71.76371002197266 75.75914764404297 75.7591552734375 C 71.76369476318359 79.75460815429688 67.11147308349609 82.89133453369141 61.93169784545898 85.08218383789062 C 56.56977081298828 87.35009765625 50.87311935424805 88.50002288818359 44.99999618530273 88.50002288818359 Z" stroke="none"/>
                    <path d="M 44.99999618530273 2.999992370605469 C 39.32870864868164 2.999992370605469 33.82865142822266 4.110054016113281 28.65262603759766 6.299339294433594 C 23.65165710449219 8.414566040039062 19.15968322753906 11.44333648681641 15.301513671875 15.30150604248047 C 11.44333648681641 19.15967559814453 8.414566040039062 23.65164947509766 6.299339294433594 28.65262222290039 C 4.110054016113281 33.82866287231445 2.999992370605469 39.32872009277344 2.999992370605469 45.00000762939453 C 2.999992370605469 50.67129516601562 4.110054016113281 56.17133712768555 6.299339294433594 61.34738159179688 C 8.414566040039062 66.34835052490234 11.44333648681641 70.84030914306641 15.301513671875 74.69849395751953 C 19.15968322753906 78.55666351318359 23.65165710449219 81.58543395996094 28.65262603759766 83.70066833496094 C 33.82865142822266 85.88995361328125 39.32870864868164 87.00000762939453 44.99999618530273 87.00000762939453 C 50.67128372192383 87.00000762939453 56.17134094238281 85.88995361328125 61.34736633300781 83.70066833496094 C 66.34834289550781 81.58543395996094 70.84030914306641 78.55666351318359 74.69847869873047 74.69849395751953 C 78.55665588378906 70.84030914306641 81.58542633056641 66.34835052490234 83.70065307617188 61.34738159179688 C 85.88993835449219 56.17133712768555 87 50.67129516601562 87 45.00000762939453 C 87 39.32872009277344 85.88993835449219 33.82866287231445 83.70065307617188 28.65262222290039 C 81.58542633056641 23.65164947509766 78.55665588378906 19.15967559814453 74.69847869873047 15.30150604248047 C 70.84030914306641 11.44333648681641 66.34834289550781 8.414566040039062 61.34736633300781 6.299339294433594 C 56.17134094238281 4.110054016113281 50.67128372192383 2.999992370605469 44.99999618530273 2.999992370605469 M 44.99999618530273 -7.62939453125e-06 C 69.85281372070312 -7.62939453125e-06 90 20.14717864990234 90 45.00000762939453 C 90 69.85280609130859 69.85281372070312 90.00000762939453 44.99999618530273 90.00000762939453 C 20.14717864990234 90.00000762939453 -7.62939453125e-06 69.85280609130859 -7.62939453125e-06 45.00000762939453 C -7.62939453125e-06 20.14717864990234 20.14717864990234 -7.62939453125e-06 44.99999618530273 -7.62939453125e-06 Z" stroke="none" fill="#248abf"/>
                  </g>
                </g>
              </g>
            </g>
          </g>
        </g>
      </g>
    </g>
    <g id="civil-rights_18561328" transform="translate(215.126 559.126)">
      <g id="Grupo_1230365" data-name="Grupo 1230365" transform="translate(7.5 7.5)">
        <g id="Grupo_1230361" data-name="Grupo 1230361" transform="translate(0 0)">
          <g id="Grupo_1230360" data-name="Grupo 1230360" transform="translate(0 26.762)">
            <path id="Trazado_1181030" data-name="Trazado 1181030" d="M108.756,275.491l-21.848-15.3a4.355,4.355,0,0,0-2.5-.787H81.426a4.354,4.354,0,0,0-1.831.4l-2.754,1.277-3.256-2.279-8.755,12.5,26.447,18.518a2.721,2.721,0,0,0,3.79-.668h0a2.721,2.721,0,0,0-.668-3.79l1.574,1.1a2.764,2.764,0,0,0,3.785-.551,2.721,2.721,0,0,0-.61-3.87l1.8,1.263a2.309,2.309,0,0,0,3.484-.883h0a2.721,2.721,0,0,0-.668-3.79l1.814,1.27a2.764,2.764,0,0,0,3.785-.551A2.721,2.721,0,0,0,108.756,275.491Z" transform="translate(-57.476 -253.334)" fill="#fed2a4"/>
            <path id="Trazado_1181031" data-name="Trazado 1181031" d="M199.327,268.373q-.139-.1-.284-.183l-3.1,2.169a5.054,5.054,0,0,0,5.8,8.28l6.123-4.288Z" transform="translate(-169.894 -261.514)" fill="#ffbd86"/>
            <path id="Trazado_1181032" data-name="Trazado 1181032" d="M233.384,258.8l-3.256,2.279-2.754-1.277a4.353,4.353,0,0,0-1.831-.4H221.2a4.354,4.354,0,0,0-2.5.787l-5.567,3.9a2.722,2.722,0,0,0-.363,4.154h0a2.722,2.722,0,0,0,3.486.3l4.8-3.364a1.089,1.089,0,0,1,1.249,0L236.6,275.184l5.543-3.882Z" transform="translate(-185.745 -253.327)" fill="#ea9b58"/>
            <path id="Trazado_1181033" data-name="Trazado 1181033" d="M388.214,335.367l-6.52,4.565,2.854,2,5.543-3.881Z" transform="translate(-333.697 -320.074)" fill="#d88a55"/>
            <g id="Grupo_1230359" data-name="Grupo 1230359" transform="translate(10.979 19.985)">
              <path id="Trazado_1181034" data-name="Trazado 1181034" d="M99.776,372.438h0a2.721,2.721,0,0,1,0,4.457l-2.4,1.681a2.721,2.721,0,0,1-3.789-.668h0a2.721,2.721,0,0,1,.668-3.79l2.4-1.68A2.721,2.721,0,0,1,99.776,372.438Z" transform="translate(-93.094 -371.946)" fill="#ea9b58"/>
              <path id="Trazado_1181035" data-name="Trazado 1181035" d="M138.433,402.8l-2.155,1.509a2.721,2.721,0,0,1-3.789-.668h0a2.721,2.721,0,0,1,.668-3.79l2.155-1.509a2.721,2.721,0,0,1,3.121,0h0A2.721,2.721,0,0,1,138.433,402.8Z" transform="translate(-127.006 -394.527)" fill="#ea9b58"/>
              <path id="Trazado_1181036" data-name="Trazado 1181036" d="M174.572,428.7l-2.28,1.6a2.721,2.721,0,0,1-3.789-.668h0a2.721,2.721,0,0,1,.668-3.79l2.28-1.6a2.721,2.721,0,0,1,3.122,0h0A2.721,2.721,0,0,1,174.572,428.7Z" transform="translate(-158.4 -417.101)" fill="#ea9b58"/>
              <path id="Trazado_1181037" data-name="Trazado 1181037" d="M211.595,454.6l-2.275,1.593a2.721,2.721,0,0,1-3.789-.668h0a2.721,2.721,0,0,1,.668-3.79l2.275-1.593a2.721,2.721,0,0,1,3.121,0h0A2.721,2.721,0,0,1,211.595,454.6Z" transform="translate(-190.679 -439.681)" fill="#ea9b58"/>
            </g>
            <path id="Trazado_1181038" data-name="Trazado 1181038" d="M7.7,229.732,16.89,216.6a1.088,1.088,0,0,1,1.516-.267l5.078,3.555a1.088,1.088,0,0,1,.267,1.516L14.56,234.536a1.089,1.089,0,0,1-1.516.267l-5.08-3.556A1.088,1.088,0,0,1,7.7,229.732Z" transform="translate(-7.5 -216.141)" fill="#fe646f"/>
            <path id="Trazado_1181039" data-name="Trazado 1181039" d="M7.7,302.836,9.682,300a1.118,1.118,0,0,0,.456,1.126l5.218,3.652a1.117,1.117,0,0,0,1.152.078L14.56,307.64a1.089,1.089,0,0,1-1.516.267l-5.08-3.556A1.088,1.088,0,0,1,7.7,302.836Z" transform="translate(-7.5 -289.244)" fill="#fd4755"/>
            <path id="Trazado_1181040" data-name="Trazado 1181040" d="M392.248,231.248l-5.08,3.556a1.089,1.089,0,0,1-1.516-.267l-9.192-13.128a1.089,1.089,0,0,1,.267-1.516l5.078-3.555a1.089,1.089,0,0,1,1.516.267l9.193,13.127A1.089,1.089,0,0,1,392.248,231.248Z" transform="translate(-328.964 -216.14)" fill="#528fd8"/>
            <path id="Trazado_1181041" data-name="Trazado 1181041" d="M443.085,302.836,441.1,300a1.118,1.118,0,0,1-.456,1.126l-5.218,3.652a1.117,1.117,0,0,1-1.152.078l1.948,2.782a1.089,1.089,0,0,0,1.516.267l5.079-3.556A1.088,1.088,0,0,0,443.085,302.836Z" transform="translate(-379.533 -289.244)" fill="#0573ce"/>
          </g>
          <path id="Trazado_1181042" data-name="Trazado 1181042" d="M158.522,7.5a14.343,14.343,0,1,0,14.343,14.343A14.343,14.343,0,0,0,158.522,7.5Zm10.2,14.343a10.2,10.2,0,0,1-.217,2.1L160.6,20.3V11.859A10.214,10.214,0,0,1,168.719,21.843Zm-12.27-9.984V20.3l-7.906,3.636a10.2,10.2,0,0,1,7.906-12.08Zm-6.24,15.877,6.24-2.87v6.961A10.216,10.216,0,0,1,150.208,27.736ZM160.6,31.827V24.866l6.24,2.87A10.217,10.217,0,0,1,160.6,31.827Z" transform="translate(-126.648 -7.5)" fill="#00f2a6"/>
          <path id="Trazado_1181043" data-name="Trazado 1181043" d="M184.407,27.751a14.366,14.366,0,0,1,1.926,12.579,10.233,10.233,0,0,1-.18,1.262l-.241-.111a14.334,14.334,0,0,1-2.144,3.578l.719.331a10.216,10.216,0,0,1-6.24,4.091V49.2a14.363,14.363,0,0,1-13.819-1.469,14.343,14.343,0,1,0,19.978-19.978Z" transform="translate(-144.3 -25.153)" fill="#05e39c"/>
        </g>
        <g id="Grupo_1230364" data-name="Grupo 1230364" transform="translate(0 26.762)">
          <g id="Grupo_1230363" data-name="Grupo 1230363">
            <path id="Trazado_1181044" data-name="Trazado 1181044" d="M108.756,275.494,86.908,260.2a4.355,4.355,0,0,0-2.5-.787H81.426a4.353,4.353,0,0,0-1.831.4l-2.754,1.277-3.256-2.279-8.755,12.5,26.447,18.518a2.721,2.721,0,0,0,3.79-.668h0a2.721,2.721,0,0,0-.668-3.79l1.574,1.1a2.764,2.764,0,0,0,3.785-.55,2.721,2.721,0,0,0-.61-3.87l1.633,1.144a2.721,2.721,0,0,0,3.72-.572h0a2.721,2.721,0,0,0-.6-3.887l-.135-.094,1.814,1.27a2.764,2.764,0,0,0,3.785-.551A2.721,2.721,0,0,0,108.756,275.494Z" transform="translate(-57.476 -253.337)" fill="#fed2a4"/>
            <path id="Trazado_1181045" data-name="Trazado 1181045" d="M199.327,268.375q-.139-.1-.284-.183l-3.1,2.169a5.054,5.054,0,0,0,5.8,8.28l6.123-4.288Z" transform="translate(-169.894 -261.516)" fill="#ffbd86"/>
            <path id="Trazado_1181046" data-name="Trazado 1181046" d="M233.385,258.8l-3.256,2.279-2.754-1.277a4.353,4.353,0,0,0-1.831-.4H221.2a4.354,4.354,0,0,0-2.5.787l-5.567,3.9a2.722,2.722,0,0,0-.363,4.154h0a2.722,2.722,0,0,0,3.486.3l4.8-3.364a1.089,1.089,0,0,1,1.249,0l14.289,10,5.543-3.882Z" transform="translate(-185.746 -253.329)" fill="#ea9b58"/>
            <path id="Trazado_1181047" data-name="Trazado 1181047" d="M388.214,335.369l-6.52,4.565,2.854,2,5.543-3.881Z" transform="translate(-333.697 -320.076)" fill="#d88a55"/>
            <g id="Grupo_1230362" data-name="Grupo 1230362" transform="translate(10.979 19.985)">
              <path id="Trazado_1181048" data-name="Trazado 1181048" d="M99.776,372.44h0a2.721,2.721,0,0,1,0,4.458l-2.4,1.681a2.721,2.721,0,0,1-3.789-.668h0a2.721,2.721,0,0,1,.668-3.79l2.4-1.68A2.722,2.722,0,0,1,99.776,372.44Z" transform="translate(-93.094 -371.948)" fill="#ea9b58"/>
              <path id="Trazado_1181049" data-name="Trazado 1181049" d="M138.433,402.8l-2.155,1.509a2.721,2.721,0,0,1-3.789-.668h0a2.721,2.721,0,0,1,.668-3.79l2.155-1.509a2.721,2.721,0,0,1,3.121,0h0A2.721,2.721,0,0,1,138.433,402.8Z" transform="translate(-127.006 -394.529)" fill="#ea9b58"/>
              <path id="Trazado_1181050" data-name="Trazado 1181050" d="M174.572,428.7l-2.28,1.6a2.721,2.721,0,0,1-3.789-.668h0a2.721,2.721,0,0,1,.668-3.79l2.28-1.6a2.721,2.721,0,0,1,3.122,0h0A2.721,2.721,0,0,1,174.572,428.7Z" transform="translate(-158.4 -417.103)" fill="#ea9b58"/>
              <path id="Trazado_1181051" data-name="Trazado 1181051" d="M211.595,454.6l-2.275,1.593a2.721,2.721,0,0,1-3.789-.668h0a2.721,2.721,0,0,1,.668-3.79l2.275-1.593a2.721,2.721,0,0,1,3.121,0h0A2.721,2.721,0,0,1,211.595,454.6Z" transform="translate(-190.679 -439.684)" fill="#ea9b58"/>
            </g>
            <path id="Trazado_1181052" data-name="Trazado 1181052" d="M7.7,229.734l9.193-13.127a1.089,1.089,0,0,1,1.516-.267l5.078,3.555a1.088,1.088,0,0,1,.267,1.516L14.56,234.539a1.089,1.089,0,0,1-1.516.267l-5.08-3.556A1.088,1.088,0,0,1,7.7,229.734Z" transform="translate(-7.5 -216.143)" fill="#fe646f"/>
            <path id="Trazado_1181053" data-name="Trazado 1181053" d="M7.7,302.838,9.682,300a1.118,1.118,0,0,0,.456,1.126l5.218,3.652a1.118,1.118,0,0,0,1.152.078l-1.948,2.782a1.089,1.089,0,0,1-1.516.267l-5.08-3.556A1.088,1.088,0,0,1,7.7,302.838Z" transform="translate(-7.5 -289.246)" fill="#fd4755"/>
            <path id="Trazado_1181054" data-name="Trazado 1181054" d="M392.248,231.25l-5.08,3.556a1.089,1.089,0,0,1-1.516-.267l-9.192-13.128a1.089,1.089,0,0,1,.267-1.516l5.078-3.555a1.089,1.089,0,0,1,1.516.267l9.193,13.127A1.089,1.089,0,0,1,392.248,231.25Z" transform="translate(-328.964 -216.142)" fill="#528fd8"/>
            <path id="Trazado_1181055" data-name="Trazado 1181055" d="M443.085,302.838,441.1,300a1.118,1.118,0,0,1-.456,1.126l-5.218,3.652a1.118,1.118,0,0,1-1.152.078l1.948,2.782a1.089,1.089,0,0,0,1.516.267l5.079-3.556A1.088,1.088,0,0,0,443.085,302.838Z" transform="translate(-379.533 -289.246)" fill="#0573ce"/>
          </g>
        </g>
      </g>
      <g id="Grupo_1230368" data-name="Grupo 1230368" transform="translate(7.5 7.5)">
        <g id="Grupo_1230366" data-name="Grupo 1230366" transform="translate(17.531 0)">
          <path id="Trazado_1181056" data-name="Trazado 1181056" d="M168.72,21.843a10.2,10.2,0,0,1-.217,2.1L160.6,20.3V11.859A10.214,10.214,0,0,1,168.72,21.843Zm-12.27-9.984V20.3l-7.906,3.636a10.2,10.2,0,0,1,7.906-12.08Zm-6.24,15.877,6.24-2.87v6.961A10.216,10.216,0,0,1,150.209,27.736ZM160.6,31.827V24.866l6.24,2.87A10.217,10.217,0,0,1,160.6,31.827ZM149.492,10.7a14.339,14.339,0,1,1-3.009,3.348" transform="translate(-144.18 -7.5)" fill="none" stroke="#000" stroke-linecap="round" stroke-linejoin="round" stroke-miterlimit="10" stroke-width="1"/>
        </g>
        <path id="Trazado_1181057" data-name="Trazado 1181057" d="M254.718,399.716l2.091,1.464a2.721,2.721,0,0,0,3.79-.668h0a2.721,2.721,0,0,0-.668-3.79l1.574,1.1a2.764,2.764,0,0,0,3.785-.551,2.721,2.721,0,0,0-.61-3.87l1.633,1.144a2.721,2.721,0,0,0,3.72-.572h0a2.721,2.721,0,0,0-.6-3.887l-.135-.094,1.814,1.27a2.764,2.764,0,0,0,3.785-.551,2.721,2.721,0,0,0-.61-3.87l-.429-.3" transform="translate(-223.008 -337.923)" fill="none" stroke="#000" stroke-linecap="round" stroke-linejoin="round" stroke-miterlimit="10" stroke-width="1"/>
        <path id="Trazado_1181058" data-name="Trazado 1181058" d="M133.083,258.8l3.256,2.279,2.755-1.276a4.36,4.36,0,0,1,1.831-.4h2.985a4.36,4.36,0,0,1,2.5.787l1.761,1.232" transform="translate(-116.975 -226.571)" fill="none" stroke="#000" stroke-linecap="round" stroke-linejoin="round" stroke-miterlimit="10" stroke-width="1"/>
        <line id="Línea_3763" data-name="Línea 3763" x1="5.378" y1="3.766" transform="translate(7.353 44.737)" fill="none" stroke="#000" stroke-linecap="round" stroke-linejoin="round" stroke-miterlimit="10" stroke-width="1"/>
        <path id="Trazado_1181059" data-name="Trazado 1181059" d="M233.385,258.8l-3.256,2.279-2.754-1.277a4.353,4.353,0,0,0-1.831-.4H221.2a4.354,4.354,0,0,0-2.5.787l-5.567,3.9a2.722,2.722,0,0,0-.363,4.154h0a2.722,2.722,0,0,0,3.486.3l4.8-3.364a1.089,1.089,0,0,1,1.249,0l14.289,10,5.543-3.882" transform="translate(-185.746 -226.567)" fill="none" stroke="#000" stroke-linecap="round" stroke-linejoin="round" stroke-miterlimit="10" stroke-width="1"/>
        <g id="Grupo_1230367" data-name="Grupo 1230367" transform="translate(10.979 46.747)">
          <path id="Trazado_1181060" data-name="Trazado 1181060" d="M99.776,372.44h0a2.721,2.721,0,0,1,0,4.458l-2.4,1.681a2.721,2.721,0,0,1-3.789-.668h0a2.721,2.721,0,0,1,.668-3.79l2.4-1.68A2.722,2.722,0,0,1,99.776,372.44Z" transform="translate(-93.094 -371.948)" fill="none" stroke="#000" stroke-linecap="round" stroke-linejoin="round" stroke-miterlimit="10" stroke-width="1"/>
          <path id="Trazado_1181061" data-name="Trazado 1181061" d="M138.433,402.8l-2.155,1.509a2.721,2.721,0,0,1-3.789-.668h0a2.721,2.721,0,0,1,.668-3.79l2.155-1.509a2.721,2.721,0,0,1,3.121,0h0A2.721,2.721,0,0,1,138.433,402.8Z" transform="translate(-127.006 -394.529)" fill="none" stroke="#000" stroke-linecap="round" stroke-linejoin="round" stroke-miterlimit="10" stroke-width="1"/>
          <path id="Trazado_1181062" data-name="Trazado 1181062" d="M174.572,428.7l-2.28,1.6a2.721,2.721,0,0,1-3.789-.668h0a2.721,2.721,0,0,1,.668-3.79l2.28-1.6a2.721,2.721,0,0,1,3.122,0h0A2.721,2.721,0,0,1,174.572,428.7Z" transform="translate(-158.4 -417.103)" fill="none" stroke="#000" stroke-linecap="round" stroke-linejoin="round" stroke-miterlimit="10" stroke-width="1"/>
          <path id="Trazado_1181063" data-name="Trazado 1181063" d="M211.595,454.6l-2.275,1.593a2.721,2.721,0,0,1-3.789-.668h0a2.721,2.721,0,0,1,.668-3.79l2.275-1.593a2.721,2.721,0,0,1,3.121,0h0A2.721,2.721,0,0,1,211.595,454.6Z" transform="translate(-190.679 -439.684)" fill="none" stroke="#000" stroke-linecap="round" stroke-linejoin="round" stroke-miterlimit="10" stroke-width="1"/>
        </g>
        <path id="Trazado_1181064" data-name="Trazado 1181064" d="M13.124,221.989l3.768-5.381a1.087,1.087,0,0,1,1.515-.267l5.079,3.554a1.088,1.088,0,0,1,.267,1.516L14.562,234.54a1.088,1.088,0,0,1-1.516.267l-5.079-3.556a1.088,1.088,0,0,1-.267-1.516l2.85-4.07" transform="translate(-7.502 -189.382)" fill="none" stroke="#000" stroke-linecap="round" stroke-linejoin="round" stroke-miterlimit="10" stroke-width="1"/>
        <path id="Trazado_1181065" data-name="Trazado 1181065" d="M387.19,222.134l5.323,7.6a1.088,1.088,0,0,1-.267,1.516l-5.079,3.556a1.088,1.088,0,0,1-1.516-.267l-9.192-13.128a1.088,1.088,0,0,1,.267-1.516l5.079-3.554a1.087,1.087,0,0,1,1.515.267l1.294,1.848" transform="translate(-328.962 -189.382)" fill="none" stroke="#000" stroke-linecap="round" stroke-linejoin="round" stroke-miterlimit="10" stroke-width="1"/>
        <line id="Línea_3764" data-name="Línea 3764" x2="5.199" y2="3.639" transform="translate(42.906 49.701)" fill="none" stroke="#000" stroke-linecap="round" stroke-linejoin="round" stroke-miterlimit="10" stroke-width="1"/>
        <line id="Línea_3765" data-name="Línea 3765" x1="4.482" y1="3.139" transform="translate(38.992 53.603)" fill="none" stroke="#000" stroke-linecap="round" stroke-linejoin="round" stroke-miterlimit="10" stroke-width="1"/>
        <path id="Trazado_1181066" data-name="Trazado 1181066" d="M320.673,328.232l.676.473a4.608,4.608,0,0,0,4.984.195l.543-.32" transform="translate(-280.504 -287.093)" fill="none" stroke="#000" stroke-linecap="round" stroke-linejoin="round" stroke-miterlimit="10" stroke-width="1"/>
      </g>
    </g>
  </g>
</svg>
