<svg xmlns="http://www.w3.org/2000/svg" xmlns:xlink="http://www.w3.org/1999/xlink" width="118" height="118" viewBox="0 0 118 118">
  <defs>
    <filter id="Trazado_982547" x="0" y="0" width="118" height="118" filterUnits="userSpaceOnUse">
      <feOffset dy="3" input="SourceAlpha"/>
      <feGaussianBlur stdDeviation="3" result="blur"/>
      <feFlood flood-opacity="0.161"/>
      <feComposite operator="in" in2="blur"/>
      <feComposite in="SourceGraphic"/>
    </filter>
  </defs>
  <g id="Grupo_1230475" data-name="Grupo 1230475" transform="translate(-270.125 -8003.014)">
    <g id="Grupo_1230352" data-name="Grupo 1230352" transform="translate(279.125 8009.014)">
      <g id="Grupo_1224244" data-name="Grupo 1224244" transform="translate(0)">
        <g id="Grupo_1224091" data-name="Grupo 1224091" transform="translate(0)">
          <g id="Grupo_1223183" data-name="Grupo 1223183">
            <g id="Grupo_1211217" data-name="Grupo 1211217">
              <g id="Grupo_1210736" data-name="Grupo 1210736">
                <g id="Grupo_1210537" data-name="Grupo 1210537">
                  <g id="Grupo_1164202" data-name="Grupo 1164202">
                    <g id="Grupo_1158168" data-name="Grupo 1158168">
                      <g id="Grupo_1152576" data-name="Grupo 1152576">
                        <g id="Grupo_1148633" data-name="Grupo 1148633">
                          <g id="Grupo_1148525" data-name="Grupo 1148525">
                            <g transform="matrix(1, 0, 0, 1, -9, -6)" filter="url(#Trazado_982547)">
                              <g id="Trazado_982547-2" data-name="Trazado 982547" transform="translate(9 6)" fill="#fcf5f0">
                                <path d="M 49.99999618530273 98.5 C 43.45188140869141 98.5 37.10042572021484 97.21786499023438 31.12206840515137 94.68923950195312 C 25.34691047668457 92.24655151367188 20.15996742248535 88.74931335449219 15.70532512664795 84.29468536376953 C 11.25068187713623 79.84004211425781 7.753438949584961 74.65309906005859 5.310753345489502 68.87792205810547 C 2.782124757766724 62.89956665039062 1.499996185302734 56.54811096191406 1.499996185302734 49.99999618530273 C 1.499996185302734 43.45188140869141 2.782124757766724 37.10042572021484 5.310753345489502 31.12206840515137 C 7.753438949584961 25.34691047668457 11.25068187713623 20.15996742248535 15.70532512664795 15.70532512664795 C 20.15996742248535 11.25068187713623 25.34691047668457 7.753438949584961 31.12206840515137 5.310753345489502 C 37.10042572021484 2.782124757766724 43.45188140869141 1.499996185302734 49.99999618530273 1.499996185302734 C 56.54811096191406 1.499996185302734 62.89956665039062 2.782124757766724 68.87792205810547 5.310753345489502 C 74.65309906005859 7.753438949584961 79.84004211425781 11.25068187713623 84.29468536376953 15.70532512664795 C 88.74931335449219 20.15996742248535 92.24655151367188 25.34691047668457 94.68923950195312 31.12206840515137 C 97.21786499023438 37.10042572021484 98.5 43.45188140869141 98.5 49.99999618530273 C 98.5 56.54811096191406 97.21786499023438 62.89956665039062 94.68923950195312 68.87792205810547 C 92.24655151367188 74.65309906005859 88.74931335449219 79.84004211425781 84.29468536376953 84.29468536376953 C 79.84004211425781 88.74931335449219 74.65309906005859 92.24655151367188 68.87792205810547 94.68923950195312 C 62.89956665039062 97.21786499023438 56.54811096191406 98.5 49.99999618530273 98.5 Z" stroke="none"/>
                                <path d="M 49.99999618530273 2.999992370605469 C 43.65372085571289 2.999992370605469 37.49885940551758 4.242256164550781 31.70639801025391 6.6922607421875 C 26.11002349853516 9.059318542480469 21.08335113525391 12.4486083984375 16.76598358154297 16.76598358154297 C 12.4486083984375 21.08335113525391 9.059318542480469 26.11002349853516 6.6922607421875 31.70639801025391 C 4.242256164550781 37.49885940551758 2.999992370605469 43.65372085571289 2.999992370605469 49.99999618530273 C 2.999992370605469 56.34627151489258 4.242256164550781 62.50113296508789 6.6922607421875 68.29359436035156 C 9.059318542480469 73.88996887207031 12.4486083984375 78.91664123535156 16.76598358154297 83.2340087890625 C 21.08335113525391 87.55138397216797 26.11002349853516 90.940673828125 31.70639801025391 93.30773162841797 C 37.49885940551758 95.75773620605469 43.65372085571289 97 49.99999618530273 97 C 56.34627151489258 97 62.50113296508789 95.75773620605469 68.29359436035156 93.30773162841797 C 73.88996887207031 90.940673828125 78.91664123535156 87.55138397216797 83.2340087890625 83.2340087890625 C 87.55138397216797 78.91664123535156 90.940673828125 73.88996887207031 93.30773162841797 68.29359436035156 C 95.75773620605469 62.50113296508789 97 56.34627151489258 97 49.99999618530273 C 97 43.65372085571289 95.75773620605469 37.49885940551758 93.30773162841797 31.70639801025391 C 90.940673828125 26.11002349853516 87.55138397216797 21.08335113525391 83.2340087890625 16.76598358154297 C 78.91664123535156 12.4486083984375 73.88996887207031 9.059318542480469 68.29359436035156 6.6922607421875 C 62.50113296508789 4.242256164550781 56.34627151489258 2.999992370605469 49.99999618530273 2.999992370605469 M 49.99999618530273 -7.62939453125e-06 C 77.61422729492188 -7.62939453125e-06 100 22.38576507568359 100 49.99999618530273 C 100 77.61422729492188 77.61422729492188 100 49.99999618530273 100 C 22.38576507568359 100 -7.62939453125e-06 77.61422729492188 -7.62939453125e-06 49.99999618530273 C -7.62939453125e-06 22.38576507568359 22.38576507568359 -7.62939453125e-06 49.99999618530273 -7.62939453125e-06 Z" stroke="none" fill="#eca675"/>
                              </g>
                            </g>
                          </g>
                        </g>
                      </g>
                    </g>
                  </g>
                </g>
              </g>
            </g>
          </g>
        </g>
      </g>
    </g>
    <g id="support_12056007" transform="translate(288.442 8002.665)">
      <g id="Grupo_1230462" data-name="Grupo 1230462" transform="translate(7.5 25.63)">
        <g id="Grupo_1230457" data-name="Grupo 1230457" transform="translate(9.15 0)">
          <g id="Grupo_1230450" data-name="Grupo 1230450" transform="translate(11.355)">
            <path id="Trazado_1181621" data-name="Trazado 1181621" d="M238.646,109.682l.047-.707a.389.389,0,0,1-.079-.2l-.019-.2-.4-4.09h-5.1l-.4,4.084h0l-.02.206a.39.39,0,0,1-.109.234l.083.8A3.2,3.2,0,0,0,238.646,109.682Z" transform="translate(-223.02 -94.001)" fill="#b98080"/>
            <path id="Trazado_1181622" data-name="Trazado 1181622" d="M185.708,144.783a8.144,8.144,0,0,0-.054-.934h0a5.6,5.6,0,0,0-1.713-3.474,5.339,5.339,0,0,0-2.7-1.363l-4.267-.77a.39.39,0,0,1-.242-.149l-.047.126a3.2,3.2,0,0,1-5.995.129l-.083-.218a.39.39,0,0,1-.211.113l-4.262.77a5.475,5.475,0,0,0-4.46,5.331l-.615,6.649.615,4.35h2.558l1.314-.484.889.484h14.556l1.1-.484,1.1.484h2.51Z" transform="translate(-161.062 -123.119)" fill="#5de1c4"/>
            <path id="Trazado_1181623" data-name="Trazado 1181623" d="M220.629,25.953a5.425,5.425,0,0,0-5.358,5.929l.145,1.453a6.782,6.782,0,0,0,3.748,5.4,3.33,3.33,0,0,0,2.942,0,6.763,6.763,0,0,0,3.741-5.4l.145-1.453A5.465,5.465,0,0,0,220.629,25.953Z" transform="translate(-208.004 -25.952)" fill="#c59191"/>
          </g>
          <g id="Grupo_1230453" data-name="Grupo 1230453" transform="translate(23.42 10.732)">
            <path id="Trazado_1181624" data-name="Trazado 1181624" d="M328.994,190.048l.047-.707a.389.389,0,0,1-.079-.2l-.019-.2-.4-4.09h-5.1l-.4,4.084h0l-.02.206a.39.39,0,0,1-.109.234l.083.8A3.2,3.2,0,0,0,328.994,190.048Z" transform="translate(-313.368 -174.367)" fill="#f9b1b1"/>
            <path id="Trazado_1181625" data-name="Trazado 1181625" d="M275.252,237.42l.134-8.8.057-3.516-.172-1.485a6.077,6.077,0,0,0-4.291-4.111l-3.542-.875-.111-.02a.39.39,0,0,1-.242-.149l-.047.126a3.2,3.2,0,0,1-5.995.129l-.083-.218a.39.39,0,0,1-.211.113l-4.262.77a5.475,5.475,0,0,0-4.46,5.331l-.615,6.649.615,6.754h19.317l1.1-.484,1.1.484Z" transform="translate(-251.411 -203.486)" fill="#ffe177"/>
            <g id="Grupo_1230452" data-name="Grupo 1230452" transform="translate(16.027 15.143)">
              <g id="Grupo_1230451" data-name="Grupo 1230451">
                <path id="Trazado_1181626" data-name="Trazado 1181626" d="M377.545,228.435v-1.53c0-2.311-.617-3.945-2.2-5.085a17.7,17.7,0,0,0-3.9-2.095l4.155.75a5.34,5.34,0,0,1,2.7,1.363A5.6,5.6,0,0,1,380,225.312h0a8.152,8.152,0,0,1,.054.934V239.21h-2.51V228.435Z" transform="translate(-371.437 -219.725)" fill="#ffd15b"/>
              </g>
            </g>
            <path id="Trazado_1181627" data-name="Trazado 1181627" d="M310.978,106.32a5.425,5.425,0,0,0-5.358,5.929l.145,1.453a6.782,6.782,0,0,0,3.748,5.4,3.33,3.33,0,0,0,2.942,0,6.764,6.764,0,0,0,3.741-5.4l.145-1.453A5.465,5.465,0,0,0,310.978,106.32Z" transform="translate(-298.353 -106.319)" fill="#f9c6c6"/>
          </g>
          <g id="Grupo_1230456" data-name="Grupo 1230456" transform="translate(0 10.732)">
            <path id="Trazado_1181628" data-name="Trazado 1181628" d="M149.017,190.048l.047-.707a.389.389,0,0,1-.079-.2l-.019-.2-.4-4.09h-5.1l-.4,4.084h0l-.02.206a.391.391,0,0,1-.109.234l.083.8A3.2,3.2,0,0,0,149.017,190.048Z" transform="translate(-134.004 -174.367)" fill="#f9b1b1"/>
            <path id="Trazado_1181629" data-name="Trazado 1181629" d="M99.251,237.42l.134-8.8.057-3.516-.172-1.485A6.077,6.077,0,0,0,94.98,219.5l-3.542-.875-.111-.02a.39.39,0,0,1-.242-.149l-.047.126a3.2,3.2,0,0,1-5.995.129l-.083-.218a.39.39,0,0,1-.211.113l-4.262.77a5.475,5.475,0,0,0-4.46,5.331v12.757a.646.646,0,0,0,.646.646H97.546Z" transform="translate(-76.023 -203.486)" fill="#d9b1ee"/>
            <g id="Grupo_1230455" data-name="Grupo 1230455" transform="translate(15.415 15.143)">
              <g id="Grupo_1230454" data-name="Grupo 1230454">
                <path id="Trazado_1181630" data-name="Trazado 1181630" d="M197.568,228.435v-1.53c0-2.311-.617-3.945-2.2-5.085a17.7,17.7,0,0,0-3.9-2.095l4.155.75a5.34,5.34,0,0,1,2.7,1.363,5.6,5.6,0,0,1,1.713,3.474h0a8.149,8.149,0,0,1,.054.934V239.21h-2.51Z" transform="translate(-191.46 -219.725)" fill="#cb97e7"/>
              </g>
            </g>
            <path id="Trazado_1181631" data-name="Trazado 1181631" d="M131,106.32a5.425,5.425,0,0,0-5.358,5.929l.145,1.453a6.782,6.782,0,0,0,3.748,5.4,3.33,3.33,0,0,0,2.942,0,6.763,6.763,0,0,0,3.741-5.4l.145-1.453A5.465,5.465,0,0,0,131,106.32Z" transform="translate(-118.988 -106.319)" fill="#f9c6c6"/>
          </g>
        </g>
        <g id="Grupo_1230459" data-name="Grupo 1230459" transform="translate(43.04 18.395)">
          <g id="Grupo_1230458" data-name="Grupo 1230458">
            <path id="Trazado_1181632" data-name="Trazado 1181632" d="M329.822,196a8.865,8.865,0,0,1,2.623-6.295l10.9-10.808a2.713,2.713,0,0,1,4.612,1.941l0,0,.768-2.108-.768-2.518v-8.72a3.779,3.779,0,0,1,3.78-3.779h0a1.408,1.408,0,0,1,1.408,1.408v18.131a4.173,4.173,0,0,1-.926,2.621l-10.333,12.8a8.5,8.5,0,0,0-1.379,4.955v2.641a.534.534,0,0,1-.534.534h-9.619a.534.534,0,0,1-.534-.534V196Z" transform="translate(-329.822 -163.708)" fill="#c59191"/>
            <path id="Trazado_1181633" data-name="Trazado 1181633" d="M416.189,265.572l-6.748,7.343a1.326,1.326,0,0,1-1.873.079h0a1.326,1.326,0,0,1-.079-1.872l6.748-7.342a2.684,2.684,0,0,0,.386-.539,2.713,2.713,0,0,0,.33-1.3v-4.629a5.362,5.362,0,0,1,1.237,8.259Z" transform="translate(-396.815 -244.814)" fill="#b98080"/>
          </g>
        </g>
        <g id="Grupo_1230461" data-name="Grupo 1230461" transform="translate(0 18.395)">
          <g id="Grupo_1230460" data-name="Grupo 1230460">
            <path id="Trazado_1181634" data-name="Trazado 1181634" d="M30.825,196A8.865,8.865,0,0,0,28.2,189.7L17.3,178.9a2.713,2.713,0,0,0-4.612,1.941l0,0-.768-2.108.768-2.518v-8.72a3.779,3.779,0,0,0-3.779-3.779h0A1.408,1.408,0,0,0,7.5,165.116v18.131a4.173,4.173,0,0,0,.926,2.621l10.333,12.8a8.5,8.5,0,0,1,1.379,4.955v2.641a.534.534,0,0,0,.534.534h9.619a.534.534,0,0,0,.534-.534V196Z" transform="translate(-7.5 -163.708)" fill="#c59191"/>
            <path id="Trazado_1181635" data-name="Trazado 1181635" d="M27.859,265.571l6.748,7.343a1.326,1.326,0,0,0,1.873.079h0a1.326,1.326,0,0,0,.079-1.873l-6.748-7.342a2.714,2.714,0,0,1-.716-1.837v-4.629a5.362,5.362,0,0,0-1.237,8.259Z" transform="translate(-23.908 -244.813)" fill="#b98080"/>
          </g>
        </g>
      </g>
      <g id="Grupo_1230474" data-name="Grupo 1230474" transform="translate(7.5 25.58)">
        <g id="Grupo_1230465" data-name="Grupo 1230465" transform="translate(0 18.445)">
          <g id="Grupo_1230463" data-name="Grupo 1230463">
            <path id="Trazado_1181636" data-name="Trazado 1181636" d="M7.5,253.09v7.6a4.177,4.177,0,0,0,.925,2.621L19.347,277.03a3.63,3.63,0,0,1,.791,2.261v4.957" transform="translate(-7.5 -241.155)" fill="none" stroke="#000" stroke-linecap="round" stroke-linejoin="round" stroke-miterlimit="10" stroke-width="1.3"/>
            <path id="Trazado_1181637" data-name="Trazado 1181637" d="M7.5,170.971v-5.854a1.409,1.409,0,0,1,1.407-1.407,3.779,3.779,0,0,1,3.78,3.779v13.318" transform="translate(-7.5 -163.71)" fill="none" stroke="#000" stroke-linecap="round" stroke-linejoin="round" stroke-miterlimit="10" stroke-width="1.3"/>
            <path id="Trazado_1181638" data-name="Trazado 1181638" d="M64.486,300.32v-10.8a8.865,8.865,0,0,0-2.623-6.295l-10.888-10.8a2.715,2.715,0,0,0-3.819,0h0a2.715,2.715,0,0,0-.092,3.769l7.645,8.319" transform="translate(-41.161 -257.227)" fill="none" stroke="#000" stroke-linecap="round" stroke-linejoin="round" stroke-miterlimit="10" stroke-width="1.3"/>
          </g>
          <g id="Grupo_1230464" data-name="Grupo 1230464" transform="translate(43.04)">
            <path id="Trazado_1181639" data-name="Trazado 1181639" d="M422.5,275.12v4.662a4.176,4.176,0,0,1-.925,2.621l-10.922,13.715a3.63,3.63,0,0,0-.791,2.261v4.957" transform="translate(-399.172 -260.243)" fill="none" stroke="#000" stroke-linecap="round" stroke-linejoin="round" stroke-miterlimit="10" stroke-width="1.3"/>
            <path id="Trazado_1181640" data-name="Trazado 1181640" d="M465.65,180.807V167.489a3.779,3.779,0,0,1,3.78-3.779,1.409,1.409,0,0,1,1.407,1.407v8.8" transform="translate(-447.512 -163.71)" fill="none" stroke="#000" stroke-linecap="round" stroke-linejoin="round" stroke-miterlimit="10" stroke-width="1.3"/>
            <path id="Trazado_1181641" data-name="Trazado 1181641" d="M383.839,284.51l7.645-8.319a2.708,2.708,0,0,0,.716-1.836v-.031a2.716,2.716,0,0,0-4.627-1.9l-6.693,6.637" transform="translate(-374.062 -257.227)" fill="none" stroke="#000" stroke-linecap="round" stroke-linejoin="round" stroke-miterlimit="10" stroke-width="1.3"/>
            <path id="Trazado_1181642" data-name="Trazado 1181642" d="M329.82,369.863v-10.8a8.863,8.863,0,0,1,2.624-6.295l.873-.865" transform="translate(-329.82 -326.771)" fill="none" stroke="#000" stroke-linecap="round" stroke-linejoin="round" stroke-miterlimit="10" stroke-width="1.3"/>
          </g>
        </g>
        <g id="Grupo_1230473" data-name="Grupo 1230473" transform="translate(9.25 0)">
          <g id="Grupo_1230467" data-name="Grupo 1230467" transform="translate(17.983)">
            <path id="Trazado_1181643" data-name="Trazado 1181643" d="M218.463,34.428a6.621,6.621,0,0,0,3.286,3.648,3.252,3.252,0,0,0,2.875,0,6.614,6.614,0,0,0,3.657-5.277l.142-1.421a5.276,5.276,0,0,0-5.242-5.8h0a5.263,5.263,0,0,0-5.148,4.174" transform="translate(-217.151 -25.58)" fill="none" stroke="#000" stroke-linecap="round" stroke-linejoin="round" stroke-miterlimit="10" stroke-width="1.3"/>
            <path id="Trazado_1181644" data-name="Trazado 1181644" d="M223.343,139.511l-2.931-.529h0a3.134,3.134,0,0,1-5.872,0h0l-3.1.559" transform="translate(-211.444 -123.839)" fill="none" stroke="#000" stroke-linecap="round" stroke-linejoin="round" stroke-miterlimit="10" stroke-width="1.3"/>
            <g id="Grupo_1230466" data-name="Grupo 1230466" transform="translate(3.096 11.802)">
              <line id="Línea_3776" data-name="Línea 3776" x1="0.36" y1="3.341" transform="translate(5.513)" fill="none" stroke="#000" stroke-linecap="round" stroke-linejoin="round" stroke-miterlimit="10" stroke-width="1.3"/>
              <line id="Línea_3777" data-name="Línea 3777" y1="3.076" x2="0.332" transform="translate(0 0.265)" fill="none" stroke="#000" stroke-linecap="round" stroke-linejoin="round" stroke-miterlimit="10" stroke-width="1.3"/>
            </g>
          </g>
          <g id="Grupo_1230472" data-name="Grupo 1230472" transform="translate(0 10.533)">
            <g id="Grupo_1230469" data-name="Grupo 1230469">
              <path id="Trazado_1181645" data-name="Trazado 1181645" d="M130.2,117.158h0a3.308,3.308,0,0,0,2.923,0h0a6.716,6.716,0,0,0,3.717-5.364l.143-1.443a5.362,5.362,0,0,0-5.328-5.894h0a5.349,5.349,0,0,0-5.322,5.889l.145,1.444A6.734,6.734,0,0,0,130.2,117.158Z" transform="translate(-119.691 -104.458)" fill="none" stroke="#000" stroke-linecap="round" stroke-linejoin="round" stroke-miterlimit="10" stroke-width="1.3"/>
              <path id="Trazado_1181646" data-name="Trazado 1181646" d="M85.753,219.928h0l-4.54.819a5.4,5.4,0,0,0-4.443,5.316v.77" transform="translate(-76.771 -204.509)" fill="none" stroke="#000" stroke-linecap="round" stroke-linejoin="round" stroke-miterlimit="10" stroke-width="1.3"/>
              <path id="Trazado_1181647" data-name="Trazado 1181647" d="M197.715,226.833v-.77a5.4,5.4,0,0,0-4.443-5.316l-4.54-.819" transform="translate(-173.782 -204.509)" fill="none" stroke="#000" stroke-linecap="round" stroke-linejoin="round" stroke-miterlimit="10" stroke-width="1.3"/>
              <g id="Grupo_1230468" data-name="Grupo 1230468" transform="translate(8.982 12.369)">
                <line id="Línea_3778" data-name="Línea 3778" x1="0.366" y1="2.986" transform="translate(5.603 0.064)" fill="none" stroke="#000" stroke-linecap="round" stroke-linejoin="round" stroke-miterlimit="10" stroke-width="1.3"/>
                <line id="Línea_3779" data-name="Línea 3779" y1="3.05" x2="0.374" fill="none" stroke="#000" stroke-linecap="round" stroke-linejoin="round" stroke-miterlimit="10" stroke-width="1.3"/>
              </g>
              <path id="Trazado_1181648" data-name="Trazado 1181648" d="M150.007,219.928h0a3.175,3.175,0,0,1-5.968,0h0" transform="translate(-135.057 -204.509)" fill="none" stroke="#000" stroke-linecap="round" stroke-linejoin="round" stroke-miterlimit="10" stroke-width="1.3"/>
            </g>
            <g id="Grupo_1230471" data-name="Grupo 1230471" transform="translate(23.933)">
              <path id="Trazado_1181649" data-name="Trazado 1181649" d="M309.427,117.158h0a3.308,3.308,0,0,0,2.923,0h0a6.716,6.716,0,0,0,3.717-5.364l.143-1.443a5.362,5.362,0,0,0-5.328-5.894h0a5.349,5.349,0,0,0-5.322,5.889l.145,1.444A6.735,6.735,0,0,0,309.427,117.158Z" transform="translate(-298.918 -104.458)" fill="none" stroke="#000" stroke-linecap="round" stroke-linejoin="round" stroke-miterlimit="10" stroke-width="1.3"/>
              <path id="Trazado_1181650" data-name="Trazado 1181650" d="M264.982,219.928h0l-4.54.819A5.4,5.4,0,0,0,256,226.063v13.385" transform="translate(-256 -204.509)" fill="none" stroke="#000" stroke-linecap="round" stroke-linejoin="round" stroke-miterlimit="10" stroke-width="1.3"/>
              <path id="Trazado_1181651" data-name="Trazado 1181651" d="M376.943,226.833v-.77a5.4,5.4,0,0,0-4.443-5.316l-4.54-.819" transform="translate(-353.011 -204.509)" fill="none" stroke="#000" stroke-linecap="round" stroke-linejoin="round" stroke-miterlimit="10" stroke-width="1.3"/>
              <g id="Grupo_1230470" data-name="Grupo 1230470" transform="translate(8.982 12.369)">
                <line id="Línea_3780" data-name="Línea 3780" x1="0.366" y1="2.986" transform="translate(5.603 0.064)" fill="none" stroke="#000" stroke-linecap="round" stroke-linejoin="round" stroke-miterlimit="10" stroke-width="1.3"/>
                <line id="Línea_3781" data-name="Línea 3781" y1="3.05" x2="0.374" fill="none" stroke="#000" stroke-linecap="round" stroke-linejoin="round" stroke-miterlimit="10" stroke-width="1.3"/>
              </g>
              <path id="Trazado_1181652" data-name="Trazado 1181652" d="M329.234,219.928h0a3.175,3.175,0,0,1-5.968,0h0" transform="translate(-314.284 -204.509)" fill="none" stroke="#000" stroke-linecap="round" stroke-linejoin="round" stroke-miterlimit="10" stroke-width="1.3"/>
            </g>
          </g>
          <line id="Línea_3782" data-name="Línea 3782" y1="10.086" transform="translate(19.017 35.385)" fill="none" stroke="#000" stroke-linecap="round" stroke-linejoin="round" stroke-miterlimit="10" stroke-width="1.3"/>
          <line id="Línea_3783" data-name="Línea 3783" y1="10.086" transform="translate(28.849 35.385)" fill="none" stroke="#000" stroke-linecap="round" stroke-linejoin="round" stroke-miterlimit="10" stroke-width="1.3"/>
        </g>
      </g>
    </g>
  </g>
</svg>
