<svg xmlns="http://www.w3.org/2000/svg" xmlns:xlink="http://www.w3.org/1999/xlink" width="118" height="118" viewBox="0 0 118 118">
  <defs>
    <filter id="Trazado_982547" x="0" y="0" width="118" height="118" filterUnits="userSpaceOnUse">
      <feOffset dy="3" input="SourceAlpha"/>
      <feGaussianBlur stdDeviation="3" result="blur"/>
      <feFlood flood-opacity="0.161"/>
      <feComposite operator="in" in2="blur"/>
      <feComposite in="SourceGraphic"/>
    </filter>
  </defs>
  <g id="Grupo_1230476" data-name="Grupo 1230476" transform="translate(-585.125 -8003.014)">
    <g id="Grupo_1230353" data-name="Grupo 1230353" transform="translate(594.125 8009.014)">
      <g id="Grupo_1224244" data-name="Grupo 1224244" transform="translate(0)">
        <g id="Grupo_1224091" data-name="Grupo 1224091" transform="translate(0)">
          <g id="Grupo_1223183" data-name="Grupo 1223183">
            <g id="Grupo_1211217" data-name="Grupo 1211217">
              <g id="Grupo_1210736" data-name="Grupo 1210736">
                <g id="Grupo_1210537" data-name="Grupo 1210537">
                  <g id="Grupo_1164202" data-name="Grupo 1164202">
                    <g id="Grupo_1158168" data-name="Grupo 1158168">
                      <g id="Grupo_1152576" data-name="Grupo 1152576">
                        <g id="Grupo_1148633" data-name="Grupo 1148633">
                          <g id="Grupo_1148525" data-name="Grupo 1148525">
                            <g transform="matrix(1, 0, 0, 1, -9, -6)" filter="url(#Trazado_982547)">
                              <g id="Trazado_982547-2" data-name="Trazado 982547" transform="translate(9 6)" fill="#fcf5f0">
                                <path d="M 49.99999618530273 98.5 C 43.45188140869141 98.5 37.10042572021484 97.21786499023438 31.12206840515137 94.68923950195312 C 25.34691047668457 92.24655151367188 20.15996742248535 88.74931335449219 15.70532512664795 84.29468536376953 C 11.25068187713623 79.84004211425781 7.753438949584961 74.65309906005859 5.310753345489502 68.87792205810547 C 2.782124757766724 62.89956665039062 1.499996185302734 56.54811096191406 1.499996185302734 49.99999618530273 C 1.499996185302734 43.45188140869141 2.782124757766724 37.10042572021484 5.310753345489502 31.12206840515137 C 7.753438949584961 25.34691047668457 11.25068187713623 20.15996742248535 15.70532512664795 15.70532512664795 C 20.15996742248535 11.25068187713623 25.34691047668457 7.753438949584961 31.12206840515137 5.310753345489502 C 37.10042572021484 2.782124757766724 43.45188140869141 1.499996185302734 49.99999618530273 1.499996185302734 C 56.54811096191406 1.499996185302734 62.89956665039062 2.782124757766724 68.87792205810547 5.310753345489502 C 74.65309906005859 7.753438949584961 79.84004211425781 11.25068187713623 84.29468536376953 15.70532512664795 C 88.74931335449219 20.15996742248535 92.24655151367188 25.34691047668457 94.68923950195312 31.12206840515137 C 97.21786499023438 37.10042572021484 98.5 43.45188140869141 98.5 49.99999618530273 C 98.5 56.54811096191406 97.21786499023438 62.89956665039062 94.68923950195312 68.87792205810547 C 92.24655151367188 74.65309906005859 88.74931335449219 79.84004211425781 84.29468536376953 84.29468536376953 C 79.84004211425781 88.74931335449219 74.65309906005859 92.24655151367188 68.87792205810547 94.68923950195312 C 62.89956665039062 97.21786499023438 56.54811096191406 98.5 49.99999618530273 98.5 Z" stroke="none"/>
                                <path d="M 49.99999618530273 2.999992370605469 C 43.65372085571289 2.999992370605469 37.49885940551758 4.242256164550781 31.70639801025391 6.6922607421875 C 26.11002349853516 9.059318542480469 21.08335113525391 12.4486083984375 16.76598358154297 16.76598358154297 C 12.4486083984375 21.08335113525391 9.059318542480469 26.11002349853516 6.6922607421875 31.70639801025391 C 4.242256164550781 37.49885940551758 2.999992370605469 43.65372085571289 2.999992370605469 49.99999618530273 C 2.999992370605469 56.34627151489258 4.242256164550781 62.50113296508789 6.6922607421875 68.29359436035156 C 9.059318542480469 73.88996887207031 12.4486083984375 78.91664123535156 16.76598358154297 83.2340087890625 C 21.08335113525391 87.55138397216797 26.11002349853516 90.940673828125 31.70639801025391 93.30773162841797 C 37.49885940551758 95.75773620605469 43.65372085571289 97 49.99999618530273 97 C 56.34627151489258 97 62.50113296508789 95.75773620605469 68.29359436035156 93.30773162841797 C 73.88996887207031 90.940673828125 78.91664123535156 87.55138397216797 83.2340087890625 83.2340087890625 C 87.55138397216797 78.91664123535156 90.940673828125 73.88996887207031 93.30773162841797 68.29359436035156 C 95.75773620605469 62.50113296508789 97 56.34627151489258 97 49.99999618530273 C 97 43.65372085571289 95.75773620605469 37.49885940551758 93.30773162841797 31.70639801025391 C 90.940673828125 26.11002349853516 87.55138397216797 21.08335113525391 83.2340087890625 16.76598358154297 C 78.91664123535156 12.4486083984375 73.88996887207031 9.059318542480469 68.29359436035156 6.6922607421875 C 62.50113296508789 4.242256164550781 56.34627151489258 2.999992370605469 49.99999618530273 2.999992370605469 M 49.99999618530273 -7.62939453125e-06 C 77.61422729492188 -7.62939453125e-06 100 22.38576507568359 100 49.99999618530273 C 100 77.61422729492188 77.61422729492188 100 49.99999618530273 100 C 22.38576507568359 100 -7.62939453125e-06 77.61422729492188 -7.62939453125e-06 49.99999618530273 C -7.62939453125e-06 22.38576507568359 22.38576507568359 -7.62939453125e-06 49.99999618530273 -7.62939453125e-06 Z" stroke="none" fill="#eca675"/>
                              </g>
                            </g>
                          </g>
                        </g>
                      </g>
                    </g>
                  </g>
                </g>
              </g>
            </g>
          </g>
        </g>
      </g>
    </g>
    <g id="discussion_11370719" transform="translate(595.673 8010.551)">
      <path id="Trazado_1181653" data-name="Trazado 1181653" d="M206.436,108.577h-20.28v14.4H197.6l5.889,5.881v-5.881h2.944Z" transform="translate(-146.641 -78.977)" fill="#d8ecfe" fill-rule="evenodd"/>
      <path id="Trazado_1181654" data-name="Trazado 1181654" d="M50.5,30.506a9.792,9.792,0,0,1,2.948,1.7l4.328-1.539,2.488,4.377L56.8,38a9.9,9.9,0,0,1,0,3.421L60.29,44.39l-2.547,4.343-4.268-1.518A9.787,9.787,0,0,1,50.5,48.944l-.825,4.483-5.035-.034-.822-4.446a9.785,9.785,0,0,1-2.984-1.728L36.525,48.75l-2.488-4.377,3.46-2.947A9.9,9.9,0,0,1,37.5,38L34.008,35.03l2.547-4.343,4.3,1.524a9.791,9.791,0,0,1,2.951-1.705l.832-4.519,5.035.034Z" transform="translate(-13.96 -6.953)" fill="#ffb229" fill-rule="evenodd"/>
      <path id="Trazado_1181655" data-name="Trazado 1181655" d="M78.1,278.729c5.391,0,7.877-11.585,0-11.585S72.713,278.729,78.1,278.729Z" transform="translate(-48.037 -217.256)" fill="#eac0ac" fill-rule="evenodd"/>
      <path id="Trazado_1181656" data-name="Trazado 1181656" d="M41,373.685c4.692,0,6.839,2.558,7.065,6.321a1.02,1.02,0,0,0-.261.682v7.365H31.467v-7.365a1.024,1.024,0,1,0-2.047,0v7.365H26v-7.365c0-4.134,2.115-7,7.085-7a8.164,8.164,0,0,0,7.916,0Z" transform="translate(-6.976 -310.165)" fill="#275e79" fill-rule="evenodd"/>
      <path id="Trazado_1181657" data-name="Trazado 1181657" d="M365.488,278.729c5.391,0,7.877-11.585,0-11.585S360.1,278.729,365.488,278.729Z" transform="translate(-298.651 -217.256)" fill="#eac0ac" fill-rule="evenodd"/>
      <path id="Trazado_1181658" data-name="Trazado 1181658" d="M328.524,373.685c4.97,0,7.085,2.87,7.085,7v7.365h-3.42v-7.365a1.024,1.024,0,0,0-2.047,0v7.365H313.8v-7.365a1.02,1.02,0,0,0-.26-.682c.226-3.764,2.373-6.321,7.064-6.321a8.164,8.164,0,0,0,7.916,0Z" transform="translate(-257.73 -310.165)" fill="#275e79" fill-rule="evenodd"/>
      <path id="Trazado_1181659" data-name="Trazado 1181659" d="M221.8,278.729c5.391,0,7.877-11.585,0-11.585S216.4,278.729,221.8,278.729Z" transform="translate(-173.344 -217.256)" fill="#eac0ac" fill-rule="evenodd"/>
      <path id="Trazado_1181660" data-name="Trazado 1181660" d="M184.693,373.685c4.97,0,7.085,2.87,7.085,7v7.365h-3.42v-7.365a1.024,1.024,0,1,0-2.047,0v7.365H175.159v-7.365a1.024,1.024,0,0,0-2.047,0v7.365h-3.42v-7.365c0-4.134,2.115-7,7.085-7a8.164,8.164,0,0,0,7.916,0Z" transform="translate(-132.283 -310.165)" fill="#388bb5" fill-rule="evenodd"/>
      <path id="Trazado_1181661" data-name="Trazado 1181661" d="M38.807,39.523a1.018,1.018,0,0,1,1.111-.2l3.413,1.214,1.686-2.875-2.793-2.38a1.022,1.022,0,0,1-.386-.984,8.692,8.692,0,0,0,0-3.074h0a1.02,1.02,0,0,1,.342-.951L45,27.864l-1.648-2.9-3.5,1.246a1.022,1.022,0,0,1-1.016-.173,8.762,8.762,0,0,0-2.64-1.527,1.021,1.021,0,0,1-.656-.776l-.672-3.656-3.335-.022L30.855,23.7a1.021,1.021,0,0,1-.662.808,8.786,8.786,0,0,0-2.631,1.519,1.022,1.022,0,0,1-1.008.19l-3.508-1.244-1.686,2.876,2.792,2.378a1.023,1.023,0,0,1,.4,1,8.677,8.677,0,0,0,0,3.069h0a1.018,1.018,0,0,1-.343.951l-2.816,2.4,1.649,2.9,3.5-1.245a1.022,1.022,0,0,1,1,.184A8.774,8.774,0,0,0,30.2,41.034a1.021,1.021,0,0,1,.656.776l.669,3.616,3.336.022.664-3.609a1.021,1.021,0,0,1,.662-.809,8.778,8.778,0,0,0,2.618-1.508Zm10.848-4.641A1.917,1.917,0,1,1,47.738,36.8,1.925,1.925,0,0,1,49.655,34.882Zm-11.1-4.046a1.917,1.917,0,1,1-1.917,1.917A1.917,1.917,0,0,1,38.552,30.836Zm16.466,4.046A1.917,1.917,0,1,1,53.1,36.8,1.925,1.925,0,0,1,55.018,34.882ZM33.189,30.836a1.917,1.917,0,1,1-1.917,1.917A1.925,1.925,0,0,1,33.189,30.836Zm-5.363,0a1.917,1.917,0,1,1-1.917,1.917A1.921,1.921,0,0,1,27.826,30.836Zm26.2,46.03V70.524a1.024,1.024,0,0,1,2.047,0v6.342h2.4V70.524a6.112,6.112,0,0,0-1.522-4.48,6.056,6.056,0,0,0-4.279-1.5,7.883,7.883,0,0,1-1.839.726,9.752,9.752,0,0,1-4.758,0,7.881,7.881,0,0,1-1.839-.726,6.056,6.056,0,0,0-4.279,1.5,6.113,6.113,0,0,0-1.522,4.48v6.342h2.4V70.524a1.024,1.024,0,0,1,2.047,0v6.342ZM52.41,62.5a8.7,8.7,0,0,1,5.235,1.467A8.8,8.8,0,0,1,62.879,62.5a1.019,1.019,0,0,1,.6.2,5.835,5.835,0,0,0,1.486.6,7.24,7.24,0,0,0,5.3-.649,1.014,1.014,0,0,1,.528-.147v0c5.227,0,8.109,3.011,8.109,8.027v7.365a1.024,1.024,0,0,1-1.024,1.024H19.024A1.024,1.024,0,0,1,18,77.889V70.524c0-5.016,2.882-8.027,8.109-8.027a1.019,1.019,0,0,1,.6.2,5.835,5.835,0,0,0,1.487.6,7.24,7.24,0,0,0,5.3-.649,1.014,1.014,0,0,1,.528-.147v0a8.8,8.8,0,0,1,5.234,1.467A8.7,8.7,0,0,1,44.494,62.5a1.019,1.019,0,0,1,.6.2,5.835,5.835,0,0,0,1.487.6,7.24,7.24,0,0,0,5.3-.649,1.014,1.014,0,0,1,.528-.147ZM59.1,65.442a8.65,8.65,0,0,1,1.414,5.082v6.342H72.413V70.524a1.024,1.024,0,0,1,2.047,0v6.342h2.4V70.524a5.289,5.289,0,0,0-5.8-5.977,7.881,7.881,0,0,1-1.839.726,9.752,9.752,0,0,1-4.758,0,7.889,7.889,0,0,1-1.839-.726,8.119,8.119,0,0,0-2.427.387,5.208,5.208,0,0,0-1.087.508ZM36.385,76.865V70.524A8.651,8.651,0,0,1,37.8,65.442a5.209,5.209,0,0,0-1.087-.508,8.119,8.119,0,0,0-2.427-.387,7.883,7.883,0,0,1-1.839.726,9.752,9.752,0,0,1-4.758,0,7.881,7.881,0,0,1-1.839-.726,6.055,6.055,0,0,0-4.279,1.5,6.112,6.112,0,0,0-1.522,4.48v6.342h2.4V70.524a1.024,1.024,0,0,1,2.047,0v6.342ZM48.452,60.449c2.855,0,4.748-4.5,3.709-7.3a3.578,3.578,0,0,0-3.709-2.24c-3.939,0-4.58,3.475-3.593,6.262C45.495,58.97,46.818,60.449,48.452,60.449Zm5.52-2.6c1.447-4.085-.045-8.989-5.52-8.989-3.085,0-4.858,1.524-5.62,3.576-1.5,4.038,1.2,10.056,5.62,10.056C51.054,62.5,53.07,60.4,53.972,57.853Zm12.865,2.6c2.855,0,4.748-4.5,3.709-7.3a3.578,3.578,0,0,0-3.709-2.24c-3.939,0-4.58,3.475-3.593,6.262C63.88,58.97,65.2,60.449,66.837,60.449Zm5.52-2.6c1.447-4.085-.045-8.989-5.52-8.989-3.085,0-4.858,1.524-5.62,3.576-1.5,4.038,1.2,10.056,5.62,10.056C69.439,62.5,71.455,60.4,72.357,57.853Zm-42.29,2.6c2.855,0,4.748-4.5,3.709-7.3a3.578,3.578,0,0,0-3.709-2.24c-3.939,0-4.58,3.475-3.593,6.262C27.11,58.97,28.433,60.449,30.067,60.449Zm5.52-2.6c1.447-4.085-.045-8.989-5.52-8.989-3.085,0-4.858,1.524-5.62,3.576-1.5,4.038,1.2,10.056,5.62,10.056C32.669,62.5,34.685,60.4,35.587,57.853ZM40.539,41.71l2.9,1.033v0a1.02,1.02,0,0,0,1.219-.446L47.184,38a1.021,1.021,0,0,0-.19-1.336l-3.056-2.6a11.261,11.261,0,0,0,0-2.6l.974-.831H58.772V42.975H56.851A1.024,1.024,0,0,0,55.828,44v3.416l-4.089-4.084a1.021,1.021,0,0,0-.776-.356H40.539V41.71ZM47.2,28.576H59.8A1.024,1.024,0,0,1,60.819,29.6V44A1.024,1.024,0,0,1,59.8,45.022H57.875V49.88h0a1.022,1.022,0,0,1-1.74.724l-5.588-5.581H39.515A1.024,1.024,0,0,1,38.492,44V42.212a10.715,10.715,0,0,1-1.054.52l-.722,3.926a1.021,1.021,0,0,1-1.05.835l-4.992-.033a1.02,1.02,0,0,1-1-.836h0l-.719-3.888a10.79,10.79,0,0,1-2.276-1.318L22.906,42.76a1.022,1.022,0,0,1-1.252-.5L19.19,37.923A1.021,1.021,0,0,1,19.47,36.6l2.975-2.534a11.282,11.282,0,0,1,0-2.6l-3.063-2.609a1.021,1.021,0,0,1-.19-1.336l2.521-4.3a1.02,1.02,0,0,1,1.219-.446v0L26.7,24.105a10.817,10.817,0,0,1,2.241-1.294l.729-3.962a1.021,1.021,0,0,1,1.05-.835l4.992.034a1.02,1.02,0,0,1,1,.836h0l.723,3.929A10.818,10.818,0,0,1,39.676,24.1l3.8-1.35a1.022,1.022,0,0,1,1.252.5l2.464,4.334a1.021,1.021,0,0,1,.011.987Z" transform="translate(0 0)" fill-rule="evenodd"/>
    </g>
  </g>
</svg>
