<svg xmlns="http://www.w3.org/2000/svg" xmlns:xlink="http://www.w3.org/1999/xlink" width="118" height="118" viewBox="0 0 118 118">
  <defs>
    <filter id="Trazado_982547" x="0" y="0" width="118" height="118" filterUnits="userSpaceOnUse">
      <feOffset dy="3" input="SourceAlpha"/>
      <feGaussianBlur stdDeviation="3" result="blur"/>
      <feFlood flood-opacity="0.161"/>
      <feComposite operator="in" in2="blur"/>
      <feComposite in="SourceGraphic"/>
    </filter>
  </defs>
  <g id="Grupo_1230502" data-name="Grupo 1230502" transform="translate(-1215.125 -8003.014)">
    <g id="Grupo_1230355" data-name="Grupo 1230355" transform="translate(1224.125 8009.014)">
      <g id="Grupo_1224244" data-name="Grupo 1224244" transform="translate(0)">
        <g id="Grupo_1224091" data-name="Grupo 1224091" transform="translate(0)">
          <g id="Grupo_1223183" data-name="Grupo 1223183">
            <g id="Grupo_1211217" data-name="Grupo 1211217">
              <g id="Grupo_1210736" data-name="Grupo 1210736">
                <g id="Grupo_1210537" data-name="Grupo 1210537">
                  <g id="Grupo_1164202" data-name="Grupo 1164202">
                    <g id="Grupo_1158168" data-name="Grupo 1158168">
                      <g id="Grupo_1152576" data-name="Grupo 1152576">
                        <g id="Grupo_1148633" data-name="Grupo 1148633">
                          <g id="Grupo_1148525" data-name="Grupo 1148525">
                            <g transform="matrix(1, 0, 0, 1, -9, -6)" filter="url(#Trazado_982547)">
                              <g id="Trazado_982547-2" data-name="Trazado 982547" transform="translate(9 6)" fill="#fcf5f0">
                                <path d="M 49.99999618530273 98.5 C 43.45188140869141 98.5 37.10042572021484 97.21786499023438 31.12206840515137 94.68923950195312 C 25.34691047668457 92.24655151367188 20.15996742248535 88.74931335449219 15.70532512664795 84.29468536376953 C 11.25068187713623 79.84004211425781 7.753438949584961 74.65309906005859 5.310753345489502 68.87792205810547 C 2.782124757766724 62.89956665039062 1.499996185302734 56.54811096191406 1.499996185302734 49.99999618530273 C 1.499996185302734 43.45188140869141 2.782124757766724 37.10042572021484 5.310753345489502 31.12206840515137 C 7.753438949584961 25.34691047668457 11.25068187713623 20.15996742248535 15.70532512664795 15.70532512664795 C 20.15996742248535 11.25068187713623 25.34691047668457 7.753438949584961 31.12206840515137 5.310753345489502 C 37.10042572021484 2.782124757766724 43.45188140869141 1.499996185302734 49.99999618530273 1.499996185302734 C 56.54811096191406 1.499996185302734 62.89956665039062 2.782124757766724 68.87792205810547 5.310753345489502 C 74.65309906005859 7.753438949584961 79.84004211425781 11.25068187713623 84.29468536376953 15.70532512664795 C 88.74931335449219 20.15996742248535 92.24655151367188 25.34691047668457 94.68923950195312 31.12206840515137 C 97.21786499023438 37.10042572021484 98.5 43.45188140869141 98.5 49.99999618530273 C 98.5 56.54811096191406 97.21786499023438 62.89956665039062 94.68923950195312 68.87792205810547 C 92.24655151367188 74.65309906005859 88.74931335449219 79.84004211425781 84.29468536376953 84.29468536376953 C 79.84004211425781 88.74931335449219 74.65309906005859 92.24655151367188 68.87792205810547 94.68923950195312 C 62.89956665039062 97.21786499023438 56.54811096191406 98.5 49.99999618530273 98.5 Z" stroke="none"/>
                                <path d="M 49.99999618530273 2.999992370605469 C 43.65372085571289 2.999992370605469 37.49885940551758 4.242256164550781 31.70639801025391 6.6922607421875 C 26.11002349853516 9.059318542480469 21.08335113525391 12.4486083984375 16.76598358154297 16.76598358154297 C 12.4486083984375 21.08335113525391 9.059318542480469 26.11002349853516 6.6922607421875 31.70639801025391 C 4.242256164550781 37.49885940551758 2.999992370605469 43.65372085571289 2.999992370605469 49.99999618530273 C 2.999992370605469 56.34627151489258 4.242256164550781 62.50113296508789 6.6922607421875 68.29359436035156 C 9.059318542480469 73.88996887207031 12.4486083984375 78.91664123535156 16.76598358154297 83.2340087890625 C 21.08335113525391 87.55138397216797 26.11002349853516 90.940673828125 31.70639801025391 93.30773162841797 C 37.49885940551758 95.75773620605469 43.65372085571289 97 49.99999618530273 97 C 56.34627151489258 97 62.50113296508789 95.75773620605469 68.29359436035156 93.30773162841797 C 73.88996887207031 90.940673828125 78.91664123535156 87.55138397216797 83.2340087890625 83.2340087890625 C 87.55138397216797 78.91664123535156 90.940673828125 73.88996887207031 93.30773162841797 68.29359436035156 C 95.75773620605469 62.50113296508789 97 56.34627151489258 97 49.99999618530273 C 97 43.65372085571289 95.75773620605469 37.49885940551758 93.30773162841797 31.70639801025391 C 90.940673828125 26.11002349853516 87.55138397216797 21.08335113525391 83.2340087890625 16.76598358154297 C 78.91664123535156 12.4486083984375 73.88996887207031 9.059318542480469 68.29359436035156 6.6922607421875 C 62.50113296508789 4.242256164550781 56.34627151489258 2.999992370605469 49.99999618530273 2.999992370605469 M 49.99999618530273 -7.62939453125e-06 C 77.61422729492188 -7.62939453125e-06 100 22.38576507568359 100 49.99999618530273 C 100 77.61422729492188 77.61422729492188 100 49.99999618530273 100 C 22.38576507568359 100 -7.62939453125e-06 77.61422729492188 -7.62939453125e-06 49.99999618530273 C -7.62939453125e-06 22.38576507568359 22.38576507568359 -7.62939453125e-06 49.99999618530273 -7.62939453125e-06 Z" stroke="none" fill="#eca675"/>
                              </g>
                            </g>
                          </g>
                        </g>
                      </g>
                    </g>
                  </g>
                </g>
              </g>
            </g>
          </g>
        </g>
      </g>
    </g>
    <g id="productive_3696787" transform="translate(1237.539 8022.825)">
      <g id="Grupo_1230479" data-name="Grupo 1230479" transform="translate(11.482 4.162)">
        <g id="Grupo_1230478" data-name="Grupo 1230478" transform="translate(0 0)">
          <path id="Trazado_1181662" data-name="Trazado 1181662" d="M82.365,41l-1.929-1.116a23.218,23.218,0,0,0,0-13.772l1.929-1.116a2.211,2.211,0,0,0,.811-3.021l-2.859-4.95a2.211,2.211,0,0,0-3.021-.811l-1.937,1.118a23.083,23.083,0,0,0-11.922-6.884V8.213A2.212,2.212,0,0,0,61.223,6H55.51A2.212,2.212,0,0,0,53.3,8.213v2.234a23.083,23.083,0,0,0-11.922,6.884l-1.937-1.118a2.211,2.211,0,0,0-3.021.811l-2.859,4.95a2.211,2.211,0,0,0,.811,3.021L36.3,26.11a23.218,23.218,0,0,0,0,13.772L34.369,41a2.211,2.211,0,0,0-.811,3.021l2.859,4.95a2.213,2.213,0,0,0,2.92.867l.1-.056,1.508-.872a2.475,2.475,0,0,1,3.8-3.135l7.293,7.287a10.185,10.185,0,0,1,2.976,6.877,2.162,2.162,0,0,0,.493.056h5.713a2.162,2.162,0,0,0,.493-.056,10.185,10.185,0,0,1,2.976-6.877l7.293-7.287a2.475,2.475,0,0,1,3.8,3.135c.1.06,1.5.871,1.609.927a2.213,2.213,0,0,0,2.92-.867l2.859-4.95A2.211,2.211,0,0,0,82.365,41Zm-24,5.922A13.923,13.923,0,1,1,72.289,33,13.923,13.923,0,0,1,58.367,46.919Z" transform="translate(-33.262 -6)" fill="#fb5e3d"/>
        </g>
      </g>
      <g id="Grupo_1230481" data-name="Grupo 1230481" transform="translate(38.076 41.352)">
        <g id="Grupo_1230480" data-name="Grupo 1230480">
          <path id="Trazado_1181663" data-name="Trazado 1181663" d="M151.16,152.988c-.1-.056-1.506-.868-1.609-.927a2.475,2.475,0,0,0-3.8-3.135l-7.293,7.287a10.185,10.185,0,0,0-2.976,6.877,2.162,2.162,0,0,1-.493.056H133.62a12.013,12.013,0,0,1,3.524-8.244l7.293-7.287a4.329,4.329,0,0,1,6.723,5.374Z" transform="translate(-133.62 -146.343)" fill="#b34f33"/>
        </g>
      </g>
      <g id="Grupo_1230483" data-name="Grupo 1230483" transform="translate(16.885 41.352)">
        <g id="Grupo_1230482" data-name="Grupo 1230482" transform="translate(0)">
          <path id="Trazado_1181664" data-name="Trazado 1181664" d="M71.862,163.146H70.5A2.162,2.162,0,0,1,70,163.09a10.185,10.185,0,0,0-2.976-6.877l-7.293-7.287a2.475,2.475,0,0,0-3.8,3.135l-1.508.872-.1.056a4.329,4.329,0,0,1,6.723-5.374L68.34,154.9A11.981,11.981,0,0,1,71.862,163.146Z" transform="translate(-53.652 -146.343)" fill="#b34f33"/>
        </g>
      </g>
      <g id="Grupo_1230485" data-name="Grupo 1230485" transform="translate(39.93 32.996)">
        <g id="Grupo_1230484" data-name="Grupo 1230484" transform="translate(0 0)">
          <path id="Trazado_1181665" data-name="Trazado 1181665" d="M169.569,117.537l-.1,12.206a3,3,0,0,1-.877,2.115l-14.628,14.628v3.546h-13.35v-9.444h.005c-.008-.225-.008-.448,0-.673a10.185,10.185,0,0,1,2.976-6.877l7.293-7.287a2.475,2.475,0,0,1,3.8,3.135,2.54,2.54,0,0,1-.331.408l-3.45,3.45a2.732,2.732,0,0,0,.034,3.893,2.827,2.827,0,0,0,3.89-.1l8.5-8.5a2.326,2.326,0,0,0,.686-1.651l.1-8.845a2.724,2.724,0,1,1,5.448,0Z" transform="translate(-140.617 -114.81)" fill="#ffb69f"/>
        </g>
      </g>
      <g id="Grupo_1230487" data-name="Grupo 1230487" transform="translate(50.271 35.059)">
        <g id="Grupo_1230486" data-name="Grupo 1230486">
          <path id="Trazado_1181666" data-name="Trazado 1181666" d="M180.305,154.89a.662.662,0,0,1-.662-.662v-2.99a.664.664,0,0,1,.194-.469l15.314-15.314.063-8.226a.662.662,0,0,1,.662-.657h.005a.662.662,0,0,1,.657.668l-.065,8.213a1.325,1.325,0,0,1-.385.938l-15.121,15.121v2.716A.662.662,0,0,1,180.305,154.89ZM195.9,125.248h-.005a.662.662,0,0,1-.657-.668l.01-1.325a.662.662,0,0,1,.662-.657h.005a.662.662,0,0,1,.657.668l-.01,1.325a.662.662,0,0,1-.662.657Z" transform="translate(-179.643 -122.598)" fill="#fbe0e2"/>
        </g>
      </g>
      <g id="Grupo_1230489" data-name="Grupo 1230489" transform="translate(4.292 32.996)">
        <g id="Grupo_1230488" data-name="Grupo 1230488" transform="translate(0 0)">
          <path id="Trazado_1181667" data-name="Trazado 1181667" d="M35.08,140.586v9.444H21.73v-3.546L7.1,131.857a3,3,0,0,1-.877-2.115l-.1-12.206a2.724,2.724,0,1,1,5.448,0l.1,8.845a2.326,2.326,0,0,0,.686,1.651l8.5,8.5a2.827,2.827,0,0,0,3.89.1,2.732,2.732,0,0,0,.034-3.893l-3.45-3.45a2.538,2.538,0,0,1-.331-.408,2.475,2.475,0,0,1,3.8-3.135l7.293,7.287a10.185,10.185,0,0,1,2.976,6.877c.008.225.008.448,0,.673Z" transform="translate(-6.13 -114.81)" fill="#ffb69f"/>
        </g>
      </g>
      <g id="Grupo_1230491" data-name="Grupo 1230491" transform="translate(20.646 44.931)">
        <g id="Grupo_1230490" data-name="Grupo 1230490">
          <path id="Trazado_1181668" data-name="Trazado 1181668" d="M78.1,182.271c-.3,0-.66-.148-.664-.851l-.009-2.276a.663.663,0,0,1,.66-.665h0a.663.663,0,0,1,.662.66c0,1.331.01,2.391.01,2.459v.01A.662.662,0,0,1,78.1,182.271Zm-.007-5.783a.657.657,0,0,1-.673-.656c0-.774,0-1.912.012-2.244a7.223,7.223,0,0,0-2.1-5.318l-7.293-7.289a.662.662,0,1,1,.937-.937l7.293,7.289a8.556,8.556,0,0,1,2.483,6.3c-.01.308-.012,1.442-.011,2.2a.657.657,0,0,1-.645.657Z" transform="translate(-67.847 -159.85)" fill="#fbe0e2"/>
        </g>
      </g>
      <g id="Grupo_1230498" data-name="Grupo 1230498" transform="translate(27.288 24.334)">
        <g id="Grupo_1230493" data-name="Grupo 1230493" transform="translate(0 3.397)">
          <g id="Grupo_1230492" data-name="Grupo 1230492">
            <path id="Trazado_1181669" data-name="Trazado 1181669" d="M97.433,95.721,100.51,98.8l-1.874,1.874a2.651,2.651,0,0,0,0,3.748l-4.951-4.951a2.65,2.65,0,0,1,3.748-3.748Z" transform="translate(-92.91 -94.946)" fill="#efc01f"/>
          </g>
        </g>
        <g id="Grupo_1230495" data-name="Grupo 1230495" transform="translate(4.951 7.25)">
          <g id="Grupo_1230494" data-name="Grupo 1230494">
            <path id="Trazado_1181670" data-name="Trazado 1181670" d="M114.241,109.484l1.874,1.874a2.65,2.65,0,1,1-3.748,0Z" transform="translate(-111.592 -109.484)" fill="#72c2e9"/>
          </g>
        </g>
        <g id="Grupo_1230497" data-name="Grupo 1230497" transform="translate(7.6)">
          <g id="Grupo_1230496" data-name="Grupo 1230496">
            <path id="Trazado_1181671" data-name="Trazado 1181671" d="M131.812,82.9a2.651,2.651,0,0,1,0,3.748L123.464,95a2.651,2.651,0,0,0,0-3.748l-1.874-1.874,6.474-6.474A2.651,2.651,0,0,1,131.812,82.9Z" transform="translate(-121.59 -82.126)" fill="#13bf6d"/>
          </g>
        </g>
      </g>
      <g id="Grupo_1230499" data-name="Grupo 1230499" transform="translate(3.629 3.499)">
        <path id="Trazado_1181672" data-name="Trazado 1181672" d="M83.745,30.6a.663.663,0,0,0,.251-.9.682.682,0,0,0-.9-.254.663.663,0,0,0,.652,1.155Z" transform="translate(-61.788 -22.508)"/>
        <path id="Trazado_1181673" data-name="Trazado 1181673" d="M197.052,200.522l-8.358,8.355a.675.675,0,0,0-.193.469v3.546a.662.662,0,1,0,1.325,0v-3.27l8.162-8.164a.662.662,0,0,0,0-.935A.679.679,0,0,0,197.052,200.522Z" transform="translate(-139.511 -148.175)"/>
        <path id="Trazado_1181674" data-name="Trazado 1181674" d="M227.3,193.446a.661.661,0,1,0,.935,0A.674.674,0,0,0,227.3,193.446Z" transform="translate(-167.886 -142.973)"/>
        <path id="Trazado_1181675" data-name="Trazado 1181675" d="M66.159,32.333a3.394,3.394,0,0,0-3.389,3.381l-.1,8.845v.008a1.659,1.659,0,0,1-.491,1.182l-8.5,8.5a2.161,2.161,0,0,1-2.96.09,2.066,2.066,0,0,1-.027-2.947c4.295-4.3,3.3-3.3,3.47-3.472l1.019.589a2.871,2.871,0,0,0,3.925-1.052l2.859-4.95a2.874,2.874,0,0,0-1.052-3.927l-1.476-.853a23.884,23.884,0,0,0,0-13.146l1.476-.856A2.874,2.874,0,0,0,61.97,19.8l-2.862-4.95A2.873,2.873,0,0,0,55.183,13.8l-1.484.856A23.73,23.73,0,0,0,42.318,8.083V6.374A2.883,2.883,0,0,0,39.442,3.5H33.73a2.883,2.883,0,0,0-2.875,2.875V8.083a24,24,0,0,0-3.472,1.15.664.664,0,0,0-.355.869.671.671,0,0,0,.867.352,22.41,22.41,0,0,1,3.768-1.2.666.666,0,0,0,.517-.647V6.374a1.554,1.554,0,0,1,1.55-1.55h5.713a1.554,1.554,0,0,1,1.55,1.55V8.608a.658.658,0,0,0,.517.647A22.32,22.32,0,0,1,53.09,15.94a.68.68,0,0,0,.819.127l1.937-1.121a1.546,1.546,0,0,1,2.115.57l2.862,4.95a1.546,1.546,0,0,1-.57,2.115L58.324,23.7a.659.659,0,0,0-.3.771,22.538,22.538,0,0,1,0,13.377.657.657,0,0,0,.3.768l1.929,1.116a1.547,1.547,0,0,1,.567,2.117L57.964,46.8a1.548,1.548,0,0,1-2.035.612c-.039-.017-1.013-.581-1.049-.6a3.134,3.134,0,0,0-5.144-3.344l-7.293,7.287a10.808,10.808,0,0,0-3.127,6.683H33.858a10.8,10.8,0,0,0-3.128-6.683l-7.293-7.287a3.133,3.133,0,0,0-5.143,3.343l-.967.559a1.549,1.549,0,0,1-2.117-.57l-2.859-4.95a1.543,1.543,0,0,1,.569-2.115l1.929-1.118a.654.654,0,0,0,.3-.771,22.591,22.591,0,0,1,0-13.374.654.654,0,0,0-.3-.771L12.92,22.581a1.544,1.544,0,0,1-.569-2.115l2.859-4.95a1.549,1.549,0,0,1,2.117-.57l1.937,1.121a.676.676,0,0,0,.819-.127,22.59,22.59,0,0,1,3.336-2.965.662.662,0,0,0,.149-.925.679.679,0,0,0-.925-.148,23.927,23.927,0,0,0-3.169,2.756L17.989,13.8a2.873,2.873,0,0,0-3.927,1.055L11.2,19.8a2.879,2.879,0,0,0,1.054,3.927l1.476.851a23.906,23.906,0,0,0,0,13.152l-1.476.853A2.875,2.875,0,0,0,11.2,42.511l2.862,4.95a2.868,2.868,0,0,0,3.927,1.052l1.017-.589c.152.155,3.314,3.316,3.469,3.471a2.068,2.068,0,0,1-.026,2.949,2.177,2.177,0,0,1-2.961-.09l-8.5-8.505a1.659,1.659,0,0,1-.491-1.188l-.1-8.838a3.387,3.387,0,1,0-6.773.005l.1,12.2A3.64,3.64,0,0,0,4.8,50.511L19.229,64.944v3.271a.662.662,0,1,0,1.325,0V64.67a.664.664,0,0,0-.194-.469L5.734,49.575a2.326,2.326,0,0,1-.684-1.652l-.1-12.2a2.062,2.062,0,1,1,4.124.007l.1,8.838a2.97,2.97,0,0,0,.88,2.119l8.5,8.5a3.5,3.5,0,0,0,4.82.105,3.392,3.392,0,0,0,.042-4.837l-3.45-3.45a1.855,1.855,0,0,1-.067-2.575,1.815,1.815,0,0,1,2.6-.032l7.293,7.287a9.5,9.5,0,0,1,2.782,7.059s0-.332,0,9.467a.662.662,0,1,0,1.325,0v-9.4h5.363v9.4a.662.662,0,1,0,1.325,0c0-9.8.005-9.468.005-9.468a9.5,9.5,0,0,1,2.782-7.057L50.674,44.4a1.813,1.813,0,0,1,2.6.032,1.847,1.847,0,0,1-.066,2.573l-3.45,3.45A3.4,3.4,0,0,0,49.8,55.3a3.493,3.493,0,0,0,4.82-.106l8.5-8.5A3.021,3.021,0,0,0,64,44.576l.1-8.845v-.008a2.062,2.062,0,1,1,4.124,0l-.1,12.2a2.339,2.339,0,0,1-.684,1.654L64.917,52.1a.662.662,0,0,0,0,.935.673.673,0,0,0,.935,0l2.525-2.523a3.648,3.648,0,0,0,1.071-2.584l.1-12.2a3.4,3.4,0,0,0-3.384-3.395Z" transform="translate(-3.629 -3.499)"/>
        <path id="Trazado_1181676" data-name="Trazado 1181676" d="M109.365,80.6a3.316,3.316,0,0,0-4.685,0L98.675,86.6,96.067,84a3.312,3.312,0,0,0-4.685,4.684l4.951,4.951a3.316,3.316,0,0,0,4.685,0l8.348-8.348A3.317,3.317,0,0,0,109.365,80.6ZM92.319,84.933a1.99,1.99,0,0,1,2.811,0l2.608,2.608-1.405,1.405a3.342,3.342,0,0,0-.936,1.875l-3.078-3.078a1.987,1.987,0,0,1,0-2.811Zm4.951,7.761a1.99,1.99,0,0,1,0-2.811l1.406-1.405,1.406,1.405a1.988,1.988,0,1,1-2.811,2.811Zm11.159-8.348-6.475,6.475a3.344,3.344,0,0,0-.936-1.875l-1.405-1.405,6.006-6.006a1.988,1.988,0,0,1,2.811,2.811Z" transform="translate(-67.416 -59.456)"/>
        <path id="Trazado_1181677" data-name="Trazado 1181677" d="M94.53,80.225A14.59,14.59,0,1,0,87.545,82a15,15,0,0,0,1.728-.1.663.663,0,0,0-.156-1.317,13.483,13.483,0,0,1-1.571.093,13.254,13.254,0,1,1,6.349-1.616.663.663,0,0,0-.265.9A.681.681,0,0,0,94.53,80.225Z" transform="translate(-54.588 -39.758)"/>
        <path id="Trazado_1181678" data-name="Trazado 1181678" d="M141.942,155.474h0a.662.662,0,1,0,.835.429.664.664,0,0,0-.835-.429Z" transform="translate(-104.951 -115.179)"/>
      </g>
      <g id="Grupo_1230501" data-name="Grupo 1230501" transform="translate(19.394 13.403)">
        <g id="Grupo_1230500" data-name="Grupo 1230500">
          <path id="Trazado_1181679" data-name="Trazado 1181679" d="M96.07,65.3a.663.663,0,0,1-.386-.854c.161-.427.306-.864.43-1.3a.662.662,0,0,1,1.274.363c-.134.471-.29.943-.464,1.4a.663.663,0,0,1-.854.386ZM97.2,61.387a.663.663,0,0,1-.577-.739,16.432,16.432,0,0,0-32.2-6.209.662.662,0,1,1-1.281-.337,17.757,17.757,0,0,1,34.792,6.708A.663.663,0,0,1,97.2,61.387Z" transform="translate(-63.12 -40.874)" fill="#ffcbc3"/>
        </g>
      </g>
    </g>
  </g>
</svg>
