<svg xmlns="http://www.w3.org/2000/svg" xmlns:xlink="http://www.w3.org/1999/xlink" width="108" height="108" viewBox="0 0 108 108">
  <defs>
    <filter id="Trazado_904820" x="0" y="0" width="108" height="108" filterUnits="userSpaceOnUse">
      <feOffset dy="3" input="SourceAlpha"/>
      <feGaussianBlur stdDeviation="3" result="blur"/>
      <feFlood flood-opacity="0.161"/>
      <feComposite operator="in" in2="blur"/>
      <feComposite in="SourceGraphic"/>
    </filter>
  </defs>
  <g id="Grupo_1230756" data-name="Grupo 1230756" transform="translate(-200 -1654.002)">
    <g id="Grupo_1222170" data-name="Grupo 1222170" transform="translate(209 1660.002)">
      <g id="Grupo_1173585" data-name="Grupo 1173585" transform="translate(0 0)">
        <g id="Grupo_1173428" data-name="Grupo 1173428">
          <g id="Grupo_1171958" data-name="Grupo 1171958">
            <g id="Grupo_1167341" data-name="Grupo 1167341">
              <g id="Grupo_1166792" data-name="Grupo 1166792">
                <g transform="matrix(1, 0, 0, 1, -9, -6)" filter="url(#Trazado_904820)">
                  <g id="Trazado_904820-2" data-name="Trazado 904820" transform="translate(9 6)" fill="#fcf5f0">
                    <path d="M 44.99999618530273 88.50002288818359 C 39.12687301635742 88.50002288818359 33.43022155761719 87.35009765625 28.06829643249512 85.08218383789062 C 22.88852119445801 82.89133453369141 18.23629570007324 79.75460815429688 14.24084663391113 75.7591552734375 C 10.24540901184082 71.76371002197266 7.108683586120605 67.11148071289062 4.917821407318115 61.93170928955078 C 2.649921178817749 56.56978225708008 1.499996185302734 50.87313079833984 1.499996185302734 45.00000762939453 C 1.499996185302734 39.12688446044922 2.649921178817749 33.43023300170898 4.917821407318115 28.06830787658691 C 7.108683586120605 22.8885326385498 10.24540901184082 18.23630714416504 14.24084663391113 14.24085807800293 C 18.23629570007324 10.24542045593262 22.88852119445801 7.108695030212402 28.06829643249512 4.917832851409912 C 33.43022155761719 2.649932622909546 39.12687301635742 1.500007629394531 44.99999618530273 1.500007629394531 C 50.87311935424805 1.500007629394531 56.56977081298828 2.649932622909546 61.93169784545898 4.917832851409912 C 67.11147308349609 7.108695030212402 71.76369476318359 10.24542045593262 75.75914764404297 14.24085807800293 C 79.75458526611328 18.23630714416504 82.89131164550781 22.8885326385498 85.08216857910156 28.06830787658691 C 87.35007476806641 33.43023300170898 88.5 39.12688446044922 88.5 45.00000762939453 C 88.5 50.87313079833984 87.35007476806641 56.56978225708008 85.08216857910156 61.93170928955078 C 82.89131164550781 67.11148071289062 79.75458526611328 71.76371002197266 75.75914764404297 75.7591552734375 C 71.76369476318359 79.75460815429688 67.11147308349609 82.89133453369141 61.93169784545898 85.08218383789062 C 56.56977081298828 87.35009765625 50.87311935424805 88.50002288818359 44.99999618530273 88.50002288818359 Z" stroke="none"/>
                    <path d="M 44.99999618530273 2.999992370605469 C 39.32870864868164 2.999992370605469 33.82865142822266 4.110054016113281 28.65262603759766 6.299339294433594 C 23.65165710449219 8.414566040039062 19.15968322753906 11.44333648681641 15.301513671875 15.30150604248047 C 11.44333648681641 19.15967559814453 8.414566040039062 23.65164947509766 6.299339294433594 28.65262222290039 C 4.110054016113281 33.82866287231445 2.999992370605469 39.32872009277344 2.999992370605469 45.00000762939453 C 2.999992370605469 50.67129516601562 4.110054016113281 56.17133712768555 6.299339294433594 61.34738159179688 C 8.414566040039062 66.34835052490234 11.44333648681641 70.84030914306641 15.301513671875 74.69849395751953 C 19.15968322753906 78.55666351318359 23.65165710449219 81.58543395996094 28.65262603759766 83.70066833496094 C 33.82865142822266 85.88995361328125 39.32870864868164 87.00000762939453 44.99999618530273 87.00000762939453 C 50.67128372192383 87.00000762939453 56.17134094238281 85.88995361328125 61.34736633300781 83.70066833496094 C 66.34834289550781 81.58543395996094 70.84030914306641 78.55666351318359 74.69847869873047 74.69849395751953 C 78.55665588378906 70.84030914306641 81.58542633056641 66.34835052490234 83.70065307617188 61.34738159179688 C 85.88993835449219 56.17133712768555 87 50.67129516601562 87 45.00000762939453 C 87 39.32872009277344 85.88993835449219 33.82866287231445 83.70065307617188 28.65262222290039 C 81.58542633056641 23.65164947509766 78.55665588378906 19.15967559814453 74.69847869873047 15.30150604248047 C 70.84030914306641 11.44333648681641 66.34834289550781 8.414566040039062 61.34736633300781 6.299339294433594 C 56.17134094238281 4.110054016113281 50.67128372192383 2.999992370605469 44.99999618530273 2.999992370605469 M 44.99999618530273 -7.62939453125e-06 C 69.85281372070312 -7.62939453125e-06 90 20.14717864990234 90 45.00000762939453 C 90 69.85280609130859 69.85281372070312 90.00000762939453 44.99999618530273 90.00000762939453 C 20.14717864990234 90.00000762939453 -7.62939453125e-06 69.85280609130859 -7.62939453125e-06 45.00000762939453 C -7.62939453125e-06 20.14717864990234 20.14717864990234 -7.62939453125e-06 44.99999618530273 -7.62939453125e-06 Z" stroke="none" fill="#eca675"/>
                  </g>
                </g>
              </g>
            </g>
          </g>
        </g>
      </g>
    </g>
    <g id="Layer_x0020_1" transform="translate(102.078 1673.45)">
      <path id="Trazado_1181066" data-name="Trazado 1181066" d="M648,1039.775h15.194l-.3-1.775H648Z" transform="translate(-503.666 -999.627)" fill="#b45f4a" fill-rule="evenodd"/>
      <path id="Trazado_1181067" data-name="Trazado 1181067" d="M178.124,1102.93h-30.61a.74.74,0,0,1,0-1.479h30.61A.74.74,0,0,1,178.124,1102.93Zm-38.632,0H132.8a7.794,7.794,0,0,1-7.8-7.763V1092.8a7.8,7.8,0,0,1,7.8-7.8h45.323a.74.74,0,0,1,0,1.479H132.8a6.319,6.319,0,0,0-6.322,6.322v2.329a6.319,6.319,0,0,0,6.322,6.322h6.691A.739.739,0,1,1,139.492,1102.93Z" transform="translate(0 -1044.889)" fill-rule="evenodd"/>
      <path id="Trazado_1181068" data-name="Trazado 1181068" d="M1456.739,1102.689a.741.741,0,0,1-.739-.739V1085.5a.739.739,0,1,1,1.479,0v16.451A.742.742,0,0,1,1456.739,1102.689Z" transform="translate(-1281.795 -1044.648)" fill-rule="evenodd"/>
      <path id="Trazado_1181069" data-name="Trazado 1181069" d="M497.739,1390.163a.742.742,0,0,1-.739-.739V1378.74a.742.742,0,0,1,.739-.74h8.022a.742.742,0,0,1,.739.74v10.684a.73.73,0,0,1-1.331.407l-3.4-4.769-3.4,4.769A.726.726,0,0,1,497.739,1390.163Zm4.03-7.135a.814.814,0,0,1,.591.333l2.662,3.734v-7.615h-6.543v7.615l2.662-3.734A.823.823,0,0,1,501.769,1383.028Z" transform="translate(-358.248 -1327.057)" fill-rule="evenodd"/>
      <path id="Trazado_1181070" data-name="Trazado 1181070" d="M780.065,308.4a.719.719,0,0,1-.739-.739V284.221a.74.74,0,0,1,1.479,0v23.438A.719.719,0,0,1,780.065,308.4Zm-4.325,0a.7.7,0,0,1-.739-.739V284.221a.74.74,0,0,1,1.479,0v23.438A.719.719,0,0,1,775.739,308.4Z" transform="translate(-625.97 -273.019)" fill-rule="evenodd"/>
      <path id="Trazado_1181071" data-name="Trazado 1181071" d="M700.467,921.732H689.783a.759.759,0,0,1-.7-1l1.109-3.216a.756.756,0,0,1,.7-.518h8.466c1,0,1.072,2,1.774,3.623A.751.751,0,0,1,700.467,921.732Zm-9.649-1.479h8.614l-.591-1.737H691.41Z" transform="translate(-543.194 -883.1)" fill-rule="evenodd"/>
      <path id="Trazado_1181072" data-name="Trazado 1181072" d="M643.9,1009.436H628.739a.742.742,0,0,1-.739-.739v-2.957a.742.742,0,0,1,.739-.739H643.9a.742.742,0,0,1,.739.739v2.957A.742.742,0,0,1,643.9,1009.436Zm-14.418-1.479h13.678v-1.479H629.479Z" transform="translate(-484.405 -967.847)" fill-rule="evenodd"/>
      <path id="Trazado_1181073" data-name="Trazado 1181073" d="M1306.74,225.323a.742.742,0,0,1-.739-.739V210.5a.739.739,0,1,1,1.479,0v14.085A.741.741,0,0,1,1306.74,225.323Z" transform="translate(-1137.34 -201.996)" fill-rule="evenodd"/>
      <path id="Trazado_1181074" data-name="Trazado 1181074" d="M1091.976,601.166a8.961,8.961,0,0,1-8.983-8.946c0-.407-.037-1.22.739-1.22h16.451c.813,0,.739.813.739,1.22A8.954,8.954,0,0,1,1091.976,601.166Zm-7.468-8.688a7.472,7.472,0,0,0,14.935,0Z" transform="translate(-922.577 -569.152)" fill-rule="evenodd"/>
      <path id="Trazado_1181075" data-name="Trazado 1181075" d="M1100.28,225.082a.716.716,0,0,1-.629-.37l-7.578-13.013-7.578,13.013a.745.745,0,0,1-1.294-.739l8.207-14.085a.733.733,0,0,1,1.294,0l8.207,14.085A.738.738,0,0,1,1100.28,225.082Z" transform="translate(-922.674 -201.755)" fill-rule="evenodd"/>
      <path id="Trazado_1181076" data-name="Trazado 1181076" d="M1247.995,92.063c-3.993,0-3.993-6.063,0-6.063S1251.987,92.063,1247.995,92.063Zm0-4.584a1.553,1.553,0,0,0,0,3.105A1.553,1.553,0,0,0,1247.995,87.479Z" transform="translate(-1078.595 -82.821)" fill-rule="evenodd"/>
      <path id="Trazado_1181077" data-name="Trazado 1181077" d="M361.739,225.323a.742.742,0,0,1-.739-.739V210.5a.739.739,0,1,1,1.479,0v14.085A.742.742,0,0,1,361.739,225.323Z" transform="translate(-227.275 -201.996)" fill-rule="evenodd"/>
      <path id="Trazado_1181078" data-name="Trazado 1181078" d="M147.9,601.166a8.93,8.93,0,0,1-8.946-8.946c0-.407-.074-1.22.739-1.22h16.414c.813,0,.739.813.739,1.22A8.93,8.93,0,0,1,147.9,601.166Zm-7.468-8.688a7.472,7.472,0,0,0,14.935,0Z" transform="translate(-13.437 -569.152)" fill-rule="evenodd"/>
      <path id="Trazado_1181079" data-name="Trazado 1181079" d="M155.338,225.082a.762.762,0,0,1-.628-.37L147.131,211.7l-7.579,13.013a.745.745,0,0,1-1.294-.739l8.244-14.085a.7.7,0,0,1,1.257,0L156,223.973A.767.767,0,0,1,155.338,225.082Z" transform="translate(-12.667 -201.755)" fill-rule="evenodd"/>
      <path id="Trazado_1181080" data-name="Trazado 1181080" d="M302.994,92.063C299,92.063,299,86,302.994,86,306.95,86,306.95,92.063,302.994,92.063Zm0-4.584a1.553,1.553,0,1,0,0,3.105A1.553,1.553,0,0,0,302.994,87.479Z" transform="translate(-168.531 -82.821)" fill-rule="evenodd"/>
      <path id="Trazado_1181081" data-name="Trazado 1181081" d="M444.589,117.993h-10.24a.74.74,0,0,1,0-1.479h10.24A.74.74,0,0,1,444.589,117.993Zm-20.85,0H413.5a.739.739,0,1,1,0-1.479h10.24A.74.74,0,0,1,423.739,117.993Zm20.85-2.514h-10.24a.74.74,0,0,1,0-1.479h10.24A.74.74,0,0,1,444.589,115.479Zm-20.85,0H413.5a.739.739,0,1,1,0-1.479h10.24A.74.74,0,0,1,423.739,115.479Z" transform="translate(-277.112 -109.786)" fill-rule="evenodd"/>
      <path id="Trazado_1181082" data-name="Trazado 1181082" d="M692.174,12.384a6.192,6.192,0,1,1,6.211-6.174A6.185,6.185,0,0,1,692.174,12.384Zm0-10.906a4.714,4.714,0,1,0,4.732,4.732A4.71,4.71,0,0,0,692.174,1.479Z" transform="translate(-540.261)" fill-rule="evenodd"/>
      <path id="Trazado_1181083" data-name="Trazado 1181083" d="M769.216,85.543c-4.288,0-4.288-6.543,0-6.543C773.542,79,773.542,85.543,769.216,85.543Zm0-5.065a1.794,1.794,0,0,0,0,3.586A1.794,1.794,0,0,0,769.216,80.479Z" transform="translate(-617.303 -76.079)" fill-rule="evenodd"/>
      <path id="Trazado_1181084" data-name="Trazado 1181084" d="M371.639,1379.479H337.221a.74.74,0,0,1,0-1.479h34.418A.74.74,0,0,1,371.639,1379.479Z" transform="translate(-203.681 -1327.057)" fill-rule="evenodd"/>
      <path id="Trazado_1181085" data-name="Trazado 1181085" d="M371.639,1238.479H337.221a.74.74,0,0,1,0-1.479h34.418A.74.74,0,0,1,371.639,1238.479Z" transform="translate(-203.681 -1191.27)" fill-rule="evenodd"/>
      <path id="Trazado_1181086" data-name="Trazado 1181086" d="M172.061,1129.14h34.418a.74.74,0,0,1,0,1.479H172.061A.74.74,0,0,1,172.061,1129.14Zm13.974,5.213h20.444a.74.74,0,0,1,0,1.479h-19.7v4.141h25.952V1125h-41.4a6.319,6.319,0,0,0-6.322,6.322v2.329a6.319,6.319,0,0,0,6.322,6.322h5.952v-4.141h-5.213a.74.74,0,0,1,0-1.479h13.974Z" transform="translate(-38.521 -1083.41)" fill="#fff3de" fill-rule="evenodd"/>
      <path id="Trazado_1181087" data-name="Trazado 1181087" d="M543.543,1418H537v7.616l2.662-3.734a.823.823,0,0,1,.628-.333.814.814,0,0,1,.591.333l2.662,3.734Z" transform="translate(-396.769 -1365.579)" fill="#fb2b3a" fill-rule="evenodd"/>
      <path id="Trazado_1181088" data-name="Trazado 1181088" d="M737,958.774h8.614l-.591-1.737L743.469,957h-4.325l-1.553.037Z" transform="translate(-589.375 -921.621)" fill="#b45f4a" fill-rule="evenodd"/>
      <path id="Trazado_1181089" data-name="Trazado 1181089" d="M815,352.664h2.847V331a5.957,5.957,0,0,1-1.442.148A5.847,5.847,0,0,1,815,331Z" transform="translate(-664.492 -318.763)" fill="#b45f4a" fill-rule="evenodd"/>
      <path id="Trazado_1181090" data-name="Trazado 1181090" d="M1124,631a7.472,7.472,0,0,0,14.935,0H1124Z" transform="translate(-962.068 -607.673)" fill="#e59d1f" fill-rule="evenodd"/>
      <path id="Trazado_1181091" data-name="Trazado 1181091" d="M1285.018,128.477a1.457,1.457,0,0,0,1.257.628,1.553,1.553,0,0,0,0-3.105,1.457,1.457,0,0,0-1.257.628c-.037.037-.037.111-.074.148a1.65,1.65,0,0,0,0,1.553C1284.981,128.366,1284.981,128.4,1285.018,128.477Z" transform="translate(-1116.876 -121.342)" fill="#feca57" fill-rule="evenodd"/>
      <path id="Trazado_1181092" data-name="Trazado 1181092" d="M1020,155.035h8.355a4.839,4.839,0,0,1,0-1.035H1020a2.272,2.272,0,0,1,.037.518A2.618,2.618,0,0,1,1020,155.035Z" transform="translate(-861.913 -148.307)" fill="#c46f5f" fill-rule="evenodd"/>
      <path id="Trazado_1181093" data-name="Trazado 1181093" d="M807.5,122.586a1.793,1.793,0,0,0,0-3.586A1.793,1.793,0,0,0,807.5,122.586Z" transform="translate(-655.584 -114.601)" fill="#feb64e" fill-rule="evenodd"/>
      <path id="Trazado_1181094" data-name="Trazado 1181094" d="M730.695,41.442c4.325,0,4.325,6.543,0,6.543C726.407,47.985,726.407,41.442,730.695,41.442Zm4.732,3.29a4.714,4.714,0,1,0-4.732,4.695A4.718,4.718,0,0,0,735.427,44.732Z" transform="translate(-578.782 -38.521)" fill="#feca57" fill-rule="evenodd"/>
      <path id="Trazado_1181095" data-name="Trazado 1181095" d="M468.355,154.518V154H460a2.442,2.442,0,0,1,0,1.035h8.355Z" transform="translate(-322.616 -148.307)" fill="#c46f5f" fill-rule="evenodd"/>
      <path id="Trazado_1181096" data-name="Trazado 1181096" d="M341.884,128.329a1.65,1.65,0,0,0,0-1.553.28.28,0,0,1-.074-.148,1.457,1.457,0,0,0-1.257-.628,1.553,1.553,0,1,0,0,3.105,1.457,1.457,0,0,0,1.257-.628A.192.192,0,0,1,341.884,128.329Z" transform="translate(-206.089 -121.342)" fill="#feca57" fill-rule="evenodd"/>
      <path id="Trazado_1181097" data-name="Trazado 1181097" d="M193.935,631H179a7.472,7.472,0,0,0,14.935,0Z" transform="translate(-52.004 -607.673)" fill="#e59d1f" fill-rule="evenodd"/>
    </g>
  </g>
</svg>
